G04 #@! TF.GenerationSoftware,KiCad,Pcbnew,10.0.6*
G04 #@! TF.CreationDate,2026-09-30T19:16:12+05:30*
G04 #@! TF.ProjectId,telematics-tracker,74656c65-6d61-4746-9963-732d74726163,rev?*
G04 #@! TF.SameCoordinates,Original*
G04 #@! TF.FileFunction,Paste,Bot*
G04 #@! TF.FilePolarity,Positive*
%FSLAX46Y46*%
G04 Gerber Fmt 4.6, Leading zero omitted, Abs format (unit mm)*
G04 Created by KiCad (PCBNEW 10.0.6) date 2026-09-30 19:16:12*
%MOMM*%
%LPD*%
G01*
G04 APERTURE LIST*
G04 Aperture macros list*
%AMRoundRect*
0 Rectangle with rounded corners*
0 $1 Rounding radius*
0 $2 $3 $4 $5 $6 $7 $8 $9 X,Y pos of 4 corners*
0 Add a 4 corners polygon primitive as box body*
4,1,4,$2,$3,$4,$5,$6,$7,$8,$9,$2,$3,0*
0 Add four circle primitives for the rounded corners*
1,1,$1+$1,$2,$3*
1,1,$1+$1,$4,$5*
1,1,$1+$1,$6,$7*
1,1,$1+$1,$8,$9*
0 Add four rect primitives between the rounded corners*
20,1,$1+$1,$2,$3,$4,$5,0*
20,1,$1+$1,$4,$5,$6,$7,0*
20,1,$1+$1,$6,$7,$8,$9,0*
20,1,$1+$1,$8,$9,$2,$3,0*%
G04 Aperture macros list end*
%ADD10RoundRect,0.250000X0.262500X0.450000X-0.262500X0.450000X-0.262500X-0.450000X0.262500X-0.450000X0*%
%ADD11RoundRect,0.225000X0.250000X-0.225000X0.250000X0.225000X-0.250000X0.225000X-0.250000X-0.225000X0*%
%ADD12RoundRect,0.250000X-0.312500X-0.625000X0.312500X-0.625000X0.312500X0.625000X-0.312500X0.625000X0*%
%ADD13RoundRect,0.150000X0.587500X0.150000X-0.587500X0.150000X-0.587500X-0.150000X0.587500X-0.150000X0*%
%ADD14O,0.609000X2.204000*%
%ADD15RoundRect,0.250000X0.450000X-0.262500X0.450000X0.262500X-0.450000X0.262500X-0.450000X-0.262500X0*%
%ADD16R,1.000000X1.800000*%
%ADD17RoundRect,0.225000X0.225000X0.250000X-0.225000X0.250000X-0.225000X-0.250000X0.225000X-0.250000X0*%
%ADD18RoundRect,0.250000X0.325000X1.100000X-0.325000X1.100000X-0.325000X-1.100000X0.325000X-1.100000X0*%
%ADD19RoundRect,0.250000X0.475000X-0.250000X0.475000X0.250000X-0.475000X0.250000X-0.475000X-0.250000X0*%
%ADD20R,0.560000X1.300000*%
%ADD21RoundRect,0.250000X-0.250000X-0.475000X0.250000X-0.475000X0.250000X0.475000X-0.250000X0.475000X0*%
%ADD22RoundRect,0.140000X0.140000X0.170000X-0.140000X0.170000X-0.140000X-0.170000X0.140000X-0.170000X0*%
%ADD23RoundRect,0.250000X1.000000X0.650000X-1.000000X0.650000X-1.000000X-0.650000X1.000000X-0.650000X0*%
%ADD24R,1.700000X0.400000*%
%ADD25RoundRect,0.250000X0.450000X0.350000X-0.450000X0.350000X-0.450000X-0.350000X0.450000X-0.350000X0*%
%ADD26R,1.635000X2.160000*%
%ADD27RoundRect,0.200000X-0.335876X-0.053033X-0.053033X-0.335876X0.335876X0.053033X0.053033X0.335876X0*%
G04 APERTURE END LIST*
D10*
G04 #@! TO.C,R46*
X28312500Y-39080000D03*
X26487500Y-39080000D03*
G04 #@! TD*
D11*
G04 #@! TO.C,C1*
X31370000Y-22755000D03*
X31370000Y-21205000D03*
G04 #@! TD*
D12*
G04 #@! TO.C,R16*
X13367500Y-47450000D03*
X16292500Y-47450000D03*
G04 #@! TD*
D13*
G04 #@! TO.C,Q8*
X48037500Y-38380000D03*
X48037500Y-40280000D03*
X46162500Y-39330000D03*
G04 #@! TD*
D14*
G04 #@! TO.C,U7*
X66800000Y-18980000D03*
X65530000Y-18980000D03*
X64270000Y-18980000D03*
X63000000Y-18980000D03*
X63000000Y-11900000D03*
X64270000Y-11900000D03*
X65530000Y-11900000D03*
X66800000Y-11900000D03*
G04 #@! TD*
D11*
G04 #@! TO.C,C69*
X42310000Y-44245000D03*
X42310000Y-42695000D03*
G04 #@! TD*
D15*
G04 #@! TO.C,R82*
X33000000Y-15912500D03*
X33000000Y-14087500D03*
G04 #@! TD*
D11*
G04 #@! TO.C,C4*
X32190000Y-31145000D03*
X32190000Y-29595000D03*
G04 #@! TD*
D16*
G04 #@! TO.C,Y2*
X29000000Y-25800000D03*
X31500000Y-25800000D03*
G04 #@! TD*
D11*
G04 #@! TO.C,C2*
X39410000Y-22765000D03*
X39410000Y-21215000D03*
G04 #@! TD*
D13*
G04 #@! TO.C,D5*
X18207500Y-42470000D03*
X18207500Y-44370000D03*
X16332500Y-43420000D03*
G04 #@! TD*
D10*
G04 #@! TO.C,R47*
X41442500Y-39080000D03*
X39617500Y-39080000D03*
G04 #@! TD*
G04 #@! TO.C,R48*
X54572500Y-39080000D03*
X52747500Y-39080000D03*
G04 #@! TD*
D17*
G04 #@! TO.C,C76*
X41075000Y-7280000D03*
X39525000Y-7280000D03*
G04 #@! TD*
D15*
G04 #@! TO.C,R87*
X50650000Y-55712500D03*
X50650000Y-53887500D03*
G04 #@! TD*
D11*
G04 #@! TO.C,C3*
X26330000Y-31165000D03*
X26330000Y-29615000D03*
G04 #@! TD*
G04 #@! TO.C,C68*
X37870000Y-44245000D03*
X37870000Y-42695000D03*
G04 #@! TD*
G04 #@! TO.C,C61*
X46740000Y-44475000D03*
X46740000Y-42925000D03*
G04 #@! TD*
D18*
G04 #@! TO.C,C81*
X86375000Y-17400000D03*
X83425000Y-17400000D03*
G04 #@! TD*
D12*
G04 #@! TO.C,R18*
X7617500Y-50200000D03*
X10542500Y-50200000D03*
G04 #@! TD*
G04 #@! TO.C,R19*
X13367500Y-50900000D03*
X16292500Y-50900000D03*
G04 #@! TD*
D13*
G04 #@! TO.C,Q6*
X48037500Y-33790000D03*
X48037500Y-35690000D03*
X46162500Y-34740000D03*
G04 #@! TD*
D19*
G04 #@! TO.C,C62*
X36270000Y-49460000D03*
X36270000Y-47560000D03*
G04 #@! TD*
D18*
G04 #@! TO.C,C82*
X91275000Y-17400000D03*
X88325000Y-17400000D03*
G04 #@! TD*
D20*
G04 #@! TO.C,OK1*
X23000000Y-54740000D03*
X20460000Y-54740000D03*
X20460000Y-48440000D03*
X23000000Y-48440000D03*
G04 #@! TD*
D10*
G04 #@! TO.C,R45*
X54572500Y-35230000D03*
X52747500Y-35230000D03*
G04 #@! TD*
D21*
G04 #@! TO.C,C78*
X26800000Y-7000000D03*
X28700000Y-7000000D03*
G04 #@! TD*
D22*
G04 #@! TO.C,C48*
X96380000Y-21600000D03*
X95420000Y-21600000D03*
G04 #@! TD*
D11*
G04 #@! TO.C,C64*
X45850000Y-48735000D03*
X45850000Y-47185000D03*
G04 #@! TD*
D13*
G04 #@! TO.C,Q5*
X34907500Y-33790000D03*
X34907500Y-35690000D03*
X33032500Y-34740000D03*
G04 #@! TD*
D23*
G04 #@! TO.C,D8*
X12500000Y-7900000D03*
X8500000Y-7900000D03*
G04 #@! TD*
D22*
G04 #@! TO.C,C50*
X96380000Y-27300000D03*
X95420000Y-27300000D03*
G04 #@! TD*
D15*
G04 #@! TO.C,R88*
X60010000Y-43482500D03*
X60010000Y-41657500D03*
G04 #@! TD*
D12*
G04 #@! TO.C,R15*
X7617500Y-46400000D03*
X10542500Y-46400000D03*
G04 #@! TD*
D15*
G04 #@! TO.C,R85*
X56910000Y-48032500D03*
X56910000Y-46207500D03*
G04 #@! TD*
D19*
G04 #@! TO.C,C67*
X33440000Y-44870000D03*
X33440000Y-42970000D03*
G04 #@! TD*
G04 #@! TO.C,C63*
X41060000Y-48910000D03*
X41060000Y-47010000D03*
G04 #@! TD*
D10*
G04 #@! TO.C,R26*
X29732500Y-44320000D03*
X27907500Y-44320000D03*
G04 #@! TD*
D24*
G04 #@! TO.C,U8*
X65360000Y-48950000D03*
X65360000Y-48300000D03*
X65360000Y-47650000D03*
X65360000Y-47000000D03*
X65360000Y-46350000D03*
X65360000Y-45700000D03*
X65360000Y-45050000D03*
X70960000Y-45050000D03*
X70960000Y-45700000D03*
X70960000Y-46350000D03*
X70960000Y-47000000D03*
X70960000Y-47650000D03*
X70960000Y-48300000D03*
X70960000Y-48950000D03*
G04 #@! TD*
D10*
G04 #@! TO.C,R25*
X23392500Y-44320000D03*
X21567500Y-44320000D03*
G04 #@! TD*
D25*
G04 #@! TO.C,Y1*
X36490000Y-22560000D03*
X34290000Y-22560000D03*
X34290000Y-20860000D03*
X36490000Y-20860000D03*
G04 #@! TD*
D12*
G04 #@! TO.C,R14*
X1867500Y-46400000D03*
X4792500Y-46400000D03*
G04 #@! TD*
D20*
G04 #@! TO.C,OK2*
X32400000Y-54740000D03*
X29860000Y-54740000D03*
X29860000Y-48440000D03*
X32400000Y-48440000D03*
G04 #@! TD*
D21*
G04 #@! TO.C,C77*
X22200000Y-7000000D03*
X24100000Y-7000000D03*
G04 #@! TD*
D13*
G04 #@! TO.C,D6*
X18207500Y-37880000D03*
X18207500Y-39780000D03*
X16332500Y-38830000D03*
G04 #@! TD*
D26*
G04 #@! TO.C,L3*
X40990000Y-55020000D03*
X38650000Y-55020000D03*
G04 #@! TD*
D15*
G04 #@! TO.C,R86*
X57560000Y-52582500D03*
X57560000Y-50757500D03*
G04 #@! TD*
D10*
G04 #@! TO.C,R43*
X28312500Y-35230000D03*
X26487500Y-35230000D03*
G04 #@! TD*
G04 #@! TO.C,R44*
X41442500Y-35230000D03*
X39617500Y-35230000D03*
G04 #@! TD*
D13*
G04 #@! TO.C,Q7*
X34907500Y-38380000D03*
X34907500Y-40280000D03*
X33032500Y-39330000D03*
G04 #@! TD*
D27*
G04 #@! TO.C,R91*
X66611437Y-50576137D03*
X67778163Y-51742863D03*
G04 #@! TD*
D12*
G04 #@! TO.C,R17*
X1867500Y-50200000D03*
X4792500Y-50200000D03*
G04 #@! TD*
D10*
G04 #@! TO.C,R70*
X75137500Y-45995000D03*
X73312500Y-45995000D03*
G04 #@! TD*
D15*
G04 #@! TO.C,R89*
X60010000Y-48032500D03*
X60010000Y-46207500D03*
G04 #@! TD*
M02*
