G04 #@! TF.GenerationSoftware,KiCad,Pcbnew,10.0.6*
G04 #@! TF.CreationDate,2026-09-29T18:53:00+05:30*
G04 #@! TF.ProjectId,telematics-tracker,74656c65-6d61-4746-9963-732d74726163,rev?*
G04 #@! TF.SameCoordinates,Original*
G04 #@! TF.FileFunction,Paste,Top*
G04 #@! TF.FilePolarity,Positive*
%FSLAX46Y46*%
G04 Gerber Fmt 4.6, Leading zero omitted, Abs format (unit mm)*
G04 Created by KiCad (PCBNEW 10.0.6) date 2026-09-29 18:53:00*
%MOMM*%
%LPD*%
G01*
G04 APERTURE LIST*
G04 Aperture macros list*
%AMRoundRect*
0 Rectangle with rounded corners*
0 $1 Rounding radius*
0 $2 $3 $4 $5 $6 $7 $8 $9 X,Y pos of 4 corners*
0 Add a 4 corners polygon primitive as box body*
4,1,4,$2,$3,$4,$5,$6,$7,$8,$9,$2,$3,0*
0 Add four circle primitives for the rounded corners*
1,1,$1+$1,$2,$3*
1,1,$1+$1,$4,$5*
1,1,$1+$1,$6,$7*
1,1,$1+$1,$8,$9*
0 Add four rect primitives between the rounded corners*
20,1,$1+$1,$2,$3,$4,$5,0*
20,1,$1+$1,$4,$5,$6,$7,0*
20,1,$1+$1,$6,$7,$8,$9,0*
20,1,$1+$1,$8,$9,$2,$3,0*%
%AMFreePoly0*
4,1,14,1.035302,1.535301,1.049947,1.499946,1.049947,-1.500048,1.035302,-1.535403,0.999947,-1.550048,-1.000049,-1.550048,-1.035404,-1.535403,-1.050049,-1.500048,-1.050049,0.999947,-1.035404,1.035302,-0.535405,1.535301,-0.500050,1.549946,0.999947,1.549946,1.035302,1.535301,1.035302,1.535301,$1*%
G04 Aperture macros list end*
%ADD10O,0.630000X1.865000*%
%ADD11R,1.000000X0.650000*%
%ADD12RoundRect,0.250000X-0.262500X-0.450000X0.262500X-0.450000X0.262500X0.450000X-0.262500X0.450000X0*%
%ADD13RoundRect,0.225000X-0.225000X-0.250000X0.225000X-0.250000X0.225000X0.250000X-0.225000X0.250000X0*%
%ADD14RoundRect,0.150000X-0.587500X-0.150000X0.587500X-0.150000X0.587500X0.150000X-0.587500X0.150000X0*%
%ADD15RoundRect,0.250000X1.425000X-0.362500X1.425000X0.362500X-1.425000X0.362500X-1.425000X-0.362500X0*%
%ADD16RoundRect,0.250000X1.100000X-0.325000X1.100000X0.325000X-1.100000X0.325000X-1.100000X-0.325000X0*%
%ADD17RoundRect,0.218750X-0.218750X-0.381250X0.218750X-0.381250X0.218750X0.381250X-0.218750X0.381250X0*%
%ADD18R,1.000000X0.800000*%
%ADD19RoundRect,0.250000X0.450000X-0.262500X0.450000X0.262500X-0.450000X0.262500X-0.450000X-0.262500X0*%
%ADD20RoundRect,0.250000X-0.325000X-1.100000X0.325000X-1.100000X0.325000X1.100000X-0.325000X1.100000X0*%
%ADD21RoundRect,0.250000X-1.000000X-0.650000X1.000000X-0.650000X1.000000X0.650000X-1.000000X0.650000X0*%
%ADD22RoundRect,0.250000X-0.250000X-0.475000X0.250000X-0.475000X0.250000X0.475000X-0.250000X0.475000X0*%
%ADD23R,1.200000X0.800000*%
%ADD24R,1.200000X1.200000*%
%ADD25R,0.400000X0.800000*%
%ADD26R,0.800000X0.300000*%
%ADD27R,0.300000X0.800000*%
%ADD28R,2.800000X2.800000*%
%ADD29R,3.430000X3.250000*%
%ADD30R,0.700000X2.100000*%
%ADD31R,0.750000X1.130000*%
%ADD32R,0.900000X0.400000*%
%ADD33RoundRect,0.225000X0.250000X-0.225000X0.250000X0.225000X-0.250000X0.225000X-0.250000X-0.225000X0*%
%ADD34RoundRect,0.140000X-0.170000X0.140000X-0.170000X-0.140000X0.170000X-0.140000X0.170000X0.140000X0*%
%ADD35R,0.675000X0.280000*%
%ADD36R,0.280000X0.675000*%
%ADD37R,0.490000X1.157000*%
%ADD38R,0.490000X1.175000*%
%ADD39R,2.900000X5.400000*%
%ADD40O,0.602000X1.941000*%
%ADD41R,3.300000X2.400000*%
%ADD42RoundRect,0.135000X0.185000X-0.135000X0.185000X0.135000X-0.185000X0.135000X-0.185000X-0.135000X0*%
%ADD43RoundRect,0.147500X-0.147500X-0.172500X0.147500X-0.172500X0.147500X0.172500X-0.147500X0.172500X0*%
%ADD44R,2.500000X0.800000*%
%ADD45R,0.800000X2.500000*%
%ADD46R,1.100000X1.100000*%
%ADD47R,2.000000X3.000000*%
%ADD48FreePoly0,0.000000*%
%ADD49R,2.300000X2.500000*%
%ADD50R,0.280000X1.620000*%
%ADD51R,1.620000X0.280000*%
%ADD52RoundRect,0.218750X-0.218750X-0.256250X0.218750X-0.256250X0.218750X0.256250X-0.218750X0.256250X0*%
%ADD53R,2.200000X1.050000*%
%ADD54R,1.000000X1.050000*%
%ADD55RoundRect,0.140000X-0.140000X-0.170000X0.140000X-0.170000X0.140000X0.170000X-0.140000X0.170000X0*%
%ADD56RoundRect,0.250000X-0.312500X-1.075000X0.312500X-1.075000X0.312500X1.075000X-0.312500X1.075000X0*%
%ADD57RoundRect,0.250000X1.400000X1.000000X-1.400000X1.000000X-1.400000X-1.000000X1.400000X-1.000000X0*%
%ADD58RoundRect,0.140000X0.140000X0.170000X-0.140000X0.170000X-0.140000X-0.170000X0.140000X-0.170000X0*%
%ADD59R,0.532000X1.072000*%
%ADD60RoundRect,0.135000X-0.185000X0.135000X-0.185000X-0.135000X0.185000X-0.135000X0.185000X0.135000X0*%
%ADD61R,1.400000X0.900000*%
G04 APERTURE END LIST*
D10*
G04 #@! TO.C,U4*
X25490000Y-50960000D03*
X26770000Y-50960000D03*
X28030000Y-50960000D03*
X29300000Y-50960000D03*
X29300000Y-45600000D03*
X28030000Y-45600000D03*
X26770000Y-45600000D03*
X25490000Y-45600000D03*
G04 #@! TD*
D11*
G04 #@! TO.C,Q3*
X78500000Y-5450000D03*
X78500000Y-3550000D03*
X76500000Y-4500000D03*
G04 #@! TD*
D12*
G04 #@! TO.C,R83*
X56062500Y-4495000D03*
X57887500Y-4495000D03*
G04 #@! TD*
D13*
G04 #@! TO.C,C21*
X47565000Y-38760000D03*
X49115000Y-38760000D03*
G04 #@! TD*
D14*
G04 #@! TO.C,Q10*
X79537500Y-55295000D03*
X79537500Y-57195000D03*
X81412500Y-56245000D03*
G04 #@! TD*
D12*
G04 #@! TO.C,R36*
X21562500Y-40495000D03*
X23387500Y-40495000D03*
G04 #@! TD*
D15*
G04 #@! TO.C,R80*
X4000000Y-49562500D03*
X4000000Y-43637500D03*
G04 #@! TD*
D16*
G04 #@! TO.C,C71*
X9500000Y-44875000D03*
X9500000Y-41925000D03*
G04 #@! TD*
D17*
G04 #@! TO.C,FB1*
X25482500Y-34395000D03*
X27607500Y-34395000D03*
G04 #@! TD*
D13*
G04 #@! TO.C,C43*
X66250000Y-2275000D03*
X67800000Y-2275000D03*
G04 #@! TD*
D18*
G04 #@! TO.C,D3*
X23550000Y-35945000D03*
X23550000Y-34045000D03*
X21250000Y-34995000D03*
G04 #@! TD*
D12*
G04 #@! TO.C,R37*
X44062500Y-40995000D03*
X45887500Y-40995000D03*
G04 #@! TD*
D19*
G04 #@! TO.C,R33*
X2200000Y-26562500D03*
X2200000Y-24737500D03*
G04 #@! TD*
D12*
G04 #@! TO.C,R66*
X74812500Y-64495000D03*
X76637500Y-64495000D03*
G04 #@! TD*
D20*
G04 #@! TO.C,C40*
X83425000Y-10400000D03*
X86375000Y-10400000D03*
G04 #@! TD*
D21*
G04 #@! TO.C,D7*
X9210000Y-7420000D03*
X13210000Y-7420000D03*
G04 #@! TD*
D12*
G04 #@! TO.C,R84*
X45562500Y-6995000D03*
X47387500Y-6995000D03*
G04 #@! TD*
G04 #@! TO.C,R38*
X48062500Y-40995000D03*
X49887500Y-40995000D03*
G04 #@! TD*
G04 #@! TO.C,R65*
X70812500Y-64495000D03*
X72637500Y-64495000D03*
G04 #@! TD*
D22*
G04 #@! TO.C,C65*
X25045000Y-2025000D03*
X26945000Y-2025000D03*
G04 #@! TD*
D12*
G04 #@! TO.C,R7*
X42062500Y-43495000D03*
X43887500Y-43495000D03*
G04 #@! TD*
G04 #@! TO.C,R64*
X66812500Y-64495000D03*
X68637500Y-64495000D03*
G04 #@! TD*
G04 #@! TO.C,R49*
X38062500Y-42495000D03*
X39887500Y-42495000D03*
G04 #@! TD*
D23*
G04 #@! TO.C,X2*
X81090000Y-49250000D03*
D24*
X81090000Y-50500000D03*
D23*
X81090000Y-51750000D03*
X82540000Y-49250000D03*
D24*
X82540000Y-50500000D03*
D23*
X82540000Y-51750000D03*
X83990000Y-49250000D03*
D24*
X83990000Y-50500000D03*
D23*
X83990000Y-51750000D03*
D25*
X80635000Y-53350000D03*
X81905000Y-53350000D03*
X83175000Y-53350000D03*
X84445000Y-53350000D03*
X84445000Y-47650000D03*
X83175000Y-47650000D03*
X81905000Y-47650000D03*
X80635000Y-47650000D03*
G04 #@! TD*
D26*
G04 #@! TO.C,U6*
X35120000Y-49700000D03*
X35120000Y-50200000D03*
X35120000Y-50700000D03*
X35120000Y-51200000D03*
X35120000Y-51700000D03*
X35120000Y-52200000D03*
D27*
X35910000Y-53000000D03*
X36410000Y-53000000D03*
X36910000Y-53000000D03*
X37410000Y-53000000D03*
X37910000Y-53000000D03*
X38410000Y-53000000D03*
D26*
X39200000Y-52200000D03*
X39200000Y-51700000D03*
X39200000Y-51200000D03*
X39200000Y-50700000D03*
X39200000Y-50200000D03*
X39200000Y-49700000D03*
D27*
X38410000Y-48900000D03*
X37910000Y-48900000D03*
X37410000Y-48900000D03*
X36910000Y-48900000D03*
X36410000Y-48900000D03*
X35910000Y-48900000D03*
D28*
X37160000Y-50950000D03*
G04 #@! TD*
D13*
G04 #@! TO.C,C13*
X41500000Y-28275000D03*
X43050000Y-28275000D03*
G04 #@! TD*
D29*
G04 #@! TO.C,F1*
X17400000Y-12800000D03*
X17400000Y-3400000D03*
G04 #@! TD*
D12*
G04 #@! TO.C,R2*
X36062500Y-37495000D03*
X37887500Y-37495000D03*
G04 #@! TD*
D30*
G04 #@! TO.C,X1*
X64370000Y-47107000D03*
X77370000Y-47107000D03*
X64370000Y-59107000D03*
X77370000Y-59107000D03*
D31*
X71130000Y-45627000D03*
X68590000Y-45627000D03*
X66050000Y-45627000D03*
X72400000Y-45627000D03*
X69860000Y-45627000D03*
X67320000Y-45627000D03*
X73340000Y-45627000D03*
G04 #@! TD*
D19*
G04 #@! TO.C,R31*
X2200000Y-17462500D03*
X2200000Y-15637500D03*
G04 #@! TD*
D24*
G04 #@! TO.C,D12*
X87100000Y-2445000D03*
X90360000Y-2445000D03*
G04 #@! TD*
D32*
G04 #@! TO.C,D14*
X88250000Y-50695000D03*
X88250000Y-50045000D03*
X88250000Y-49395000D03*
X86450000Y-49395000D03*
X86450000Y-50045000D03*
X86450000Y-50695000D03*
G04 #@! TD*
D33*
G04 #@! TO.C,C72*
X9500000Y-49975000D03*
X9500000Y-48425000D03*
G04 #@! TD*
D11*
G04 #@! TO.C,Q1*
X14600000Y-49850000D03*
X14600000Y-47950000D03*
X12600000Y-48900000D03*
G04 #@! TD*
D12*
G04 #@! TO.C,R51*
X80312500Y-4495000D03*
X82137500Y-4495000D03*
G04 #@! TD*
D34*
G04 #@! TO.C,C84*
X97800000Y-34020000D03*
X97800000Y-34980000D03*
G04 #@! TD*
D35*
G04 #@! TO.C,U3*
X34130000Y-59830000D03*
X34130000Y-60330000D03*
X34130000Y-60830000D03*
X34130000Y-61330000D03*
D36*
X34890000Y-61590000D03*
X35390000Y-61590000D03*
X35890000Y-61590000D03*
D35*
X36650000Y-61330000D03*
X36650000Y-60830000D03*
X36650000Y-60330000D03*
X36650000Y-59830000D03*
D36*
X35890000Y-59570000D03*
X35390000Y-59570000D03*
X34890000Y-59570000D03*
G04 #@! TD*
D20*
G04 #@! TO.C,C41*
X88325000Y-10400000D03*
X91275000Y-10400000D03*
G04 #@! TD*
D13*
G04 #@! TO.C,C24*
X34255000Y-40580000D03*
X35805000Y-40580000D03*
G04 #@! TD*
D37*
G04 #@! TO.C,U9*
X52295000Y-8887500D03*
X53245000Y-8887500D03*
X54195000Y-8887500D03*
D38*
X54195000Y-6587500D03*
X52295000Y-6587500D03*
G04 #@! TD*
D21*
G04 #@! TO.C,D16*
X36600000Y-2790000D03*
X40600000Y-2790000D03*
G04 #@! TD*
D14*
G04 #@! TO.C,Q12*
X88537500Y-56295000D03*
X88537500Y-58195000D03*
X90412500Y-57245000D03*
G04 #@! TD*
D12*
G04 #@! TO.C,R3*
X25562500Y-39495000D03*
X27387500Y-39495000D03*
G04 #@! TD*
G04 #@! TO.C,R11*
X40062500Y-36495000D03*
X41887500Y-36495000D03*
G04 #@! TD*
D19*
G04 #@! TO.C,R34*
X2200000Y-31112500D03*
X2200000Y-29287500D03*
G04 #@! TD*
D12*
G04 #@! TO.C,R62*
X78812500Y-63495000D03*
X80637500Y-63495000D03*
G04 #@! TD*
D13*
G04 #@! TO.C,C61*
X21500000Y-2275000D03*
X23050000Y-2275000D03*
G04 #@! TD*
D19*
G04 #@! TO.C,R32*
X2200000Y-22012500D03*
X2200000Y-20187500D03*
G04 #@! TD*
D12*
G04 #@! TO.C,R12*
X25562500Y-36995000D03*
X27387500Y-36995000D03*
G04 #@! TD*
G04 #@! TO.C,R54*
X83812500Y-60495000D03*
X85637500Y-60495000D03*
G04 #@! TD*
D13*
G04 #@! TO.C,C29*
X41500000Y-30275000D03*
X43050000Y-30275000D03*
G04 #@! TD*
D14*
G04 #@! TO.C,D10*
X41787500Y-32295000D03*
X41787500Y-34195000D03*
X43662500Y-33245000D03*
G04 #@! TD*
D13*
G04 #@! TO.C,C7*
X21500000Y-32275000D03*
X23050000Y-32275000D03*
G04 #@! TD*
D14*
G04 #@! TO.C,Q9*
X79537500Y-59295000D03*
X79537500Y-61195000D03*
X81412500Y-60245000D03*
G04 #@! TD*
D13*
G04 #@! TO.C,C27*
X21500000Y-30275000D03*
X23050000Y-30275000D03*
G04 #@! TD*
D20*
G04 #@! TO.C,C73*
X36825000Y-16200000D03*
X39775000Y-16200000D03*
G04 #@! TD*
D19*
G04 #@! TO.C,R35*
X2200000Y-35662500D03*
X2200000Y-33837500D03*
G04 #@! TD*
D39*
G04 #@! TO.C,L1*
X33100000Y-12000000D03*
X22200000Y-12000000D03*
G04 #@! TD*
D13*
G04 #@! TO.C,C45*
X73250000Y-2275000D03*
X74800000Y-2275000D03*
G04 #@! TD*
D12*
G04 #@! TO.C,R8*
X37562500Y-44995000D03*
X39387500Y-44995000D03*
G04 #@! TD*
D40*
G04 #@! TO.C,U5*
X36400000Y-11720000D03*
X37670000Y-11720000D03*
X38930000Y-11720000D03*
X40210000Y-11720000D03*
X40210000Y-6280000D03*
X38930000Y-6280000D03*
X37670000Y-6280000D03*
X36400000Y-6280000D03*
D41*
X38300000Y-9000000D03*
G04 #@! TD*
D14*
G04 #@! TO.C,Q14*
X67537500Y-4295000D03*
X67537500Y-6195000D03*
X69412500Y-5245000D03*
G04 #@! TD*
D12*
G04 #@! TO.C,R59*
X74812500Y-61995000D03*
X76637500Y-61995000D03*
G04 #@! TD*
D42*
G04 #@! TO.C,R71*
X97800000Y-23550000D03*
X97800000Y-22530000D03*
G04 #@! TD*
D12*
G04 #@! TO.C,R53*
X88312500Y-4995000D03*
X90137500Y-4995000D03*
G04 #@! TD*
D13*
G04 #@! TO.C,C26*
X55500000Y-28275000D03*
X57050000Y-28275000D03*
G04 #@! TD*
D43*
G04 #@! TO.C,L4*
X97815000Y-38000000D03*
X98785000Y-38000000D03*
G04 #@! TD*
D44*
G04 #@! TO.C,U1*
X63450000Y-16400000D03*
X63450000Y-17700000D03*
X63450000Y-19000000D03*
X63450000Y-20300000D03*
X63450000Y-21600000D03*
X63450000Y-22900000D03*
X63450000Y-24200000D03*
X63450000Y-28600000D03*
X63450000Y-29900000D03*
X63450000Y-31200000D03*
X63450000Y-32500000D03*
X63450000Y-33800000D03*
X63450000Y-35100000D03*
X63450000Y-36400000D03*
X63450000Y-37700000D03*
X63450000Y-39000000D03*
X63450000Y-40300000D03*
X63450000Y-41600000D03*
D45*
X69450000Y-43050000D03*
X70750000Y-43050000D03*
X72050000Y-43050000D03*
X73350000Y-43050000D03*
X74650000Y-43050000D03*
X75950000Y-43050000D03*
X77250000Y-43050000D03*
X78550000Y-43050000D03*
X79850000Y-43050000D03*
X81150000Y-43050000D03*
X82450000Y-43050000D03*
X83750000Y-43050000D03*
X85050000Y-43050000D03*
X86350000Y-43050000D03*
X87650000Y-43050000D03*
X88950000Y-43050000D03*
X90250000Y-43050000D03*
X91550000Y-43050000D03*
D44*
X94550000Y-41600000D03*
X94550000Y-40300000D03*
X94550000Y-39000000D03*
X94550000Y-37700000D03*
X94550000Y-36400000D03*
X94550000Y-35100000D03*
X94550000Y-33800000D03*
X94550000Y-32500000D03*
X94550000Y-31200000D03*
X94550000Y-29900000D03*
X94550000Y-28600000D03*
X94550000Y-24200000D03*
X94550000Y-22900000D03*
X94550000Y-21600000D03*
X94550000Y-20300000D03*
X94550000Y-19000000D03*
X94550000Y-17700000D03*
X94550000Y-16400000D03*
D45*
X91550000Y-14950000D03*
X90250000Y-14950000D03*
X88950000Y-14950000D03*
X87650000Y-14950000D03*
X86350000Y-14950000D03*
X85050000Y-14950000D03*
X83750000Y-14950000D03*
X82450000Y-14950000D03*
X81150000Y-14950000D03*
X79850000Y-14950000D03*
X78550000Y-14950000D03*
X77250000Y-14950000D03*
X75950000Y-14950000D03*
X74650000Y-14950000D03*
X73350000Y-14950000D03*
X72050000Y-14950000D03*
X70750000Y-14950000D03*
X69450000Y-14950000D03*
D46*
X81400000Y-27400000D03*
X81400000Y-29000000D03*
X81400000Y-30600000D03*
X79800000Y-27400000D03*
X79800000Y-29000000D03*
X79800000Y-30600000D03*
X78200000Y-27400000D03*
X78200000Y-29000000D03*
X78200000Y-30600000D03*
X76600000Y-27400000D03*
X76600000Y-29000000D03*
X76600000Y-30600000D03*
D47*
X87200000Y-19400000D03*
X87200000Y-24200000D03*
X87200000Y-29000000D03*
X87200000Y-33800000D03*
X87200000Y-38600000D03*
X84000000Y-19400000D03*
X84000000Y-24200000D03*
X84000000Y-29000000D03*
X84000000Y-33800000D03*
X84000000Y-38600000D03*
X80600000Y-19400000D03*
X80600000Y-24200000D03*
X80600000Y-33800000D03*
X80600000Y-38600000D03*
X77400000Y-19400000D03*
X77400000Y-24200000D03*
X77400000Y-33800000D03*
X77400000Y-38600000D03*
X74000000Y-19400000D03*
X74000000Y-24200000D03*
X74000000Y-29000000D03*
X74000000Y-33800000D03*
X74000000Y-38600000D03*
D48*
X70800000Y-19400000D03*
D47*
X70800000Y-24200000D03*
X70800000Y-29000000D03*
X70800000Y-33800000D03*
X70800000Y-38600000D03*
D45*
X68150000Y-14950000D03*
X66850000Y-14950000D03*
X68150000Y-43050000D03*
X66850000Y-43050000D03*
D46*
X68000000Y-18000000D03*
X68000000Y-20000000D03*
X68000000Y-22000000D03*
X68000000Y-24000000D03*
X68000000Y-26000000D03*
X68000000Y-28000000D03*
X68000000Y-30000000D03*
X68000000Y-32000000D03*
X68000000Y-34000000D03*
X68000000Y-36000000D03*
X68000000Y-38000000D03*
X68000000Y-40000000D03*
X66000000Y-18000000D03*
X66000000Y-20000000D03*
X66000000Y-22000000D03*
X66000000Y-24000000D03*
X66000000Y-26000000D03*
X66000000Y-28000000D03*
X66000000Y-30000000D03*
X66000000Y-32000000D03*
X66000000Y-34000000D03*
X66000000Y-36000000D03*
X66000000Y-38000000D03*
X66000000Y-40000000D03*
D44*
X63450000Y-26000000D03*
X63450000Y-27300000D03*
X94550000Y-27300000D03*
X94550000Y-26000000D03*
G04 #@! TD*
D49*
G04 #@! TO.C,D1*
X17370000Y-21080000D03*
X17370000Y-16780000D03*
G04 #@! TD*
D50*
G04 #@! TO.C,U2*
X32640000Y-32600000D03*
X33140000Y-32600000D03*
X33640000Y-32600000D03*
X34140000Y-32600000D03*
X34640000Y-32600000D03*
X35140000Y-32600000D03*
X35640000Y-32600000D03*
X36140000Y-32600000D03*
X36640000Y-32600000D03*
X37140000Y-32600000D03*
X37640000Y-32600000D03*
X38140000Y-32600000D03*
D51*
X39500000Y-31240000D03*
X39500000Y-30740000D03*
X39500000Y-30240000D03*
X39500000Y-29740000D03*
X39500000Y-29240000D03*
X39500000Y-28740000D03*
X39500000Y-28240000D03*
X39500000Y-27740000D03*
X39500000Y-27240000D03*
X39500000Y-26740000D03*
X39500000Y-26240000D03*
X39500000Y-25740000D03*
D50*
X38140000Y-24380000D03*
X37640000Y-24380000D03*
X37140000Y-24380000D03*
X36640000Y-24380000D03*
X36140000Y-24380000D03*
X35640000Y-24380000D03*
X35140000Y-24380000D03*
X34640000Y-24380000D03*
X34140000Y-24380000D03*
X33640000Y-24380000D03*
X33140000Y-24380000D03*
X32640000Y-24380000D03*
D51*
X31280000Y-25740000D03*
X31280000Y-26240000D03*
X31280000Y-26740000D03*
X31280000Y-27240000D03*
X31280000Y-27740000D03*
X31280000Y-28240000D03*
X31280000Y-28740000D03*
X31280000Y-29240000D03*
X31280000Y-29740000D03*
X31280000Y-30240000D03*
X31280000Y-30740000D03*
X31280000Y-31240000D03*
G04 #@! TD*
D12*
G04 #@! TO.C,R21*
X21562500Y-37995000D03*
X23387500Y-37995000D03*
G04 #@! TD*
D13*
G04 #@! TO.C,C23*
X40465000Y-40040000D03*
X42015000Y-40040000D03*
G04 #@! TD*
D14*
G04 #@! TO.C,D11*
X49172500Y-45400000D03*
X49172500Y-47300000D03*
X51047500Y-46350000D03*
G04 #@! TD*
D52*
G04 #@! TO.C,D21*
X49487500Y-32275000D03*
X51062500Y-32275000D03*
G04 #@! TD*
D12*
G04 #@! TO.C,R67*
X82812500Y-65495000D03*
X84637500Y-65495000D03*
G04 #@! TD*
D16*
G04 #@! TO.C,C70*
X9500000Y-39075000D03*
X9500000Y-36125000D03*
G04 #@! TD*
D53*
G04 #@! TO.C,AF2*
X97300000Y-47015000D03*
X97300000Y-49965000D03*
D54*
X98830000Y-48495000D03*
X95770000Y-48495000D03*
G04 #@! TD*
D12*
G04 #@! TO.C,R6*
X33562500Y-42995000D03*
X35387500Y-42995000D03*
G04 #@! TD*
D55*
G04 #@! TO.C,C85*
X92730000Y-47340000D03*
X93690000Y-47340000D03*
G04 #@! TD*
D52*
G04 #@! TO.C,D13*
X79237500Y-45775000D03*
X80812500Y-45775000D03*
G04 #@! TD*
D13*
G04 #@! TO.C,C14*
X58705000Y-34910000D03*
X60255000Y-34910000D03*
G04 #@! TD*
D12*
G04 #@! TO.C,R60*
X83812500Y-62995000D03*
X85637500Y-62995000D03*
G04 #@! TD*
D13*
G04 #@! TO.C,C11*
X25000000Y-28275000D03*
X26550000Y-28275000D03*
G04 #@! TD*
D56*
G04 #@! TO.C,R90*
X87367500Y-47010000D03*
X90292500Y-47010000D03*
G04 #@! TD*
D12*
G04 #@! TO.C,R23*
X55062500Y-38495000D03*
X56887500Y-38495000D03*
G04 #@! TD*
D14*
G04 #@! TO.C,Q11*
X84037500Y-56295000D03*
X84037500Y-58195000D03*
X85912500Y-57245000D03*
G04 #@! TD*
D12*
G04 #@! TO.C,R55*
X87812500Y-60495000D03*
X89637500Y-60495000D03*
G04 #@! TD*
G04 #@! TO.C,R1*
X36062500Y-34995000D03*
X37887500Y-34995000D03*
G04 #@! TD*
D19*
G04 #@! TO.C,R30*
X2200000Y-12912500D03*
X2200000Y-11087500D03*
G04 #@! TD*
D57*
G04 #@! TO.C,D2*
X15700000Y-43570000D03*
X15700000Y-36770000D03*
G04 #@! TD*
D12*
G04 #@! TO.C,R58*
X70812500Y-61995000D03*
X72637500Y-61995000D03*
G04 #@! TD*
D13*
G04 #@! TO.C,C10*
X21500000Y-28275000D03*
X23050000Y-28275000D03*
G04 #@! TD*
D14*
G04 #@! TO.C,Q4*
X54287500Y-34295000D03*
X54287500Y-36195000D03*
X56162500Y-35245000D03*
G04 #@! TD*
D55*
G04 #@! TO.C,C83*
X94150000Y-45570000D03*
X95110000Y-45570000D03*
G04 #@! TD*
D12*
G04 #@! TO.C,R24*
X29562500Y-38995000D03*
X31387500Y-38995000D03*
G04 #@! TD*
D13*
G04 #@! TO.C,C22*
X48500000Y-28275000D03*
X50050000Y-28275000D03*
G04 #@! TD*
G04 #@! TO.C,C75*
X52000000Y-2275000D03*
X53550000Y-2275000D03*
G04 #@! TD*
D12*
G04 #@! TO.C,R22*
X51062500Y-38495000D03*
X52887500Y-38495000D03*
G04 #@! TD*
D13*
G04 #@! TO.C,C9*
X56435000Y-43090000D03*
X57985000Y-43090000D03*
G04 #@! TD*
D12*
G04 #@! TO.C,R4*
X29562500Y-41495000D03*
X31387500Y-41495000D03*
G04 #@! TD*
D11*
G04 #@! TO.C,Q2*
X15000000Y-54750000D03*
X15000000Y-52850000D03*
X13000000Y-53800000D03*
G04 #@! TD*
D58*
G04 #@! TO.C,C49*
X97480000Y-15000000D03*
X96520000Y-15000000D03*
G04 #@! TD*
D12*
G04 #@! TO.C,R61*
X87812500Y-62995000D03*
X89637500Y-62995000D03*
G04 #@! TD*
D22*
G04 #@! TO.C,C12*
X54840000Y-32010000D03*
X56740000Y-32010000D03*
G04 #@! TD*
D12*
G04 #@! TO.C,R68*
X86812500Y-65495000D03*
X88637500Y-65495000D03*
G04 #@! TD*
D13*
G04 #@! TO.C,C8*
X25000000Y-32275000D03*
X26550000Y-32275000D03*
G04 #@! TD*
D22*
G04 #@! TO.C,C79*
X55545000Y-2025000D03*
X57445000Y-2025000D03*
G04 #@! TD*
D12*
G04 #@! TO.C,R39*
X52062500Y-40995000D03*
X53887500Y-40995000D03*
G04 #@! TD*
D13*
G04 #@! TO.C,C42*
X62750000Y-2275000D03*
X64300000Y-2275000D03*
G04 #@! TD*
D20*
G04 #@! TO.C,C74*
X45620000Y-2645000D03*
X48570000Y-2645000D03*
G04 #@! TD*
D12*
G04 #@! TO.C,R52*
X84312500Y-4995000D03*
X86137500Y-4995000D03*
G04 #@! TD*
G04 #@! TO.C,R63*
X62812500Y-64495000D03*
X64637500Y-64495000D03*
G04 #@! TD*
D13*
G04 #@! TO.C,C6*
X48500000Y-30275000D03*
X50050000Y-30275000D03*
G04 #@! TD*
D52*
G04 #@! TO.C,D20*
X45987500Y-32275000D03*
X47562500Y-32275000D03*
G04 #@! TD*
D13*
G04 #@! TO.C,C28*
X25000000Y-30275000D03*
X26550000Y-30275000D03*
G04 #@! TD*
G04 #@! TO.C,C5*
X45000000Y-30275000D03*
X46550000Y-30275000D03*
G04 #@! TD*
D22*
G04 #@! TO.C,C66*
X29045000Y-2025000D03*
X30945000Y-2025000D03*
G04 #@! TD*
D14*
G04 #@! TO.C,Q13*
X63037500Y-4295000D03*
X63037500Y-6195000D03*
X64912500Y-5245000D03*
G04 #@! TD*
D12*
G04 #@! TO.C,R50*
X71812500Y-4495000D03*
X73637500Y-4495000D03*
G04 #@! TD*
G04 #@! TO.C,R42*
X25562500Y-41995000D03*
X27387500Y-41995000D03*
G04 #@! TD*
D59*
G04 #@! TO.C,D15*
X86555000Y-54336000D03*
X87505000Y-54336000D03*
X88455000Y-54336000D03*
X88455000Y-52036000D03*
X87505000Y-52036000D03*
X86555000Y-52036000D03*
G04 #@! TD*
D13*
G04 #@! TO.C,C25*
X52000000Y-28275000D03*
X53550000Y-28275000D03*
G04 #@! TD*
G04 #@! TO.C,C20*
X45000000Y-28275000D03*
X46550000Y-28275000D03*
G04 #@! TD*
D12*
G04 #@! TO.C,R56*
X62812500Y-61995000D03*
X64637500Y-61995000D03*
G04 #@! TD*
G04 #@! TO.C,R81*
X52062500Y-4495000D03*
X53887500Y-4495000D03*
G04 #@! TD*
D13*
G04 #@! TO.C,C46*
X80250000Y-2275000D03*
X81800000Y-2275000D03*
G04 #@! TD*
G04 #@! TO.C,C47*
X83750000Y-2275000D03*
X85300000Y-2275000D03*
G04 #@! TD*
D12*
G04 #@! TO.C,R57*
X66812500Y-61995000D03*
X68637500Y-61995000D03*
G04 #@! TD*
D60*
G04 #@! TO.C,R72*
X97800000Y-28230000D03*
X97800000Y-29250000D03*
G04 #@! TD*
D58*
G04 #@! TO.C,C51*
X97480000Y-31400000D03*
X96520000Y-31400000D03*
G04 #@! TD*
D12*
G04 #@! TO.C,R5*
X21562500Y-42995000D03*
X23387500Y-42995000D03*
G04 #@! TD*
G04 #@! TO.C,R69*
X78812500Y-65995000D03*
X80637500Y-65995000D03*
G04 #@! TD*
D61*
G04 #@! TO.C,L2*
X29450000Y-34450000D03*
X29450000Y-36950000D03*
X34010000Y-36950000D03*
X34010000Y-34450000D03*
G04 #@! TD*
D13*
G04 #@! TO.C,C44*
X69750000Y-2275000D03*
X71300000Y-2275000D03*
G04 #@! TD*
D53*
G04 #@! TO.C,AF1*
X97300000Y-8725000D03*
X97300000Y-11675000D03*
D54*
X98830000Y-10205000D03*
X95770000Y-10205000D03*
G04 #@! TD*
M02*
