M48
; DRILL file KiCad 10.0.6 date 2026-09-29T02:33:50
; FORMAT={-:-/ absolute / metric / decimal}
; #@! TF.CreationDate,2026-09-29T02:33:50+05:30
; #@! TF.GenerationSoftware,Kicad,Pcbnew,10.0.6
; #@! TF.FileFunction,MixedPlating,1,4
FMAT,2
METRIC
; #@! TA.AperFunction,Plated,PTH,ViaDrill
T1C0.200
; #@! TA.AperFunction,Plated,PTH,ViaDrill
T2C0.300
; #@! TA.AperFunction,Plated,PTH,ViaDrill
T3C0.400
; #@! TA.AperFunction,Plated,PTH,ComponentDrill
T4C0.950
; #@! TA.AperFunction,Plated,PTH,ComponentDrill
T5C1.020
; #@! TA.AperFunction,Plated,PTH,ComponentDrill
T6C3.200
; #@! TA.AperFunction,NonPlated,NPTH,ComponentDrill
T7C0.800
; #@! TA.AperFunction,NonPlated,NPTH,ComponentDrill
T8C1.100
%
G90
G05
T1
X1.15Y-20.75
X2.65Y-34.05
X4.65Y-32.55
X4.65Y-33.25
X10.255Y-36.587
X19.35Y-40.25
X20.513Y-37.717
X21.115Y-36.333
X21.55Y-39.15
X22.463Y-33.471
X22.489Y-43.339
X22.491Y-44.038
X22.85Y-36.55
X23.45Y-36.75
X23.65Y-34.45
X23.685Y-46.838
X23.907Y-31.105
X24.122Y-31.962
X24.45Y-36.25
X24.55Y-30.65
X24.69Y-41.778
X25.152Y-38.233
X25.24Y-22.733
X26.441Y-42.804
X26.45Y-32.05
X27.2Y-43.157
X27.342Y-49.12
X27.734Y-27.4
X27.848Y-31.748
X28.168Y-42.8
X28.325Y-36.647
X28.551Y-30.891
X28.56Y-41.454
X28.564Y-37.781
X28.65Y-28.65
X28.958Y-40.115
X29.735Y-29.737
X29.81Y-28.488
X30.384Y-32.321
X30.809Y-33.502
X30.84Y-37.096
X30.896Y-37.808
X31.3Y-30.74
X31.527Y-47.347
X32.186Y-49.827
X32.186Y-35.875
X32.187Y-45.351
X32.187Y-60.4
X32.211Y-37.192
X32.276Y-57.506
X32.459Y-28.115
X32.496Y-28.79
X32.534Y-40.29
X32.632Y-38.172
X32.694Y-34.054
X32.91Y-26.761
X33.03Y-30.749
X33.133Y-29.262
X33.15Y-25.35
X33.185Y-22.591
X33.262Y-40.817
X33.68Y-57.533
X33.903Y-31.072
X33.91Y-41.835
X34.321Y-55.814
X34.37Y-30.501
X34.416Y-29.6
X34.417Y-27.375
X34.535Y-55.136
X34.596Y-47.018
X34.699Y-39.484
X34.85Y-60.85
X35.03Y-41.175
X35.05Y-36.25
X35.05Y-45.65
X35.085Y-26.735
X35.146Y-31.062
X35.15Y-40.15
X35.305Y-21.874
X35.45Y-39.55
X35.617Y-27.336
X35.641Y-27.989
X35.65Y-45.65
X35.75Y-10.25
X35.933Y-31.384
X36.003Y-26.841
X36.014Y-41.41
X36.059Y-30.162
X36.14Y-33.64
X36.411Y-36.317
X36.427Y-46.544
X36.571Y-38.842
X36.641Y-27.398
X36.65Y-11.55
X36.767Y-28.684
X36.913Y-40.309
X36.975Y-34.484
X37.002Y-35.728
X37.191Y-29.248
X37.306Y-41.167
X37.319Y-27.054
X37.341Y-55.911
X37.422Y-47.433
X37.985Y-21.874
X38.25Y-11.45
X38.25Y-25.55
X38.258Y-27.959
X38.45Y-22.45
X38.807Y-24.009
X38.868Y-47.128
X38.975Y-36.968
X39.227Y-33.344
X39.568Y-47.214
X39.667Y-32.572
X40.05Y-49.75
X40.15Y-32.35
X40.35Y-11.65
X40.495Y-23.336
X40.667Y-30.473
X40.85Y-49.85
X40.864Y-45.191
X40.877Y-41.201
X41.094Y-23.0
X41.094Y-47.934
X41.202Y-25.534
X41.414Y-33.506
X41.668Y-53.288
X41.923Y-37.857
X42.153Y-30.963
X42.412Y-26.029
X42.493Y-35.067
X42.8Y-30.733
X42.858Y-28.803
X43.321Y-31.77
X43.321Y-46.949
X43.914Y-30.277
X44.112Y-31.76
X44.35Y-34.25
X44.958Y-35.367
X45.547Y-9.8
X45.547Y-42.8
X45.547Y-58.2
X45.75Y-4.85
X45.907Y-31.142
X46.45Y-6.35
X46.65Y-5.05
X46.75Y-31.65
X46.95Y-0.85
X47.014Y-36.833
X47.75Y-28.95
X47.75Y-36.75
X47.774Y-47.2
X47.774Y-56.0
X48.537Y-34.641
X49.208Y-35.426
X49.291Y-29.045
X49.3Y-36.115
X49.35Y-30.05
X49.614Y-37.69
X49.954Y-38.78
X50.002Y-36.201
X50.635Y-36.837
X50.833Y-41.052
X50.902Y-33.35
X51.45Y-23.303
X52.229Y-31.801
X52.299Y-24.909
X52.395Y-36.728
X52.95Y-6.85
X52.95Y-22.05
X52.986Y-31.991
X53.65Y-35.65
X54.441Y-33.429
X54.454Y-53.8
X54.49Y-27.265
X55.071Y-27.116
X56.181Y-50.825
X56.55Y-29.35
X56.91Y-33.167
X57.062Y-47.12
X57.45Y-4.75
X57.85Y-9.25
X58.35Y-35.85
X58.488Y-46.862
X58.521Y-45.724
X58.867Y-33.863
X58.906Y-36.273
X59.173Y-51.6
X59.398Y-27.235
X60.4Y-55.613
X60.882Y-35.955
X60.889Y-38.33
X61.134Y-14.2
X61.828Y-22.928
X62.35Y-35.45
X63.05Y-39.45
X63.15Y-61.75
X63.25Y-35.45
X63.55Y-52.55
X63.725Y-62.093
X63.75Y-40.35
X63.9Y-3.6
X64.269Y-60.856
X64.27Y-13.413
X65.075Y-21.642
X65.075Y-31.368
X65.078Y-22.646
X65.105Y-26.941
X65.112Y-36.888
X65.55Y-41.95
X65.725Y-64.318
X65.732Y-27.002
X65.741Y-60.265
X65.764Y-39.0
X66.577Y-47.708
X66.95Y-51.35
X66.95Y-52.65
X67.15Y-4.95
X67.319Y-24.991
X67.55Y-12.15
X67.684Y-44.681
X67.814Y-7.6
X67.95Y-5.25
X68.224Y-47.486
X68.233Y-48.242
X68.7Y-2.0
X69.032Y-47.033
X69.15Y-7.15
X69.15Y-51.65
X69.204Y-44.659
X69.75Y-47.75
X69.85Y-65.15
X70.041Y-36.2
X70.041Y-40.602
X71.35Y-49.55
X72.27Y-18.6
X72.45Y-47.75
X72.55Y-16.15
X73.05Y-48.85
X73.45Y-47.05
X73.839Y-64.349
X73.85Y-53.55
X73.95Y-54.75
X74.013Y-58.909
X74.051Y-17.126
X74.15Y-45.85
X74.204Y-12.796
X74.45Y-53.85
X74.495Y-12.0
X74.495Y-49.4
X74.676Y-2.8
X74.842Y-5.811
X75.014Y-63.23
X75.848Y-17.221
X75.85Y-8.25
X76.15Y-60.15
X76.72Y-45.001
X76.721Y-56.0
X76.81Y-45.694
X77.05Y-0.95
X77.05Y-8.55
X77.415Y-45.169
X77.45Y-61.65
X77.679Y-60.578
X77.75Y-65.05
X78.145Y-59.479
X78.403Y-56.619
X78.55Y-65.35
X78.603Y-62.146
X78.948Y-18.6
X78.948Y-53.8
X79.35Y-45.55
X79.656Y-62.214
X80.15Y-53.25
X80.25Y-62.65
X80.65Y-65.95
X80.75Y-17.15
X80.85Y-4.05
X81.074Y-44.747
X81.122Y-64.587
X81.175Y-12.0
X81.55Y-64.05
X81.56Y-55.259
X81.75Y-62.65
X81.85Y-4.55
X81.95Y-10.35
X82.45Y-16.85
X82.45Y-45.35
X82.45Y-55.75
X83.107Y-45.393
X83.45Y-4.05
X84.794Y-12.057
X84.85Y-54.55
X85.25Y-64.15
X85.388Y-58.454
X85.6Y-50.045
X85.85Y-45.75
X86.05Y-49.45
X86.05Y-59.15
X86.35Y-65.25
X86.805Y-6.12
X86.85Y-45.25
X87.25Y-49.05
X87.25Y-54.05
X87.35Y-51.65
X87.35Y-60.25
X87.396Y-6.136
X87.65Y-61.55
X88.15Y-49.25
X88.25Y-48.55
X88.65Y-53.85
X88.65Y-56.55
X88.75Y-40.95
X89.15Y-54.35
X89.15Y-60.75
X89.25Y-49.65
X89.35Y-3.15
X89.45Y-48.95
X89.65Y-51.95
X90.65Y-47.05
X91.65Y-47.05
X94.15Y-44.6
X98.8Y-39.0
T2
X2.15Y-16.05
X2.15Y-21.55
X2.15Y-25.15
X2.15Y-30.65
X16.75Y-50.65
X20.863Y-27.142
X22.24Y-34.153
X23.75Y-12.35
X24.85Y-43.85
X29.802Y-35.459
X29.805Y-31.086
X29.839Y-23.006
X30.25Y-17.65
X30.966Y-46.856
X31.336Y-43.515
X31.544Y-34.304
X31.642Y-48.751
X34.25Y-59.75
X34.55Y-16.75
X36.31Y-50.95
X36.31Y-51.8
X36.55Y-42.75
X37.16Y-50.95
X37.16Y-51.8
X37.45Y-9.0
X37.991Y-47.011
X38.01Y-50.1
X38.01Y-50.95
X38.01Y-51.8
X38.233Y-30.743
X38.3Y-9.0
X38.85Y-41.75
X39.15Y-9.0
X39.75Y-25.65
X40.41Y-51.6
X40.85Y-31.95
X40.975Y-43.271
X41.141Y-26.999
X41.187Y-23.698
X41.207Y-37.802
X42.65Y-24.95
X43.321Y-51.6
X43.85Y-15.75
X43.85Y-23.65
X46.513Y-45.549
X49.131Y-42.223
X49.675Y-44.517
X50.004Y-42.835
X50.725Y-39.931
X51.15Y-52.45
X53.05Y-37.25
X54.25Y-54.85
X54.45Y-36.95
X54.45Y-44.55
X54.454Y-10.22
X55.45Y-30.75
X55.95Y-7.15
X55.95Y-10.55
X55.95Y-16.95
X55.95Y-24.95
X56.55Y-7.15
X56.55Y-10.55
X56.55Y-16.35
X56.55Y-24.95
X56.681Y-40.6
X57.053Y-33.885
X58.25Y-39.75
X58.44Y-29.975
X58.45Y-8.65
X59.449Y-44.908
X59.45Y-33.35
X59.65Y-9.85
X60.933Y-23.001
X61.124Y-62.599
X61.25Y-32.75
X63.45Y-28.6
X63.45Y-29.9
X63.75Y-15.05
X64.25Y-4.25
X64.286Y-6.128
X65.588Y-51.6
X66.45Y-4.95
X67.929Y-49.402
X68.237Y-53.8
X69.45Y-14.95
X69.45Y-43.05
X70.35Y-63.85
X70.8Y-19.4
X70.8Y-24.2
X70.8Y-29.0
X70.8Y-33.8
X70.8Y-38.6
X73.35Y-43.05
X73.65Y-2.05
X74.0Y-19.4
X74.0Y-24.2
X74.0Y-29.0
X74.0Y-33.8
X74.0Y-38.6
X77.35Y-54.25
X77.4Y-19.4
X77.4Y-24.2
X77.4Y-33.8
X77.4Y-38.6
X79.8Y-27.4
X80.6Y-19.4
X80.6Y-24.2
X80.6Y-33.8
X80.6Y-38.6
X80.95Y-3.25
X84.0Y-19.4
X84.0Y-24.2
X84.0Y-29.0
X84.0Y-33.8
X84.0Y-38.6
X84.25Y-3.25
X84.85Y-4.65
X85.45Y-3.65
X85.95Y-48.45
X87.2Y-19.4
X87.2Y-24.2
X87.2Y-29.0
X87.2Y-33.8
X87.2Y-38.6
X87.35Y-62.35
X90.25Y-14.95
X91.55Y-43.05
X94.55Y-16.4
X94.55Y-17.7
X94.55Y-19.0
X94.55Y-20.3
X94.55Y-21.6
X94.55Y-24.2
X94.55Y-29.9
X96.25Y-14.53
X96.25Y-16.53
X96.25Y-18.53
X96.25Y-20.53
X96.25Y-42.98
X96.25Y-44.98
X96.55Y-24.45
X96.55Y-30.15
X96.6Y-21.6
X96.6Y-27.3
X97.381Y-11.358
X97.381Y-47.342
T3
X1.45Y-48.45
X2.45Y-12.85
X4.85Y-12.85
X4.95Y-24.45
X5.55Y-43.05
X10.45Y-34.55
X10.85Y-7.85
X13.45Y-53.55
X14.15Y-33.15
X14.45Y-24.25
X15.35Y-32.15
X15.75Y-28.25
X16.05Y-30.75
X16.25Y-11.35
X18.35Y-33.25
X31.55Y-18.15
X32.95Y-14.05
X37.65Y-4.95
X37.75Y-3.25
X39.05Y-4.75
X41.05Y-6.85
X63.15Y-2.75
X66.65Y-2.75
X76.95Y-4.75
X80.55Y-8.35
X80.55Y-9.15
X85.628Y-7.6
X87.75Y-3.05
X88.15Y-7.55
X88.15Y-11.65
X88.85Y-7.55
X94.535Y-13.282
T4
X53.01Y-62.755
X55.51Y-62.755
X58.01Y-62.755
T5
X7.5Y-15.0
X7.5Y-18.0
X7.5Y-21.0
X7.5Y-24.0
X7.5Y-27.0
X7.5Y-30.0
X10.5Y-15.0
X10.5Y-18.0
X10.5Y-21.0
X10.5Y-24.0
X10.5Y-27.0
X10.5Y-30.0
T6
X3.5Y-3.5
X3.5Y-64.5
X25.63Y-60.58
X96.5Y-3.5
X96.5Y-64.5
T7
X65.88Y-57.857
X74.37Y-57.857
T8
X6.55Y-12.0
X11.45Y-33.0
M30
