%TF.GenerationSoftware,KiCad,Pcbnew,10.0.6*%
%TF.CreationDate,2026-09-29T09:54:04+05:30*%
%TF.ProjectId,telematics-tracker,74656c65-6d61-4746-9963-732d74726163,rev?*%
%TF.SameCoordinates,Original*%
%TF.FileFunction,Drillmap*%
%TF.FilePolarity,Positive*%
%FSLAX45Y45*%
G04 Gerber Fmt 4.5, Leading zero omitted, Abs format (unit mm)*
G04 Created by KiCad (PCBNEW 10.0.6) date 2026-09-29 09:54:04*
%MOMM*%
%LPD*%
G01*
G04 APERTURE LIST*
%ADD10C,0.100000*%
%ADD11C,0.200000*%
%ADD12C,0.102000*%
%ADD13C,0.320000*%
%ADD14C,0.110000*%
G04 APERTURE END LIST*
D10*
X0Y-200000D02*
G75*
G02*
X200000Y0I200000J0D01*
G01*
X0Y-6600000D02*
X0Y-200000D01*
X200000Y0D02*
X9800000Y0D01*
X200000Y-6800000D02*
G75*
G02*
X0Y-6600000I0J200000D01*
G01*
X9800000Y0D02*
G75*
G02*
X10000000Y-200000I0J-200000D01*
G01*
X9800000Y-6800000D02*
X200000Y-6800000D01*
X10000000Y-200000D02*
X10000000Y-6600000D01*
X10000000Y-6600000D02*
G75*
G02*
X9800000Y-6800000I-200000J0D01*
G01*
D11*
D10*
X105000Y-2065000D02*
X125000Y-2085000D01*
X125000Y-2065000D02*
X105000Y-2085000D01*
X255000Y-3395000D02*
X275000Y-3415000D01*
X275000Y-3395000D02*
X255000Y-3415000D01*
X455000Y-3245000D02*
X475000Y-3265000D01*
X475000Y-3245000D02*
X455000Y-3265000D01*
X455000Y-3315000D02*
X475000Y-3335000D01*
X475000Y-3315000D02*
X455000Y-3335000D01*
X1015491Y-3648719D02*
X1035491Y-3668719D01*
X1035491Y-3648719D02*
X1015491Y-3668719D01*
X1925000Y-4015000D02*
X1945000Y-4035000D01*
X1945000Y-4015000D02*
X1925000Y-4035000D01*
X2041300Y-3761720D02*
X2061300Y-3781720D01*
X2061300Y-3761720D02*
X2041300Y-3781720D01*
X2101530Y-3623300D02*
X2121530Y-3643300D01*
X2121530Y-3623300D02*
X2101530Y-3643300D01*
X2145000Y-3905000D02*
X2165000Y-3925000D01*
X2165000Y-3905000D02*
X2145000Y-3925000D01*
X2236330Y-3337150D02*
X2256330Y-3357150D01*
X2256330Y-3337150D02*
X2236330Y-3357150D01*
X2238880Y-4323870D02*
X2258880Y-4343870D01*
X2258880Y-4323870D02*
X2238880Y-4343870D01*
X2239130Y-4393780D02*
X2259130Y-4413780D01*
X2259130Y-4393780D02*
X2239130Y-4413780D01*
X2275000Y-3645000D02*
X2295000Y-3665000D01*
X2295000Y-3645000D02*
X2275000Y-3665000D01*
X2335000Y-3665000D02*
X2355000Y-3685000D01*
X2355000Y-3665000D02*
X2335000Y-3685000D01*
X2355000Y-3435000D02*
X2375000Y-3455000D01*
X2375000Y-3435000D02*
X2355000Y-3455000D01*
X2358540Y-4673810D02*
X2378540Y-4693810D01*
X2378540Y-4673810D02*
X2358540Y-4693810D01*
X2380700Y-3100470D02*
X2400700Y-3120470D01*
X2400700Y-3100470D02*
X2380700Y-3120470D01*
X2402250Y-3186220D02*
X2422250Y-3206220D01*
X2422250Y-3186220D02*
X2402250Y-3206220D01*
X2435000Y-3615000D02*
X2455000Y-3635000D01*
X2455000Y-3615000D02*
X2435000Y-3635000D01*
X2445000Y-3055000D02*
X2465000Y-3075000D01*
X2465000Y-3055000D02*
X2445000Y-3075000D01*
X2458960Y-4167820D02*
X2478960Y-4187820D01*
X2478960Y-4167820D02*
X2458960Y-4187820D01*
X2505210Y-3813350D02*
X2525210Y-3833350D01*
X2525210Y-3813350D02*
X2505210Y-3833350D01*
X2514050Y-2263340D02*
X2534050Y-2283340D01*
X2534050Y-2263340D02*
X2514050Y-2283340D01*
X2634120Y-4270410D02*
X2654120Y-4290410D01*
X2654120Y-4270410D02*
X2634120Y-4290410D01*
X2635000Y-3195000D02*
X2655000Y-3215000D01*
X2655000Y-3195000D02*
X2635000Y-3215000D01*
X2710030Y-4305750D02*
X2730030Y-4325750D01*
X2730030Y-4305750D02*
X2710030Y-4325750D01*
X2724200Y-4902050D02*
X2744200Y-4922050D01*
X2744200Y-4902050D02*
X2724200Y-4922050D01*
X2763380Y-2730000D02*
X2783380Y-2750000D01*
X2783380Y-2730000D02*
X2763380Y-2750000D01*
X2774810Y-3164790D02*
X2794810Y-3184790D01*
X2794810Y-3164790D02*
X2774810Y-3184790D01*
X2806800Y-4270000D02*
X2826800Y-4290000D01*
X2826800Y-4270000D02*
X2806800Y-4290000D01*
X2822550Y-3654720D02*
X2842550Y-3674720D01*
X2842550Y-3654720D02*
X2822550Y-3674720D01*
X2845120Y-3079140D02*
X2865120Y-3099140D01*
X2865120Y-3079140D02*
X2845120Y-3099140D01*
X2845970Y-4135400D02*
X2865970Y-4155400D01*
X2865970Y-4135400D02*
X2845970Y-4155400D01*
X2846360Y-3768070D02*
X2866360Y-3788070D01*
X2866360Y-3768070D02*
X2846360Y-3788070D01*
X2855000Y-2855000D02*
X2875000Y-2875000D01*
X2875000Y-2855000D02*
X2855000Y-2875000D01*
X2885790Y-4001550D02*
X2905790Y-4021550D01*
X2905790Y-4001550D02*
X2885790Y-4021550D01*
X2963540Y-2963710D02*
X2983540Y-2983710D01*
X2983540Y-2963710D02*
X2963540Y-2983710D01*
X2971050Y-2838810D02*
X2991050Y-2858810D01*
X2991050Y-2838810D02*
X2971050Y-2858810D01*
X3028370Y-3222070D02*
X3048370Y-3242070D01*
X3048370Y-3222070D02*
X3028370Y-3242070D01*
X3070910Y-3340240D02*
X3090910Y-3360240D01*
X3090910Y-3340240D02*
X3070910Y-3360240D01*
X3074020Y-3699650D02*
X3094020Y-3719650D01*
X3094020Y-3699650D02*
X3074020Y-3719650D01*
X3079580Y-3770760D02*
X3099580Y-3790760D01*
X3099580Y-3770760D02*
X3079580Y-3790760D01*
X3120000Y-3064000D02*
X3140000Y-3084000D01*
X3140000Y-3064000D02*
X3120000Y-3084000D01*
X3142710Y-4724750D02*
X3162710Y-4744750D01*
X3162710Y-4724750D02*
X3142710Y-4744750D01*
X3208560Y-4972670D02*
X3228560Y-4992670D01*
X3228560Y-4972670D02*
X3208560Y-4992670D01*
X3208650Y-3577530D02*
X3228650Y-3597530D01*
X3228650Y-3577530D02*
X3208650Y-3597530D01*
X3208720Y-4525110D02*
X3228720Y-4545110D01*
X3228720Y-4525110D02*
X3208720Y-4545110D01*
X3208720Y-6030000D02*
X3228720Y-6050000D01*
X3228720Y-6030000D02*
X3208720Y-6050000D01*
X3211090Y-3709200D02*
X3231090Y-3729200D01*
X3231090Y-3709200D02*
X3211090Y-3729200D01*
X3217570Y-5740570D02*
X3237570Y-5760570D01*
X3237570Y-5740570D02*
X3217570Y-5760570D01*
X3235910Y-2801510D02*
X3255910Y-2821510D01*
X3255910Y-2801510D02*
X3235910Y-2821510D01*
X3239600Y-2869030D02*
X3259600Y-2889030D01*
X3259600Y-2869030D02*
X3239600Y-2889030D01*
X3243430Y-4018960D02*
X3263430Y-4038960D01*
X3263430Y-4018960D02*
X3243430Y-4038960D01*
X3253210Y-3807240D02*
X3273210Y-3827240D01*
X3273210Y-3807240D02*
X3253210Y-3827240D01*
X3259420Y-3395390D02*
X3279420Y-3415390D01*
X3279420Y-3395390D02*
X3259420Y-3415390D01*
X3281030Y-2666120D02*
X3301030Y-2686120D01*
X3301030Y-2666120D02*
X3281030Y-2686120D01*
X3293030Y-3064890D02*
X3313030Y-3084890D01*
X3313030Y-3064890D02*
X3293030Y-3084890D01*
X3303300Y-2916240D02*
X3323300Y-2936240D01*
X3323300Y-2916240D02*
X3303300Y-2936240D01*
X3305000Y-2525000D02*
X3325000Y-2545000D01*
X3325000Y-2525000D02*
X3305000Y-2545000D01*
X3308480Y-2249150D02*
X3328480Y-2269150D01*
X3328480Y-2249150D02*
X3308480Y-2269150D01*
X3316230Y-4071730D02*
X3336230Y-4091730D01*
X3336230Y-4071730D02*
X3316230Y-4091730D01*
X3357990Y-5743290D02*
X3377990Y-5763290D01*
X3377990Y-5743290D02*
X3357990Y-5763290D01*
X3380270Y-3097230D02*
X3400270Y-3117230D01*
X3400270Y-3097230D02*
X3380270Y-3117230D01*
X3381040Y-4173460D02*
X3401040Y-4193460D01*
X3401040Y-4173460D02*
X3381040Y-4193460D01*
X3422100Y-5571420D02*
X3442100Y-5591420D01*
X3442100Y-5571420D02*
X3422100Y-5591420D01*
X3427000Y-3040090D02*
X3447000Y-3060090D01*
X3447000Y-3040090D02*
X3427000Y-3060090D01*
X3431550Y-2950000D02*
X3451550Y-2970000D01*
X3451550Y-2950000D02*
X3431550Y-2970000D01*
X3431670Y-2727530D02*
X3451670Y-2747530D01*
X3451670Y-2727530D02*
X3431670Y-2747530D01*
X3443550Y-5503580D02*
X3463550Y-5523580D01*
X3463550Y-5503580D02*
X3443550Y-5523580D01*
X3449580Y-4691800D02*
X3469580Y-4711800D01*
X3469580Y-4691800D02*
X3449580Y-4711800D01*
X3459920Y-3938420D02*
X3479920Y-3958420D01*
X3479920Y-3938420D02*
X3459920Y-3958420D01*
X3475000Y-6075000D02*
X3495000Y-6095000D01*
X3495000Y-6075000D02*
X3475000Y-6095000D01*
X3493000Y-4107550D02*
X3513000Y-4127550D01*
X3513000Y-4107550D02*
X3493000Y-4127550D01*
X3495000Y-3615000D02*
X3515000Y-3635000D01*
X3515000Y-3615000D02*
X3495000Y-3635000D01*
X3495000Y-4555000D02*
X3515000Y-4575000D01*
X3515000Y-4555000D02*
X3495000Y-4575000D01*
X3498540Y-2663510D02*
X3518540Y-2683510D01*
X3518540Y-2663510D02*
X3498540Y-2683510D01*
X3504570Y-3096190D02*
X3524570Y-3116190D01*
X3524570Y-3096190D02*
X3504570Y-3116190D01*
X3505000Y-4005000D02*
X3525000Y-4025000D01*
X3525000Y-4005000D02*
X3505000Y-4025000D01*
X3520490Y-2177420D02*
X3540490Y-2197420D01*
X3540490Y-2177420D02*
X3520490Y-2197420D01*
X3535000Y-3945000D02*
X3555000Y-3965000D01*
X3555000Y-3945000D02*
X3535000Y-3965000D01*
X3551700Y-2723630D02*
X3571700Y-2743630D01*
X3571700Y-2723630D02*
X3551700Y-2743630D01*
X3554140Y-2788870D02*
X3574140Y-2808870D01*
X3574140Y-2788870D02*
X3554140Y-2808870D01*
X3555000Y-4555000D02*
X3575000Y-4575000D01*
X3575000Y-4555000D02*
X3555000Y-4575000D01*
X3565000Y-1015000D02*
X3585000Y-1035000D01*
X3585000Y-1015000D02*
X3565000Y-1035000D01*
X3583270Y-3128410D02*
X3603270Y-3148410D01*
X3603270Y-3128410D02*
X3583270Y-3148410D01*
X3590310Y-2674150D02*
X3610310Y-2694150D01*
X3610310Y-2674150D02*
X3590310Y-2694150D01*
X3591430Y-4130970D02*
X3611430Y-4150970D01*
X3611430Y-4130970D02*
X3591430Y-4150970D01*
X3595870Y-3006220D02*
X3615870Y-3026220D01*
X3615870Y-3006220D02*
X3595870Y-3026220D01*
X3604000Y-3354000D02*
X3624000Y-3374000D01*
X3624000Y-3354000D02*
X3604000Y-3374000D01*
X3631090Y-3621730D02*
X3651090Y-3641730D01*
X3651090Y-3621730D02*
X3631090Y-3641730D01*
X3632680Y-4644450D02*
X3652680Y-4664450D01*
X3652680Y-4644450D02*
X3632680Y-4664450D01*
X3647130Y-3874180D02*
X3667130Y-3894180D01*
X3667130Y-3874180D02*
X3647130Y-3894180D01*
X3654060Y-2729840D02*
X3674060Y-2749840D01*
X3674060Y-2729840D02*
X3654060Y-2749840D01*
X3655000Y-1145000D02*
X3675000Y-1165000D01*
X3675000Y-1145000D02*
X3655000Y-1165000D01*
X3666740Y-2858400D02*
X3686740Y-2878400D01*
X3686740Y-2858400D02*
X3666740Y-2878400D01*
X3681330Y-4020950D02*
X3701330Y-4040950D01*
X3701330Y-4020950D02*
X3681330Y-4040950D01*
X3687500Y-3438430D02*
X3707500Y-3458430D01*
X3707500Y-3438430D02*
X3687500Y-3458430D01*
X3690220Y-3562820D02*
X3710220Y-3582820D01*
X3710220Y-3562820D02*
X3690220Y-3582820D01*
X3709070Y-2914850D02*
X3729070Y-2934850D01*
X3729070Y-2914850D02*
X3709070Y-2934850D01*
X3720630Y-4106660D02*
X3740630Y-4126660D01*
X3740630Y-4106660D02*
X3720630Y-4126660D01*
X3721950Y-2695390D02*
X3741950Y-2715390D01*
X3741950Y-2695390D02*
X3721950Y-2715390D01*
X3724150Y-5581150D02*
X3744150Y-5601150D01*
X3744150Y-5581150D02*
X3724150Y-5601150D01*
X3732250Y-4733280D02*
X3752250Y-4753280D01*
X3752250Y-4733280D02*
X3732250Y-4753280D01*
X3788520Y-2177420D02*
X3808520Y-2197420D01*
X3808520Y-2177420D02*
X3788520Y-2197420D01*
X3815000Y-1135000D02*
X3835000Y-1155000D01*
X3835000Y-1135000D02*
X3815000Y-1155000D01*
X3815000Y-2545000D02*
X3835000Y-2565000D01*
X3835000Y-2545000D02*
X3815000Y-2565000D01*
X3815770Y-2785940D02*
X3835770Y-2805940D01*
X3835770Y-2785940D02*
X3815770Y-2805940D01*
X3835000Y-2235000D02*
X3855000Y-2255000D01*
X3855000Y-2235000D02*
X3835000Y-2255000D01*
X3870750Y-2390940D02*
X3890750Y-2410940D01*
X3890750Y-2390940D02*
X3870750Y-2410940D01*
X3876850Y-4702770D02*
X3896850Y-4722770D01*
X3896850Y-4702770D02*
X3876850Y-4722770D01*
X3887500Y-3686830D02*
X3907500Y-3706830D01*
X3907500Y-3686830D02*
X3887500Y-3706830D01*
X3912690Y-3324420D02*
X3932690Y-3344420D01*
X3932690Y-3324420D02*
X3912690Y-3344420D01*
X3946820Y-4711420D02*
X3966820Y-4731420D01*
X3966820Y-4711420D02*
X3946820Y-4731420D01*
X3956750Y-3247210D02*
X3976750Y-3267210D01*
X3976750Y-3247210D02*
X3956750Y-3267210D01*
X3995000Y-4965000D02*
X4015000Y-4985000D01*
X4015000Y-4965000D02*
X3995000Y-4985000D01*
X4005000Y-3225000D02*
X4025000Y-3245000D01*
X4025000Y-3225000D02*
X4005000Y-3245000D01*
X4025000Y-1155000D02*
X4045000Y-1175000D01*
X4045000Y-1155000D02*
X4025000Y-1175000D01*
X4039550Y-2323600D02*
X4059550Y-2343600D01*
X4059550Y-2323600D02*
X4039550Y-2343600D01*
X4056680Y-3037320D02*
X4076680Y-3057320D01*
X4076680Y-3037320D02*
X4056680Y-3057320D01*
X4075000Y-4975000D02*
X4095000Y-4995000D01*
X4095000Y-4975000D02*
X4075000Y-4995000D01*
X4076410Y-4509120D02*
X4096410Y-4529120D01*
X4096410Y-4509120D02*
X4076410Y-4529120D01*
X4077670Y-4110090D02*
X4097670Y-4130090D01*
X4097670Y-4110090D02*
X4077670Y-4130090D01*
X4099400Y-2290000D02*
X4119400Y-2310000D01*
X4119400Y-2290000D02*
X4099400Y-2310000D01*
X4099400Y-4783400D02*
X4119400Y-4803400D01*
X4119400Y-4783400D02*
X4099400Y-4803400D01*
X4110240Y-2543390D02*
X4130240Y-2563390D01*
X4130240Y-2543390D02*
X4110240Y-2563390D01*
X4131360Y-3340600D02*
X4151360Y-3360600D01*
X4151360Y-3340600D02*
X4131360Y-3360600D01*
X4156790Y-5318820D02*
X4176790Y-5338820D01*
X4176790Y-5318820D02*
X4156790Y-5338820D01*
X4182350Y-3775710D02*
X4202350Y-3795710D01*
X4202350Y-3775710D02*
X4182350Y-3795710D01*
X4205340Y-3086310D02*
X4225340Y-3106310D01*
X4225340Y-3086310D02*
X4205340Y-3106310D01*
X4231200Y-2592920D02*
X4251200Y-2612920D01*
X4251200Y-2592920D02*
X4231200Y-2612920D01*
X4239330Y-3496660D02*
X4259330Y-3516660D01*
X4259330Y-3496660D02*
X4239330Y-3516660D01*
X4270050Y-3063270D02*
X4290050Y-3083270D01*
X4290050Y-3063270D02*
X4270050Y-3083270D01*
X4275820Y-2870310D02*
X4295820Y-2890310D01*
X4295820Y-2870310D02*
X4275820Y-2890310D01*
X4322070Y-3167000D02*
X4342070Y-3187000D01*
X4342070Y-3167000D02*
X4322070Y-3187000D01*
X4322070Y-4684930D02*
X4342070Y-4704930D01*
X4342070Y-4684930D02*
X4322070Y-4704930D01*
X4381380Y-3017720D02*
X4401380Y-3037720D01*
X4401380Y-3017720D02*
X4381380Y-3037720D01*
X4401180Y-3166050D02*
X4421180Y-3186050D01*
X4421180Y-3166050D02*
X4401180Y-3186050D01*
X4425000Y-3415000D02*
X4445000Y-3435000D01*
X4445000Y-3415000D02*
X4425000Y-3435000D01*
X4485810Y-3526730D02*
X4505810Y-3546730D01*
X4505810Y-3526730D02*
X4485810Y-3546730D01*
X4544740Y-970000D02*
X4564740Y-990000D01*
X4564740Y-970000D02*
X4544740Y-990000D01*
X4544740Y-4270000D02*
X4564740Y-4290000D01*
X4564740Y-4270000D02*
X4544740Y-4290000D01*
X4544740Y-5810000D02*
X4564740Y-5830000D01*
X4564740Y-5810000D02*
X4544740Y-5830000D01*
X4565000Y-475000D02*
X4585000Y-495000D01*
X4585000Y-475000D02*
X4565000Y-495000D01*
X4580750Y-3104250D02*
X4600750Y-3124250D01*
X4600750Y-3104250D02*
X4580750Y-3124250D01*
X4635000Y-625000D02*
X4655000Y-645000D01*
X4655000Y-625000D02*
X4635000Y-645000D01*
X4655000Y-495000D02*
X4675000Y-515000D01*
X4675000Y-495000D02*
X4655000Y-515000D01*
X4665000Y-3155000D02*
X4685000Y-3175000D01*
X4685000Y-3155000D02*
X4665000Y-3175000D01*
X4685000Y-75000D02*
X4705000Y-95000D01*
X4705000Y-75000D02*
X4685000Y-95000D01*
X4691380Y-3673270D02*
X4711380Y-3693270D01*
X4711380Y-3673270D02*
X4691380Y-3693270D01*
X4765000Y-2885000D02*
X4785000Y-2905000D01*
X4785000Y-2885000D02*
X4765000Y-2905000D01*
X4765000Y-3665000D02*
X4785000Y-3685000D01*
X4785000Y-3665000D02*
X4765000Y-3685000D01*
X4767410Y-4710000D02*
X4787410Y-4730000D01*
X4787410Y-4710000D02*
X4767410Y-4730000D01*
X4767410Y-5590000D02*
X4787410Y-5610000D01*
X4787410Y-5590000D02*
X4767410Y-5610000D01*
X4843680Y-3454080D02*
X4863680Y-3474080D01*
X4863680Y-3454080D02*
X4843680Y-3474080D01*
X4910770Y-3532570D02*
X4930770Y-3552570D01*
X4930770Y-3532570D02*
X4910770Y-3552570D01*
X4919100Y-2894530D02*
X4939100Y-2914530D01*
X4939100Y-2894530D02*
X4919100Y-2914530D01*
X4919990Y-3601480D02*
X4939990Y-3621480D01*
X4939990Y-3601480D02*
X4919990Y-3621480D01*
X4925000Y-2995000D02*
X4945000Y-3015000D01*
X4945000Y-2995000D02*
X4925000Y-3015000D01*
X4951420Y-3758960D02*
X4971420Y-3778960D01*
X4971420Y-3758960D02*
X4951420Y-3778960D01*
X4985430Y-3868010D02*
X5005430Y-3888010D01*
X5005430Y-3868010D02*
X4985430Y-3888010D01*
X4990200Y-3610120D02*
X5010200Y-3630120D01*
X5010200Y-3610120D02*
X4990200Y-3630120D01*
X5053490Y-3673690D02*
X5073490Y-3693690D01*
X5073490Y-3673690D02*
X5053490Y-3693690D01*
X5073280Y-4095240D02*
X5093280Y-4115240D01*
X5093280Y-4095240D02*
X5073280Y-4115240D01*
X5080190Y-3324980D02*
X5100190Y-3344980D01*
X5100190Y-3324980D02*
X5080190Y-3344980D01*
X5135024Y-2320332D02*
X5155024Y-2340332D01*
X5155024Y-2320332D02*
X5135024Y-2340332D01*
X5212870Y-3170120D02*
X5232870Y-3190120D01*
X5232870Y-3170120D02*
X5212870Y-3190120D01*
X5219910Y-2480930D02*
X5239910Y-2500930D01*
X5239910Y-2480930D02*
X5219910Y-2500930D01*
X5229530Y-3662820D02*
X5249530Y-3682820D01*
X5249530Y-3662820D02*
X5229530Y-3682820D01*
X5285000Y-675000D02*
X5305000Y-695000D01*
X5305000Y-675000D02*
X5285000Y-695000D01*
X5285000Y-2195000D02*
X5305000Y-2215000D01*
X5305000Y-2195000D02*
X5285000Y-2215000D01*
X5288630Y-3189130D02*
X5308630Y-3209130D01*
X5308630Y-3189130D02*
X5288630Y-3209130D01*
X5355000Y-3555000D02*
X5375000Y-3575000D01*
X5375000Y-3555000D02*
X5355000Y-3575000D01*
X5434050Y-3332910D02*
X5454050Y-3352910D01*
X5454050Y-3332910D02*
X5434050Y-3352910D01*
X5435420Y-5370000D02*
X5455420Y-5390000D01*
X5455420Y-5370000D02*
X5435420Y-5390000D01*
X5438980Y-2716480D02*
X5458980Y-2736480D01*
X5458980Y-2716480D02*
X5438980Y-2736480D01*
X5497080Y-2701570D02*
X5517080Y-2721570D01*
X5517080Y-2701570D02*
X5497080Y-2721570D01*
X5608150Y-5072500D02*
X5628150Y-5092500D01*
X5628150Y-5072500D02*
X5608150Y-5092500D01*
X5645000Y-2925000D02*
X5665000Y-2945000D01*
X5665000Y-2925000D02*
X5645000Y-2945000D01*
X5680980Y-3306710D02*
X5700980Y-3326710D01*
X5700980Y-3306710D02*
X5680980Y-3326710D01*
X5696210Y-4702000D02*
X5716210Y-4722000D01*
X5716210Y-4702000D02*
X5696210Y-4722000D01*
X5735000Y-465000D02*
X5755000Y-485000D01*
X5755000Y-465000D02*
X5735000Y-485000D01*
X5775000Y-915000D02*
X5795000Y-935000D01*
X5795000Y-915000D02*
X5775000Y-935000D01*
X5825000Y-3575000D02*
X5845000Y-3595000D01*
X5845000Y-3575000D02*
X5825000Y-3595000D01*
X5838810Y-4676190D02*
X5858810Y-4696190D01*
X5858810Y-4676190D02*
X5838810Y-4696190D01*
X5842080Y-4562400D02*
X5862080Y-4582400D01*
X5862080Y-4562400D02*
X5842080Y-4582400D01*
X5876699Y-3376290D02*
X5896699Y-3396290D01*
X5896699Y-3376290D02*
X5876699Y-3396290D01*
X5880600Y-3617320D02*
X5900600Y-3637320D01*
X5900600Y-3617320D02*
X5880600Y-3637320D01*
X5907270Y-5150000D02*
X5927270Y-5170000D01*
X5927270Y-5150000D02*
X5907270Y-5170000D01*
X5929850Y-2713530D02*
X5949850Y-2733530D01*
X5949850Y-2713530D02*
X5929850Y-2733530D01*
X6030050Y-5551290D02*
X6050050Y-5571290D01*
X6050050Y-5551290D02*
X6030050Y-5571290D01*
X6078200Y-3585510D02*
X6098200Y-3605510D01*
X6098200Y-3585510D02*
X6078200Y-3605510D01*
X6078950Y-3822970D02*
X6098950Y-3842970D01*
X6098950Y-3822970D02*
X6078950Y-3842970D01*
X6103430Y-1410000D02*
X6123430Y-1430000D01*
X6123430Y-1410000D02*
X6103430Y-1430000D01*
X6172850Y-2282760D02*
X6192850Y-2302760D01*
X6192850Y-2282760D02*
X6172850Y-2302760D01*
X6225000Y-3535000D02*
X6245000Y-3555000D01*
X6245000Y-3535000D02*
X6225000Y-3555000D01*
X6295000Y-3935000D02*
X6315000Y-3955000D01*
X6315000Y-3935000D02*
X6295000Y-3955000D01*
X6305000Y-6165000D02*
X6325000Y-6185000D01*
X6325000Y-6165000D02*
X6305000Y-6185000D01*
X6315000Y-3535000D02*
X6335000Y-3555000D01*
X6335000Y-3535000D02*
X6315000Y-3555000D01*
X6345000Y-5245000D02*
X6365000Y-5265000D01*
X6365000Y-5245000D02*
X6345000Y-5265000D01*
X6362500Y-6199290D02*
X6382500Y-6219290D01*
X6382500Y-6199290D02*
X6362500Y-6219290D01*
X6365000Y-4025000D02*
X6385000Y-4045000D01*
X6385000Y-4025000D02*
X6365000Y-4045000D01*
X6380000Y-350000D02*
X6400000Y-370000D01*
X6400000Y-350000D02*
X6380000Y-370000D01*
X6416860Y-6075590D02*
X6436860Y-6095590D01*
X6436860Y-6075590D02*
X6416860Y-6095590D01*
X6417000Y-1331310D02*
X6437000Y-1351310D01*
X6437000Y-1331310D02*
X6417000Y-1351310D01*
X6497500Y-2154160D02*
X6517500Y-2174160D01*
X6517500Y-2154160D02*
X6497500Y-2174160D01*
X6497500Y-3126820D02*
X6517500Y-3146820D01*
X6517500Y-3126820D02*
X6497500Y-3146820D01*
X6497820Y-2254640D02*
X6517820Y-2274640D01*
X6517820Y-2254640D02*
X6497820Y-2274640D01*
X6500530Y-2684140D02*
X6520530Y-2704140D01*
X6520530Y-2684140D02*
X6500530Y-2704140D01*
X6501210Y-3678790D02*
X6521210Y-3698790D01*
X6521210Y-3678790D02*
X6501210Y-3698790D01*
X6545000Y-4185000D02*
X6565000Y-4205000D01*
X6565000Y-4185000D02*
X6545000Y-4205000D01*
X6562500Y-6421820D02*
X6582500Y-6441820D01*
X6582500Y-6421820D02*
X6562500Y-6441820D01*
X6563230Y-2690160D02*
X6583230Y-2710160D01*
X6583230Y-2690160D02*
X6563230Y-2710160D01*
X6564070Y-6016520D02*
X6584070Y-6036520D01*
X6584070Y-6016520D02*
X6564070Y-6036520D01*
X6566450Y-3890000D02*
X6586450Y-3910000D01*
X6586450Y-3890000D02*
X6566450Y-3910000D01*
X6647690Y-4760840D02*
X6667690Y-4780840D01*
X6667690Y-4760840D02*
X6647690Y-4780840D01*
X6685000Y-5125000D02*
X6705000Y-5145000D01*
X6705000Y-5125000D02*
X6685000Y-5145000D01*
X6685000Y-5255000D02*
X6705000Y-5275000D01*
X6705000Y-5255000D02*
X6685000Y-5275000D01*
X6705000Y-485000D02*
X6725000Y-505000D01*
X6725000Y-485000D02*
X6705000Y-505000D01*
X6721930Y-2489120D02*
X6741930Y-2509120D01*
X6741930Y-2489120D02*
X6721930Y-2509120D01*
X6745000Y-1205000D02*
X6765000Y-1225000D01*
X6765000Y-1205000D02*
X6745000Y-1225000D01*
X6758410Y-4458100D02*
X6778410Y-4478100D01*
X6778410Y-4458100D02*
X6758410Y-4478100D01*
X6771440Y-750000D02*
X6791440Y-770000D01*
X6791440Y-750000D02*
X6771440Y-770000D01*
X6785000Y-515000D02*
X6805000Y-535000D01*
X6805000Y-515000D02*
X6785000Y-535000D01*
X6812420Y-4738630D02*
X6832420Y-4758630D01*
X6832420Y-4738630D02*
X6812420Y-4758630D01*
X6813330Y-4814160D02*
X6833330Y-4834160D01*
X6833330Y-4814160D02*
X6813330Y-4834160D01*
X6860000Y-190000D02*
X6880000Y-210000D01*
X6880000Y-190000D02*
X6860000Y-210000D01*
X6893210Y-4693260D02*
X6913210Y-4713260D01*
X6913210Y-4693260D02*
X6893210Y-4713260D01*
X6905000Y-705000D02*
X6925000Y-725000D01*
X6925000Y-705000D02*
X6905000Y-725000D01*
X6905000Y-5155000D02*
X6925000Y-5175000D01*
X6925000Y-5155000D02*
X6905000Y-5175000D01*
X6910360Y-4455900D02*
X6930360Y-4475900D01*
X6930360Y-4455900D02*
X6910360Y-4475900D01*
X6965000Y-4765000D02*
X6985000Y-4785000D01*
X6985000Y-4765000D02*
X6965000Y-4785000D01*
X6975000Y-6505000D02*
X6995000Y-6525000D01*
X6995000Y-6505000D02*
X6975000Y-6525000D01*
X6994110Y-3610000D02*
X7014110Y-3630000D01*
X7014110Y-3610000D02*
X6994110Y-3630000D01*
X6994110Y-4050160D02*
X7014110Y-4070160D01*
X7014110Y-4050160D02*
X6994110Y-4070160D01*
X7125000Y-4945000D02*
X7145000Y-4965000D01*
X7145000Y-4945000D02*
X7125000Y-4965000D01*
X7217040Y-1850030D02*
X7237040Y-1870030D01*
X7237040Y-1850030D02*
X7217040Y-1870030D01*
X7235000Y-4765000D02*
X7255000Y-4785000D01*
X7255000Y-4765000D02*
X7235000Y-4785000D01*
X7245000Y-1605000D02*
X7265000Y-1625000D01*
X7265000Y-1605000D02*
X7245000Y-1625000D01*
X7295000Y-4875000D02*
X7315000Y-4895000D01*
X7315000Y-4875000D02*
X7295000Y-4895000D01*
X7335000Y-4695000D02*
X7355000Y-4715000D01*
X7355000Y-4695000D02*
X7335000Y-4715000D01*
X7373920Y-6424920D02*
X7393920Y-6444920D01*
X7393920Y-6424920D02*
X7373920Y-6444920D01*
X7375000Y-5345000D02*
X7395000Y-5365000D01*
X7395000Y-5345000D02*
X7375000Y-5365000D01*
X7385000Y-5465000D02*
X7405000Y-5485000D01*
X7405000Y-5465000D02*
X7385000Y-5485000D01*
X7391300Y-5880860D02*
X7411300Y-5900860D01*
X7411300Y-5880860D02*
X7391300Y-5900860D01*
X7395140Y-1702620D02*
X7415140Y-1722620D01*
X7415140Y-1702620D02*
X7395140Y-1722620D01*
X7405000Y-4575000D02*
X7425000Y-4595000D01*
X7425000Y-4575000D02*
X7405000Y-4595000D01*
X7410360Y-1269570D02*
X7430360Y-1289570D01*
X7430360Y-1269570D02*
X7410360Y-1289570D01*
X7435000Y-5375000D02*
X7455000Y-5395000D01*
X7455000Y-5375000D02*
X7435000Y-5395000D01*
X7439450Y-1190000D02*
X7459450Y-1210000D01*
X7459450Y-1190000D02*
X7439450Y-1210000D01*
X7439450Y-4930000D02*
X7459450Y-4950000D01*
X7459450Y-4930000D02*
X7439450Y-4950000D01*
X7457565Y-270050D02*
X7477565Y-290050D01*
X7477565Y-270050D02*
X7457565Y-290050D01*
X7474200Y-571060D02*
X7494200Y-591060D01*
X7494200Y-571060D02*
X7474200Y-591060D01*
X7491390Y-6312970D02*
X7511390Y-6332970D01*
X7511390Y-6312970D02*
X7491390Y-6332970D01*
X7574820Y-1712090D02*
X7594820Y-1732090D01*
X7594820Y-1712090D02*
X7574820Y-1732090D01*
X7575000Y-815000D02*
X7595000Y-835000D01*
X7595000Y-815000D02*
X7575000Y-835000D01*
X7605000Y-6005000D02*
X7625000Y-6025000D01*
X7625000Y-6005000D02*
X7605000Y-6025000D01*
X7662010Y-4490110D02*
X7682010Y-4510110D01*
X7682010Y-4490110D02*
X7662010Y-4510110D01*
X7662120Y-5590000D02*
X7682120Y-5610000D01*
X7682120Y-5590000D02*
X7662120Y-5610000D01*
X7670970Y-4559420D02*
X7690970Y-4579420D01*
X7690970Y-4559420D02*
X7670970Y-4579420D01*
X7695000Y-85000D02*
X7715000Y-105000D01*
X7715000Y-85000D02*
X7695000Y-105000D01*
X7695000Y-845000D02*
X7715000Y-865000D01*
X7715000Y-845000D02*
X7695000Y-865000D01*
X7731480Y-4506920D02*
X7751480Y-4526920D01*
X7751480Y-4506920D02*
X7731480Y-4526920D01*
X7735000Y-6155000D02*
X7755000Y-6175000D01*
X7755000Y-6155000D02*
X7735000Y-6175000D01*
X7757860Y-6047830D02*
X7777860Y-6067830D01*
X7777860Y-6047830D02*
X7757860Y-6067830D01*
X7765000Y-6495000D02*
X7785000Y-6515000D01*
X7785000Y-6495000D02*
X7765000Y-6515000D01*
X7804490Y-5937950D02*
X7824490Y-5957950D01*
X7824490Y-5937950D02*
X7804490Y-5957950D01*
X7830280Y-5651920D02*
X7850280Y-5671920D01*
X7850280Y-5651920D02*
X7830280Y-5671920D01*
X7845000Y-6525000D02*
X7865000Y-6545000D01*
X7865000Y-6525000D02*
X7845000Y-6545000D01*
X7850260Y-6204600D02*
X7870260Y-6224600D01*
X7870260Y-6204600D02*
X7850260Y-6224600D01*
X7884790Y-1850000D02*
X7904790Y-1870000D01*
X7904790Y-1850000D02*
X7884790Y-1870000D01*
X7884790Y-5370000D02*
X7904790Y-5390000D01*
X7904790Y-5370000D02*
X7884790Y-5390000D01*
X7925000Y-4545000D02*
X7945000Y-4565000D01*
X7945000Y-4545000D02*
X7925000Y-4565000D01*
X7955590Y-6211390D02*
X7975590Y-6231390D01*
X7975590Y-6211390D02*
X7955590Y-6231390D01*
X8005000Y-5315000D02*
X8025000Y-5335000D01*
X8025000Y-5315000D02*
X8005000Y-5335000D01*
X8015000Y-6255000D02*
X8035000Y-6275000D01*
X8035000Y-6255000D02*
X8015000Y-6275000D01*
X8055000Y-6585000D02*
X8075000Y-6605000D01*
X8075000Y-6585000D02*
X8055000Y-6605000D01*
X8065000Y-1705000D02*
X8085000Y-1725000D01*
X8085000Y-1705000D02*
X8065000Y-1725000D01*
X8075000Y-395000D02*
X8095000Y-415000D01*
X8095000Y-395000D02*
X8075000Y-415000D01*
X8097370Y-4464750D02*
X8117370Y-4484750D01*
X8117370Y-4464750D02*
X8097370Y-4484750D01*
X8102230Y-6448720D02*
X8122230Y-6468720D01*
X8122230Y-6448720D02*
X8102230Y-6468720D01*
X8107460Y-1190000D02*
X8127460Y-1210000D01*
X8127460Y-1190000D02*
X8107460Y-1210000D01*
X8145000Y-6395000D02*
X8165000Y-6415000D01*
X8165000Y-6395000D02*
X8145000Y-6415000D01*
X8146030Y-5515920D02*
X8166030Y-5535920D01*
X8166030Y-5515920D02*
X8146030Y-5535920D01*
X8165000Y-6255000D02*
X8185000Y-6275000D01*
X8185000Y-6255000D02*
X8165000Y-6275000D01*
X8175000Y-445000D02*
X8195000Y-465000D01*
X8195000Y-445000D02*
X8175000Y-465000D01*
X8185000Y-1025000D02*
X8205000Y-1045000D01*
X8205000Y-1025000D02*
X8185000Y-1045000D01*
X8235000Y-1675000D02*
X8255000Y-1695000D01*
X8255000Y-1675000D02*
X8235000Y-1695000D01*
X8235000Y-4525000D02*
X8255000Y-4545000D01*
X8255000Y-4525000D02*
X8235000Y-4545000D01*
X8235000Y-5565000D02*
X8255000Y-5585000D01*
X8255000Y-5565000D02*
X8235000Y-5585000D01*
X8300740Y-4529290D02*
X8320740Y-4549290D01*
X8320740Y-4529290D02*
X8300740Y-4549290D01*
X8335000Y-395000D02*
X8355000Y-415000D01*
X8355000Y-395000D02*
X8335000Y-415000D01*
X8469439Y-1195702D02*
X8489439Y-1215702D01*
X8489439Y-1195702D02*
X8469439Y-1215702D01*
X8475000Y-5445000D02*
X8495000Y-5465000D01*
X8495000Y-5445000D02*
X8475000Y-5465000D01*
X8515000Y-6405000D02*
X8535000Y-6425000D01*
X8535000Y-6405000D02*
X8515000Y-6425000D01*
X8528780Y-5835450D02*
X8548780Y-5855450D01*
X8548780Y-5835450D02*
X8528780Y-5855450D01*
X8550000Y-4994500D02*
X8570000Y-5014500D01*
X8570000Y-4994500D02*
X8550000Y-5014500D01*
X8575000Y-4565000D02*
X8595000Y-4585000D01*
X8595000Y-4565000D02*
X8575000Y-4585000D01*
X8595000Y-4935000D02*
X8615000Y-4955000D01*
X8615000Y-4935000D02*
X8595000Y-4955000D01*
X8595000Y-5905000D02*
X8615000Y-5925000D01*
X8615000Y-5905000D02*
X8595000Y-5925000D01*
X8625000Y-6515000D02*
X8645000Y-6535000D01*
X8645000Y-6515000D02*
X8625000Y-6535000D01*
X8670550Y-602040D02*
X8690550Y-622040D01*
X8690550Y-602040D02*
X8670550Y-622040D01*
X8675000Y-4515000D02*
X8695000Y-4535000D01*
X8695000Y-4515000D02*
X8675000Y-4535000D01*
X8715000Y-4895000D02*
X8735000Y-4915000D01*
X8735000Y-4895000D02*
X8715000Y-4915000D01*
X8715000Y-5395000D02*
X8735000Y-5415000D01*
X8735000Y-5395000D02*
X8715000Y-5415000D01*
X8725000Y-5155000D02*
X8745000Y-5175000D01*
X8745000Y-5155000D02*
X8725000Y-5175000D01*
X8725000Y-6015000D02*
X8745000Y-6035000D01*
X8745000Y-6015000D02*
X8725000Y-6035000D01*
X8729650Y-603560D02*
X8749650Y-623560D01*
X8749650Y-603560D02*
X8729650Y-623560D01*
X8755000Y-6145000D02*
X8775000Y-6165000D01*
X8775000Y-6145000D02*
X8755000Y-6165000D01*
X8805000Y-4915000D02*
X8825000Y-4935000D01*
X8825000Y-4915000D02*
X8805000Y-4935000D01*
X8815000Y-4845000D02*
X8835000Y-4865000D01*
X8835000Y-4845000D02*
X8815000Y-4865000D01*
X8855000Y-5375000D02*
X8875000Y-5395000D01*
X8875000Y-5375000D02*
X8855000Y-5395000D01*
X8855000Y-5645000D02*
X8875000Y-5665000D01*
X8875000Y-5645000D02*
X8855000Y-5665000D01*
X8865000Y-4085000D02*
X8885000Y-4105000D01*
X8885000Y-4085000D02*
X8865000Y-4105000D01*
X8905000Y-5425000D02*
X8925000Y-5445000D01*
X8925000Y-5425000D02*
X8905000Y-5445000D01*
X8905000Y-6065000D02*
X8925000Y-6085000D01*
X8925000Y-6065000D02*
X8905000Y-6085000D01*
X8915000Y-4955000D02*
X8935000Y-4975000D01*
X8935000Y-4955000D02*
X8915000Y-4975000D01*
X8925000Y-305000D02*
X8945000Y-325000D01*
X8945000Y-305000D02*
X8925000Y-325000D01*
X8935000Y-4885000D02*
X8955000Y-4905000D01*
X8955000Y-4885000D02*
X8935000Y-4905000D01*
X8955000Y-5185000D02*
X8975000Y-5205000D01*
X8975000Y-5185000D02*
X8955000Y-5205000D01*
X9055000Y-4695000D02*
X9075000Y-4715000D01*
X9075000Y-4695000D02*
X9055000Y-4715000D01*
X9155000Y-4695000D02*
X9175000Y-4715000D01*
X9175000Y-4695000D02*
X9155000Y-4715000D01*
X9405000Y-4450000D02*
X9425000Y-4470000D01*
X9425000Y-4450000D02*
X9405000Y-4470000D01*
X9870000Y-3890000D02*
X9890000Y-3910000D01*
X9890000Y-3890000D02*
X9870000Y-3910000D01*
X230000Y-1605000D02*
G75*
G02*
X200000Y-1605000I-15000J0D01*
G01*
X200000Y-1605000D02*
G75*
G02*
X230000Y-1605000I15000J0D01*
G01*
X230000Y-2155000D02*
G75*
G02*
X200000Y-2155000I-15000J0D01*
G01*
X200000Y-2155000D02*
G75*
G02*
X230000Y-2155000I15000J0D01*
G01*
X230000Y-2515000D02*
G75*
G02*
X200000Y-2515000I-15000J0D01*
G01*
X200000Y-2515000D02*
G75*
G02*
X230000Y-2515000I15000J0D01*
G01*
X230000Y-3065000D02*
G75*
G02*
X200000Y-3065000I-15000J0D01*
G01*
X200000Y-3065000D02*
G75*
G02*
X230000Y-3065000I15000J0D01*
G01*
X1690000Y-5065000D02*
G75*
G02*
X1660000Y-5065000I-15000J0D01*
G01*
X1660000Y-5065000D02*
G75*
G02*
X1690000Y-5065000I15000J0D01*
G01*
X2101310Y-2714210D02*
G75*
G02*
X2071310Y-2714210I-15000J0D01*
G01*
X2071310Y-2714210D02*
G75*
G02*
X2101310Y-2714210I15000J0D01*
G01*
X2239020Y-3415260D02*
G75*
G02*
X2209020Y-3415260I-15000J0D01*
G01*
X2209020Y-3415260D02*
G75*
G02*
X2239020Y-3415260I15000J0D01*
G01*
X2390000Y-1235000D02*
G75*
G02*
X2360000Y-1235000I-15000J0D01*
G01*
X2360000Y-1235000D02*
G75*
G02*
X2390000Y-1235000I15000J0D01*
G01*
X2500000Y-4385000D02*
G75*
G02*
X2470000Y-4385000I-15000J0D01*
G01*
X2470000Y-4385000D02*
G75*
G02*
X2500000Y-4385000I15000J0D01*
G01*
X2995240Y-3545910D02*
G75*
G02*
X2965240Y-3545910I-15000J0D01*
G01*
X2965240Y-3545910D02*
G75*
G02*
X2995240Y-3545910I15000J0D01*
G01*
X2995540Y-3108600D02*
G75*
G02*
X2965540Y-3108600I-15000J0D01*
G01*
X2965540Y-3108600D02*
G75*
G02*
X2995540Y-3108600I15000J0D01*
G01*
X2998920Y-2300610D02*
G75*
G02*
X2968920Y-2300610I-15000J0D01*
G01*
X2968920Y-2300610D02*
G75*
G02*
X2998920Y-2300610I15000J0D01*
G01*
X3040000Y-1765000D02*
G75*
G02*
X3010000Y-1765000I-15000J0D01*
G01*
X3010000Y-1765000D02*
G75*
G02*
X3040000Y-1765000I15000J0D01*
G01*
X3111610Y-4685620D02*
G75*
G02*
X3081610Y-4685620I-15000J0D01*
G01*
X3081610Y-4685620D02*
G75*
G02*
X3111610Y-4685620I15000J0D01*
G01*
X3148620Y-4351520D02*
G75*
G02*
X3118620Y-4351520I-15000J0D01*
G01*
X3118620Y-4351520D02*
G75*
G02*
X3148620Y-4351520I15000J0D01*
G01*
X3169420Y-3430380D02*
G75*
G02*
X3139420Y-3430380I-15000J0D01*
G01*
X3139420Y-3430380D02*
G75*
G02*
X3169420Y-3430380I15000J0D01*
G01*
X3179220Y-4875080D02*
G75*
G02*
X3149220Y-4875080I-15000J0D01*
G01*
X3149220Y-4875080D02*
G75*
G02*
X3179220Y-4875080I15000J0D01*
G01*
X3440000Y-5975000D02*
G75*
G02*
X3410000Y-5975000I-15000J0D01*
G01*
X3410000Y-5975000D02*
G75*
G02*
X3440000Y-5975000I15000J0D01*
G01*
X3470000Y-1675000D02*
G75*
G02*
X3440000Y-1675000I-15000J0D01*
G01*
X3440000Y-1675000D02*
G75*
G02*
X3470000Y-1675000I15000J0D01*
G01*
X3646000Y-5095000D02*
G75*
G02*
X3616000Y-5095000I-15000J0D01*
G01*
X3616000Y-5095000D02*
G75*
G02*
X3646000Y-5095000I15000J0D01*
G01*
X3646000Y-5180000D02*
G75*
G02*
X3616000Y-5180000I-15000J0D01*
G01*
X3616000Y-5180000D02*
G75*
G02*
X3646000Y-5180000I15000J0D01*
G01*
X3670000Y-4275000D02*
G75*
G02*
X3640000Y-4275000I-15000J0D01*
G01*
X3640000Y-4275000D02*
G75*
G02*
X3670000Y-4275000I15000J0D01*
G01*
X3731000Y-5095000D02*
G75*
G02*
X3701000Y-5095000I-15000J0D01*
G01*
X3701000Y-5095000D02*
G75*
G02*
X3731000Y-5095000I15000J0D01*
G01*
X3731000Y-5180000D02*
G75*
G02*
X3701000Y-5180000I-15000J0D01*
G01*
X3701000Y-5180000D02*
G75*
G02*
X3731000Y-5180000I15000J0D01*
G01*
X3760000Y-900000D02*
G75*
G02*
X3730000Y-900000I-15000J0D01*
G01*
X3730000Y-900000D02*
G75*
G02*
X3760000Y-900000I15000J0D01*
G01*
X3814150Y-4701120D02*
G75*
G02*
X3784150Y-4701120I-15000J0D01*
G01*
X3784150Y-4701120D02*
G75*
G02*
X3814150Y-4701120I15000J0D01*
G01*
X3816000Y-5010000D02*
G75*
G02*
X3786000Y-5010000I-15000J0D01*
G01*
X3786000Y-5010000D02*
G75*
G02*
X3816000Y-5010000I15000J0D01*
G01*
X3816000Y-5095000D02*
G75*
G02*
X3786000Y-5095000I-15000J0D01*
G01*
X3786000Y-5095000D02*
G75*
G02*
X3816000Y-5095000I15000J0D01*
G01*
X3816000Y-5180000D02*
G75*
G02*
X3786000Y-5180000I-15000J0D01*
G01*
X3786000Y-5180000D02*
G75*
G02*
X3816000Y-5180000I15000J0D01*
G01*
X3838300Y-3074300D02*
G75*
G02*
X3808300Y-3074300I-15000J0D01*
G01*
X3808300Y-3074300D02*
G75*
G02*
X3838300Y-3074300I15000J0D01*
G01*
X3845000Y-900000D02*
G75*
G02*
X3815000Y-900000I-15000J0D01*
G01*
X3815000Y-900000D02*
G75*
G02*
X3845000Y-900000I15000J0D01*
G01*
X3900000Y-4175000D02*
G75*
G02*
X3870000Y-4175000I-15000J0D01*
G01*
X3870000Y-4175000D02*
G75*
G02*
X3900000Y-4175000I15000J0D01*
G01*
X3930000Y-900000D02*
G75*
G02*
X3900000Y-900000I-15000J0D01*
G01*
X3900000Y-900000D02*
G75*
G02*
X3930000Y-900000I15000J0D01*
G01*
X3990000Y-2565000D02*
G75*
G02*
X3960000Y-2565000I-15000J0D01*
G01*
X3960000Y-2565000D02*
G75*
G02*
X3990000Y-2565000I15000J0D01*
G01*
X4056030Y-5160000D02*
G75*
G02*
X4026030Y-5160000I-15000J0D01*
G01*
X4026030Y-5160000D02*
G75*
G02*
X4056030Y-5160000I15000J0D01*
G01*
X4100000Y-3195000D02*
G75*
G02*
X4070000Y-3195000I-15000J0D01*
G01*
X4070000Y-3195000D02*
G75*
G02*
X4100000Y-3195000I15000J0D01*
G01*
X4112500Y-4327090D02*
G75*
G02*
X4082500Y-4327090I-15000J0D01*
G01*
X4082500Y-4327090D02*
G75*
G02*
X4112500Y-4327090I15000J0D01*
G01*
X4129070Y-2699880D02*
G75*
G02*
X4099070Y-2699880I-15000J0D01*
G01*
X4099070Y-2699880D02*
G75*
G02*
X4129070Y-2699880I15000J0D01*
G01*
X4133720Y-2369840D02*
G75*
G02*
X4103720Y-2369840I-15000J0D01*
G01*
X4103720Y-2369840D02*
G75*
G02*
X4133720Y-2369840I15000J0D01*
G01*
X4135670Y-3780200D02*
G75*
G02*
X4105670Y-3780200I-15000J0D01*
G01*
X4105670Y-3780200D02*
G75*
G02*
X4135670Y-3780200I15000J0D01*
G01*
X4280000Y-2495000D02*
G75*
G02*
X4250000Y-2495000I-15000J0D01*
G01*
X4250000Y-2495000D02*
G75*
G02*
X4280000Y-2495000I15000J0D01*
G01*
X4347070Y-5160000D02*
G75*
G02*
X4317070Y-5160000I-15000J0D01*
G01*
X4317070Y-5160000D02*
G75*
G02*
X4347070Y-5160000I15000J0D01*
G01*
X4400000Y-1575000D02*
G75*
G02*
X4370000Y-1575000I-15000J0D01*
G01*
X4370000Y-1575000D02*
G75*
G02*
X4400000Y-1575000I15000J0D01*
G01*
X4400000Y-2365000D02*
G75*
G02*
X4370000Y-2365000I-15000J0D01*
G01*
X4370000Y-2365000D02*
G75*
G02*
X4400000Y-2365000I15000J0D01*
G01*
X4666310Y-4554880D02*
G75*
G02*
X4636310Y-4554880I-15000J0D01*
G01*
X4636310Y-4554880D02*
G75*
G02*
X4666310Y-4554880I15000J0D01*
G01*
X4928140Y-4222300D02*
G75*
G02*
X4898140Y-4222300I-15000J0D01*
G01*
X4898140Y-4222300D02*
G75*
G02*
X4928140Y-4222300I15000J0D01*
G01*
X4982550Y-4451740D02*
G75*
G02*
X4952550Y-4451740I-15000J0D01*
G01*
X4952550Y-4451740D02*
G75*
G02*
X4982550Y-4451740I15000J0D01*
G01*
X5015400Y-4283550D02*
G75*
G02*
X4985400Y-4283550I-15000J0D01*
G01*
X4985400Y-4283550D02*
G75*
G02*
X5015400Y-4283550I15000J0D01*
G01*
X5087500Y-3993120D02*
G75*
G02*
X5057500Y-3993120I-15000J0D01*
G01*
X5057500Y-3993120D02*
G75*
G02*
X5087500Y-3993120I15000J0D01*
G01*
X5130000Y-5245000D02*
G75*
G02*
X5100000Y-5245000I-15000J0D01*
G01*
X5100000Y-5245000D02*
G75*
G02*
X5130000Y-5245000I15000J0D01*
G01*
X5320000Y-3725000D02*
G75*
G02*
X5290000Y-3725000I-15000J0D01*
G01*
X5290000Y-3725000D02*
G75*
G02*
X5320000Y-3725000I15000J0D01*
G01*
X5440000Y-5485000D02*
G75*
G02*
X5410000Y-5485000I-15000J0D01*
G01*
X5410000Y-5485000D02*
G75*
G02*
X5440000Y-5485000I15000J0D01*
G01*
X5460000Y-3695000D02*
G75*
G02*
X5430000Y-3695000I-15000J0D01*
G01*
X5430000Y-3695000D02*
G75*
G02*
X5460000Y-3695000I15000J0D01*
G01*
X5460000Y-4455000D02*
G75*
G02*
X5430000Y-4455000I-15000J0D01*
G01*
X5430000Y-4455000D02*
G75*
G02*
X5460000Y-4455000I15000J0D01*
G01*
X5460420Y-1022050D02*
G75*
G02*
X5430420Y-1022050I-15000J0D01*
G01*
X5430420Y-1022050D02*
G75*
G02*
X5460420Y-1022050I15000J0D01*
G01*
X5560000Y-3075000D02*
G75*
G02*
X5530000Y-3075000I-15000J0D01*
G01*
X5530000Y-3075000D02*
G75*
G02*
X5560000Y-3075000I15000J0D01*
G01*
X5610000Y-715000D02*
G75*
G02*
X5580000Y-715000I-15000J0D01*
G01*
X5580000Y-715000D02*
G75*
G02*
X5610000Y-715000I15000J0D01*
G01*
X5610000Y-1055000D02*
G75*
G02*
X5580000Y-1055000I-15000J0D01*
G01*
X5580000Y-1055000D02*
G75*
G02*
X5610000Y-1055000I15000J0D01*
G01*
X5610000Y-1695000D02*
G75*
G02*
X5580000Y-1695000I-15000J0D01*
G01*
X5580000Y-1695000D02*
G75*
G02*
X5610000Y-1695000I15000J0D01*
G01*
X5610000Y-2495000D02*
G75*
G02*
X5580000Y-2495000I-15000J0D01*
G01*
X5580000Y-2495000D02*
G75*
G02*
X5610000Y-2495000I15000J0D01*
G01*
X5670000Y-715000D02*
G75*
G02*
X5640000Y-715000I-15000J0D01*
G01*
X5640000Y-715000D02*
G75*
G02*
X5670000Y-715000I15000J0D01*
G01*
X5670000Y-1055000D02*
G75*
G02*
X5640000Y-1055000I-15000J0D01*
G01*
X5640000Y-1055000D02*
G75*
G02*
X5670000Y-1055000I15000J0D01*
G01*
X5670000Y-1635000D02*
G75*
G02*
X5640000Y-1635000I-15000J0D01*
G01*
X5640000Y-1635000D02*
G75*
G02*
X5670000Y-1635000I15000J0D01*
G01*
X5670000Y-2495000D02*
G75*
G02*
X5640000Y-2495000I-15000J0D01*
G01*
X5640000Y-2495000D02*
G75*
G02*
X5670000Y-2495000I15000J0D01*
G01*
X5683090Y-4060000D02*
G75*
G02*
X5653090Y-4060000I-15000J0D01*
G01*
X5653090Y-4060000D02*
G75*
G02*
X5683090Y-4060000I15000J0D01*
G01*
X5720340Y-3388470D02*
G75*
G02*
X5690340Y-3388470I-15000J0D01*
G01*
X5690340Y-3388470D02*
G75*
G02*
X5720340Y-3388470I15000J0D01*
G01*
X5840000Y-3975000D02*
G75*
G02*
X5810000Y-3975000I-15000J0D01*
G01*
X5810000Y-3975000D02*
G75*
G02*
X5840000Y-3975000I15000J0D01*
G01*
X5858960Y-2997460D02*
G75*
G02*
X5828960Y-2997460I-15000J0D01*
G01*
X5828960Y-2997460D02*
G75*
G02*
X5858960Y-2997460I15000J0D01*
G01*
X5860000Y-865000D02*
G75*
G02*
X5830000Y-865000I-15000J0D01*
G01*
X5830000Y-865000D02*
G75*
G02*
X5860000Y-865000I15000J0D01*
G01*
X5959920Y-4490780D02*
G75*
G02*
X5929920Y-4490780I-15000J0D01*
G01*
X5929920Y-4490780D02*
G75*
G02*
X5959920Y-4490780I15000J0D01*
G01*
X5960000Y-3335000D02*
G75*
G02*
X5930000Y-3335000I-15000J0D01*
G01*
X5930000Y-3335000D02*
G75*
G02*
X5960000Y-3335000I15000J0D01*
G01*
X5980000Y-985000D02*
G75*
G02*
X5950000Y-985000I-15000J0D01*
G01*
X5950000Y-985000D02*
G75*
G02*
X5980000Y-985000I15000J0D01*
G01*
X6108350Y-2300120D02*
G75*
G02*
X6078350Y-2300120I-15000J0D01*
G01*
X6078350Y-2300120D02*
G75*
G02*
X6108350Y-2300120I15000J0D01*
G01*
X6127370Y-6259880D02*
G75*
G02*
X6097370Y-6259880I-15000J0D01*
G01*
X6097370Y-6259880D02*
G75*
G02*
X6127370Y-6259880I15000J0D01*
G01*
X6140000Y-3275000D02*
G75*
G02*
X6110000Y-3275000I-15000J0D01*
G01*
X6110000Y-3275000D02*
G75*
G02*
X6140000Y-3275000I15000J0D01*
G01*
X6360000Y-2860000D02*
G75*
G02*
X6330000Y-2860000I-15000J0D01*
G01*
X6330000Y-2860000D02*
G75*
G02*
X6360000Y-2860000I15000J0D01*
G01*
X6360000Y-2990000D02*
G75*
G02*
X6330000Y-2990000I-15000J0D01*
G01*
X6330000Y-2990000D02*
G75*
G02*
X6360000Y-2990000I15000J0D01*
G01*
X6390000Y-1505000D02*
G75*
G02*
X6360000Y-1505000I-15000J0D01*
G01*
X6360000Y-1505000D02*
G75*
G02*
X6390000Y-1505000I15000J0D01*
G01*
X6440000Y-425000D02*
G75*
G02*
X6410000Y-425000I-15000J0D01*
G01*
X6410000Y-425000D02*
G75*
G02*
X6440000Y-425000I15000J0D01*
G01*
X6443560Y-612760D02*
G75*
G02*
X6413560Y-612760I-15000J0D01*
G01*
X6413560Y-612760D02*
G75*
G02*
X6443560Y-612760I15000J0D01*
G01*
X6573770Y-5160000D02*
G75*
G02*
X6543770Y-5160000I-15000J0D01*
G01*
X6543770Y-5160000D02*
G75*
G02*
X6573770Y-5160000I15000J0D01*
G01*
X6660000Y-495000D02*
G75*
G02*
X6630000Y-495000I-15000J0D01*
G01*
X6630000Y-495000D02*
G75*
G02*
X6660000Y-495000I15000J0D01*
G01*
X6807950Y-4940220D02*
G75*
G02*
X6777950Y-4940220I-15000J0D01*
G01*
X6777950Y-4940220D02*
G75*
G02*
X6807950Y-4940220I15000J0D01*
G01*
X6838670Y-5380000D02*
G75*
G02*
X6808670Y-5380000I-15000J0D01*
G01*
X6808670Y-5380000D02*
G75*
G02*
X6838670Y-5380000I15000J0D01*
G01*
X6960000Y-1495000D02*
G75*
G02*
X6930000Y-1495000I-15000J0D01*
G01*
X6930000Y-1495000D02*
G75*
G02*
X6960000Y-1495000I15000J0D01*
G01*
X6960000Y-4305000D02*
G75*
G02*
X6930000Y-4305000I-15000J0D01*
G01*
X6930000Y-4305000D02*
G75*
G02*
X6960000Y-4305000I15000J0D01*
G01*
X7050000Y-6385000D02*
G75*
G02*
X7020000Y-6385000I-15000J0D01*
G01*
X7020000Y-6385000D02*
G75*
G02*
X7050000Y-6385000I15000J0D01*
G01*
X7095000Y-1940000D02*
G75*
G02*
X7065000Y-1940000I-15000J0D01*
G01*
X7065000Y-1940000D02*
G75*
G02*
X7095000Y-1940000I15000J0D01*
G01*
X7095000Y-2420000D02*
G75*
G02*
X7065000Y-2420000I-15000J0D01*
G01*
X7065000Y-2420000D02*
G75*
G02*
X7095000Y-2420000I15000J0D01*
G01*
X7095000Y-2900000D02*
G75*
G02*
X7065000Y-2900000I-15000J0D01*
G01*
X7065000Y-2900000D02*
G75*
G02*
X7095000Y-2900000I15000J0D01*
G01*
X7095000Y-3380000D02*
G75*
G02*
X7065000Y-3380000I-15000J0D01*
G01*
X7065000Y-3380000D02*
G75*
G02*
X7095000Y-3380000I15000J0D01*
G01*
X7095000Y-3860000D02*
G75*
G02*
X7065000Y-3860000I-15000J0D01*
G01*
X7065000Y-3860000D02*
G75*
G02*
X7095000Y-3860000I15000J0D01*
G01*
X7350000Y-4305000D02*
G75*
G02*
X7320000Y-4305000I-15000J0D01*
G01*
X7320000Y-4305000D02*
G75*
G02*
X7350000Y-4305000I15000J0D01*
G01*
X7380000Y-205000D02*
G75*
G02*
X7350000Y-205000I-15000J0D01*
G01*
X7350000Y-205000D02*
G75*
G02*
X7380000Y-205000I15000J0D01*
G01*
X7415000Y-1940000D02*
G75*
G02*
X7385000Y-1940000I-15000J0D01*
G01*
X7385000Y-1940000D02*
G75*
G02*
X7415000Y-1940000I15000J0D01*
G01*
X7415000Y-2420000D02*
G75*
G02*
X7385000Y-2420000I-15000J0D01*
G01*
X7385000Y-2420000D02*
G75*
G02*
X7415000Y-2420000I15000J0D01*
G01*
X7415000Y-2900000D02*
G75*
G02*
X7385000Y-2900000I-15000J0D01*
G01*
X7385000Y-2900000D02*
G75*
G02*
X7415000Y-2900000I15000J0D01*
G01*
X7415000Y-3380000D02*
G75*
G02*
X7385000Y-3380000I-15000J0D01*
G01*
X7385000Y-3380000D02*
G75*
G02*
X7415000Y-3380000I15000J0D01*
G01*
X7415000Y-3860000D02*
G75*
G02*
X7385000Y-3860000I-15000J0D01*
G01*
X7385000Y-3860000D02*
G75*
G02*
X7415000Y-3860000I15000J0D01*
G01*
X7750000Y-5425000D02*
G75*
G02*
X7720000Y-5425000I-15000J0D01*
G01*
X7720000Y-5425000D02*
G75*
G02*
X7750000Y-5425000I15000J0D01*
G01*
X7755000Y-1940000D02*
G75*
G02*
X7725000Y-1940000I-15000J0D01*
G01*
X7725000Y-1940000D02*
G75*
G02*
X7755000Y-1940000I15000J0D01*
G01*
X7755000Y-2420000D02*
G75*
G02*
X7725000Y-2420000I-15000J0D01*
G01*
X7725000Y-2420000D02*
G75*
G02*
X7755000Y-2420000I15000J0D01*
G01*
X7755000Y-3380000D02*
G75*
G02*
X7725000Y-3380000I-15000J0D01*
G01*
X7725000Y-3380000D02*
G75*
G02*
X7755000Y-3380000I15000J0D01*
G01*
X7755000Y-3860000D02*
G75*
G02*
X7725000Y-3860000I-15000J0D01*
G01*
X7725000Y-3860000D02*
G75*
G02*
X7755000Y-3860000I15000J0D01*
G01*
X7995000Y-2740000D02*
G75*
G02*
X7965000Y-2740000I-15000J0D01*
G01*
X7965000Y-2740000D02*
G75*
G02*
X7995000Y-2740000I15000J0D01*
G01*
X8075000Y-1940000D02*
G75*
G02*
X8045000Y-1940000I-15000J0D01*
G01*
X8045000Y-1940000D02*
G75*
G02*
X8075000Y-1940000I15000J0D01*
G01*
X8075000Y-2420000D02*
G75*
G02*
X8045000Y-2420000I-15000J0D01*
G01*
X8045000Y-2420000D02*
G75*
G02*
X8075000Y-2420000I15000J0D01*
G01*
X8075000Y-3380000D02*
G75*
G02*
X8045000Y-3380000I-15000J0D01*
G01*
X8045000Y-3380000D02*
G75*
G02*
X8075000Y-3380000I15000J0D01*
G01*
X8075000Y-3860000D02*
G75*
G02*
X8045000Y-3860000I-15000J0D01*
G01*
X8045000Y-3860000D02*
G75*
G02*
X8075000Y-3860000I15000J0D01*
G01*
X8110000Y-325000D02*
G75*
G02*
X8080000Y-325000I-15000J0D01*
G01*
X8080000Y-325000D02*
G75*
G02*
X8110000Y-325000I15000J0D01*
G01*
X8415000Y-1940000D02*
G75*
G02*
X8385000Y-1940000I-15000J0D01*
G01*
X8385000Y-1940000D02*
G75*
G02*
X8415000Y-1940000I15000J0D01*
G01*
X8415000Y-2420000D02*
G75*
G02*
X8385000Y-2420000I-15000J0D01*
G01*
X8385000Y-2420000D02*
G75*
G02*
X8415000Y-2420000I15000J0D01*
G01*
X8415000Y-2900000D02*
G75*
G02*
X8385000Y-2900000I-15000J0D01*
G01*
X8385000Y-2900000D02*
G75*
G02*
X8415000Y-2900000I15000J0D01*
G01*
X8415000Y-3380000D02*
G75*
G02*
X8385000Y-3380000I-15000J0D01*
G01*
X8385000Y-3380000D02*
G75*
G02*
X8415000Y-3380000I15000J0D01*
G01*
X8415000Y-3860000D02*
G75*
G02*
X8385000Y-3860000I-15000J0D01*
G01*
X8385000Y-3860000D02*
G75*
G02*
X8415000Y-3860000I15000J0D01*
G01*
X8440000Y-325000D02*
G75*
G02*
X8410000Y-325000I-15000J0D01*
G01*
X8410000Y-325000D02*
G75*
G02*
X8440000Y-325000I15000J0D01*
G01*
X8500000Y-465000D02*
G75*
G02*
X8470000Y-465000I-15000J0D01*
G01*
X8470000Y-465000D02*
G75*
G02*
X8500000Y-465000I15000J0D01*
G01*
X8560000Y-365000D02*
G75*
G02*
X8530000Y-365000I-15000J0D01*
G01*
X8530000Y-365000D02*
G75*
G02*
X8560000Y-365000I15000J0D01*
G01*
X8610000Y-4845000D02*
G75*
G02*
X8580000Y-4845000I-15000J0D01*
G01*
X8580000Y-4845000D02*
G75*
G02*
X8610000Y-4845000I15000J0D01*
G01*
X8735000Y-1940000D02*
G75*
G02*
X8705000Y-1940000I-15000J0D01*
G01*
X8705000Y-1940000D02*
G75*
G02*
X8735000Y-1940000I15000J0D01*
G01*
X8735000Y-2420000D02*
G75*
G02*
X8705000Y-2420000I-15000J0D01*
G01*
X8705000Y-2420000D02*
G75*
G02*
X8735000Y-2420000I15000J0D01*
G01*
X8735000Y-2900000D02*
G75*
G02*
X8705000Y-2900000I-15000J0D01*
G01*
X8705000Y-2900000D02*
G75*
G02*
X8735000Y-2900000I15000J0D01*
G01*
X8735000Y-3380000D02*
G75*
G02*
X8705000Y-3380000I-15000J0D01*
G01*
X8705000Y-3380000D02*
G75*
G02*
X8735000Y-3380000I15000J0D01*
G01*
X8735000Y-3860000D02*
G75*
G02*
X8705000Y-3860000I-15000J0D01*
G01*
X8705000Y-3860000D02*
G75*
G02*
X8735000Y-3860000I15000J0D01*
G01*
X8750000Y-6235000D02*
G75*
G02*
X8720000Y-6235000I-15000J0D01*
G01*
X8720000Y-6235000D02*
G75*
G02*
X8750000Y-6235000I15000J0D01*
G01*
X9040000Y-1495000D02*
G75*
G02*
X9010000Y-1495000I-15000J0D01*
G01*
X9010000Y-1495000D02*
G75*
G02*
X9040000Y-1495000I15000J0D01*
G01*
X9170000Y-4305000D02*
G75*
G02*
X9140000Y-4305000I-15000J0D01*
G01*
X9140000Y-4305000D02*
G75*
G02*
X9170000Y-4305000I15000J0D01*
G01*
X9470000Y-1640000D02*
G75*
G02*
X9440000Y-1640000I-15000J0D01*
G01*
X9440000Y-1640000D02*
G75*
G02*
X9470000Y-1640000I15000J0D01*
G01*
X9470000Y-1770000D02*
G75*
G02*
X9440000Y-1770000I-15000J0D01*
G01*
X9440000Y-1770000D02*
G75*
G02*
X9470000Y-1770000I15000J0D01*
G01*
X9470000Y-1900000D02*
G75*
G02*
X9440000Y-1900000I-15000J0D01*
G01*
X9440000Y-1900000D02*
G75*
G02*
X9470000Y-1900000I15000J0D01*
G01*
X9470000Y-2030000D02*
G75*
G02*
X9440000Y-2030000I-15000J0D01*
G01*
X9440000Y-2030000D02*
G75*
G02*
X9470000Y-2030000I15000J0D01*
G01*
X9470000Y-2160000D02*
G75*
G02*
X9440000Y-2160000I-15000J0D01*
G01*
X9440000Y-2160000D02*
G75*
G02*
X9470000Y-2160000I15000J0D01*
G01*
X9470000Y-2420000D02*
G75*
G02*
X9440000Y-2420000I-15000J0D01*
G01*
X9440000Y-2420000D02*
G75*
G02*
X9470000Y-2420000I15000J0D01*
G01*
X9470000Y-2990000D02*
G75*
G02*
X9440000Y-2990000I-15000J0D01*
G01*
X9440000Y-2990000D02*
G75*
G02*
X9470000Y-2990000I15000J0D01*
G01*
X9640000Y-1453000D02*
G75*
G02*
X9610000Y-1453000I-15000J0D01*
G01*
X9610000Y-1453000D02*
G75*
G02*
X9640000Y-1453000I15000J0D01*
G01*
X9640000Y-1653000D02*
G75*
G02*
X9610000Y-1653000I-15000J0D01*
G01*
X9610000Y-1653000D02*
G75*
G02*
X9640000Y-1653000I15000J0D01*
G01*
X9640000Y-1853000D02*
G75*
G02*
X9610000Y-1853000I-15000J0D01*
G01*
X9610000Y-1853000D02*
G75*
G02*
X9640000Y-1853000I15000J0D01*
G01*
X9640000Y-2053000D02*
G75*
G02*
X9610000Y-2053000I-15000J0D01*
G01*
X9610000Y-2053000D02*
G75*
G02*
X9640000Y-2053000I15000J0D01*
G01*
X9640000Y-4298000D02*
G75*
G02*
X9610000Y-4298000I-15000J0D01*
G01*
X9610000Y-4298000D02*
G75*
G02*
X9640000Y-4298000I15000J0D01*
G01*
X9640000Y-4498000D02*
G75*
G02*
X9610000Y-4498000I-15000J0D01*
G01*
X9610000Y-4498000D02*
G75*
G02*
X9640000Y-4498000I15000J0D01*
G01*
X9670000Y-2445000D02*
G75*
G02*
X9640000Y-2445000I-15000J0D01*
G01*
X9640000Y-2445000D02*
G75*
G02*
X9670000Y-2445000I15000J0D01*
G01*
X9670000Y-3015000D02*
G75*
G02*
X9640000Y-3015000I-15000J0D01*
G01*
X9640000Y-3015000D02*
G75*
G02*
X9670000Y-3015000I15000J0D01*
G01*
X9675000Y-2160000D02*
G75*
G02*
X9645000Y-2160000I-15000J0D01*
G01*
X9645000Y-2160000D02*
G75*
G02*
X9675000Y-2160000I15000J0D01*
G01*
X9675000Y-2730000D02*
G75*
G02*
X9645000Y-2730000I-15000J0D01*
G01*
X9645000Y-2730000D02*
G75*
G02*
X9675000Y-2730000I15000J0D01*
G01*
X9753085Y-1135770D02*
G75*
G02*
X9723085Y-1135770I-15000J0D01*
G01*
X9723085Y-1135770D02*
G75*
G02*
X9753085Y-1135770I15000J0D01*
G01*
X9753085Y-4734230D02*
G75*
G02*
X9723085Y-4734230I-15000J0D01*
G01*
X9723085Y-4734230D02*
G75*
G02*
X9753085Y-4734230I15000J0D01*
G01*
X145000Y-4825000D02*
X145000Y-4865000D01*
X125000Y-4845000D02*
X165000Y-4845000D01*
X245000Y-1265000D02*
X245000Y-1305000D01*
X225000Y-1285000D02*
X265000Y-1285000D01*
X485000Y-1265000D02*
X485000Y-1305000D01*
X465000Y-1285000D02*
X505000Y-1285000D01*
X495000Y-2425000D02*
X495000Y-2465000D01*
X475000Y-2445000D02*
X515000Y-2445000D01*
X555000Y-4285000D02*
X555000Y-4325000D01*
X535000Y-4305000D02*
X575000Y-4305000D01*
X1045000Y-3435000D02*
X1045000Y-3475000D01*
X1025000Y-3455000D02*
X1065000Y-3455000D01*
X1085000Y-765000D02*
X1085000Y-805000D01*
X1065000Y-785000D02*
X1105000Y-785000D01*
X1345000Y-5335000D02*
X1345000Y-5375000D01*
X1325000Y-5355000D02*
X1365000Y-5355000D01*
X1415000Y-3295000D02*
X1415000Y-3335000D01*
X1395000Y-3315000D02*
X1435000Y-3315000D01*
X1445000Y-2405000D02*
X1445000Y-2445000D01*
X1425000Y-2425000D02*
X1465000Y-2425000D01*
X1535000Y-3195000D02*
X1535000Y-3235000D01*
X1515000Y-3215000D02*
X1555000Y-3215000D01*
X1575000Y-2805000D02*
X1575000Y-2845000D01*
X1555000Y-2825000D02*
X1595000Y-2825000D01*
X1605000Y-3055000D02*
X1605000Y-3095000D01*
X1585000Y-3075000D02*
X1625000Y-3075000D01*
X1625000Y-1115000D02*
X1625000Y-1155000D01*
X1605000Y-1135000D02*
X1645000Y-1135000D01*
X1835000Y-3305000D02*
X1835000Y-3345000D01*
X1815000Y-3325000D02*
X1855000Y-3325000D01*
X3155000Y-1795000D02*
X3155000Y-1835000D01*
X3135000Y-1815000D02*
X3175000Y-1815000D01*
X3295000Y-1385000D02*
X3295000Y-1425000D01*
X3275000Y-1405000D02*
X3315000Y-1405000D01*
X3765000Y-475000D02*
X3765000Y-515000D01*
X3745000Y-495000D02*
X3785000Y-495000D01*
X3775000Y-305000D02*
X3775000Y-345000D01*
X3755000Y-325000D02*
X3795000Y-325000D01*
X3905000Y-455000D02*
X3905000Y-495000D01*
X3885000Y-475000D02*
X3925000Y-475000D01*
X4105000Y-665000D02*
X4105000Y-705000D01*
X4085000Y-685000D02*
X4125000Y-685000D01*
X6315000Y-255000D02*
X6315000Y-295000D01*
X6295000Y-275000D02*
X6335000Y-275000D01*
X6665000Y-255000D02*
X6665000Y-295000D01*
X6645000Y-275000D02*
X6685000Y-275000D01*
X7695000Y-455000D02*
X7695000Y-495000D01*
X7675000Y-475000D02*
X7715000Y-475000D01*
X8055000Y-815000D02*
X8055000Y-855000D01*
X8035000Y-835000D02*
X8075000Y-835000D01*
X8055000Y-895000D02*
X8055000Y-935000D01*
X8035000Y-915000D02*
X8075000Y-915000D01*
X8562800Y-740000D02*
X8562800Y-780000D01*
X8542800Y-760000D02*
X8582800Y-760000D01*
X8775000Y-285000D02*
X8775000Y-325000D01*
X8755000Y-305000D02*
X8795000Y-305000D01*
X8815000Y-735000D02*
X8815000Y-775000D01*
X8795000Y-755000D02*
X8835000Y-755000D01*
X8815000Y-1145000D02*
X8815000Y-1185000D01*
X8795000Y-1165000D02*
X8835000Y-1165000D01*
X8885000Y-735000D02*
X8885000Y-775000D01*
X8865000Y-755000D02*
X8905000Y-755000D01*
X9453480Y-1308210D02*
X9453480Y-1348210D01*
X9433480Y-1328210D02*
X9473480Y-1328210D01*
X5334588Y-6309088D02*
X5334588Y-6241912D01*
X5267412Y-6241912D01*
X5267412Y-6309088D01*
X5334588Y-6309088D01*
X5584588Y-6309088D02*
X5584588Y-6241912D01*
X5517412Y-6241912D01*
X5517412Y-6309088D01*
X5584588Y-6309088D01*
X5834588Y-6309088D02*
X5834588Y-6241912D01*
X5767412Y-6241912D01*
X5767412Y-6309088D01*
X5834588Y-6309088D01*
D12*
X750000Y-1551000D02*
X801000Y-1500000D01*
X750000Y-1449000D01*
X699000Y-1500000D01*
X750000Y-1551000D01*
X750000Y-1851000D02*
X801000Y-1800000D01*
X750000Y-1749000D01*
X699000Y-1800000D01*
X750000Y-1851000D01*
X750000Y-2151000D02*
X801000Y-2100000D01*
X750000Y-2049000D01*
X699000Y-2100000D01*
X750000Y-2151000D01*
X750000Y-2451000D02*
X801000Y-2400000D01*
X750000Y-2349000D01*
X699000Y-2400000D01*
X750000Y-2451000D01*
X750000Y-2751000D02*
X801000Y-2700000D01*
X750000Y-2649000D01*
X699000Y-2700000D01*
X750000Y-2751000D01*
X750000Y-3051000D02*
X801000Y-3000000D01*
X750000Y-2949000D01*
X699000Y-3000000D01*
X750000Y-3051000D01*
X1050000Y-1551000D02*
X1101000Y-1500000D01*
X1050000Y-1449000D01*
X999000Y-1500000D01*
X1050000Y-1551000D01*
X1050000Y-1851000D02*
X1101000Y-1800000D01*
X1050000Y-1749000D01*
X999000Y-1800000D01*
X1050000Y-1851000D01*
X1050000Y-2151000D02*
X1101000Y-2100000D01*
X1050000Y-2049000D01*
X999000Y-2100000D01*
X1050000Y-2151000D01*
X1050000Y-2451000D02*
X1101000Y-2400000D01*
X1050000Y-2349000D01*
X999000Y-2400000D01*
X1050000Y-2451000D01*
X1050000Y-2751000D02*
X1101000Y-2700000D01*
X1050000Y-2649000D01*
X999000Y-2700000D01*
X1050000Y-2751000D01*
X1050000Y-3051000D02*
X1101000Y-3000000D01*
X1050000Y-2949000D01*
X999000Y-3000000D01*
X1050000Y-3051000D01*
D13*
X190000Y-190000D02*
X510000Y-510000D01*
X510000Y-190000D02*
X190000Y-510000D01*
X510000Y-350000D02*
G75*
G02*
X190000Y-350000I-160000J0D01*
G01*
X190000Y-350000D02*
G75*
G02*
X510000Y-350000I160000J0D01*
G01*
X190000Y-6290000D02*
X510000Y-6610000D01*
X510000Y-6290000D02*
X190000Y-6610000D01*
X510000Y-6450000D02*
G75*
G02*
X190000Y-6450000I-160000J0D01*
G01*
X190000Y-6450000D02*
G75*
G02*
X510000Y-6450000I160000J0D01*
G01*
X2403000Y-5898000D02*
X2723000Y-6218000D01*
X2723000Y-5898000D02*
X2403000Y-6218000D01*
X2723000Y-6058000D02*
G75*
G02*
X2403000Y-6058000I-160000J0D01*
G01*
X2403000Y-6058000D02*
G75*
G02*
X2723000Y-6058000I160000J0D01*
G01*
X9490000Y-190000D02*
X9810000Y-510000D01*
X9810000Y-190000D02*
X9490000Y-510000D01*
X9810000Y-350000D02*
G75*
G02*
X9490000Y-350000I-160000J0D01*
G01*
X9490000Y-350000D02*
G75*
G02*
X9810000Y-350000I160000J0D01*
G01*
X9490000Y-6290000D02*
X9810000Y-6610000D01*
X9810000Y-6290000D02*
X9490000Y-6610000D01*
X9810000Y-6450000D02*
G75*
G02*
X9490000Y-6450000I-160000J0D01*
G01*
X9490000Y-6450000D02*
G75*
G02*
X9810000Y-6450000I160000J0D01*
G01*
D10*
X6548000Y-5745700D02*
X6628000Y-5825700D01*
X6628000Y-5745700D02*
X6548000Y-5825700D01*
X6588000Y-5745700D02*
X6588000Y-5825700D01*
X6548000Y-5785700D02*
X6628000Y-5785700D01*
X7397000Y-5745700D02*
X7477000Y-5825700D01*
X7477000Y-5745700D02*
X7397000Y-5825700D01*
X7437000Y-5745700D02*
X7437000Y-5825700D01*
X7397000Y-5785700D02*
X7477000Y-5785700D01*
D14*
X600000Y-1145000D02*
X710000Y-1255000D01*
X710000Y-1145000D02*
X600000Y-1255000D01*
X693891Y-1238891D02*
X693891Y-1161109D01*
X616109Y-1161109D01*
X616109Y-1238891D01*
X693891Y-1238891D01*
X1090000Y-3245000D02*
X1200000Y-3355000D01*
X1200000Y-3245000D02*
X1090000Y-3355000D01*
X1183891Y-3338891D02*
X1183891Y-3261109D01*
X1106109Y-3261109D01*
X1106109Y-3338891D01*
X1183891Y-3338891D01*
D11*
X255777Y-7116484D02*
X255777Y-6916484D01*
X255777Y-6916484D02*
X303396Y-6916484D01*
X303396Y-6916484D02*
X331967Y-6926008D01*
X331967Y-6926008D02*
X351015Y-6945055D01*
X351015Y-6945055D02*
X360539Y-6964103D01*
X360539Y-6964103D02*
X370062Y-7002198D01*
X370062Y-7002198D02*
X370062Y-7030769D01*
X370062Y-7030769D02*
X360539Y-7068865D01*
X360539Y-7068865D02*
X351015Y-7087912D01*
X351015Y-7087912D02*
X331967Y-7106960D01*
X331967Y-7106960D02*
X303396Y-7116484D01*
X303396Y-7116484D02*
X255777Y-7116484D01*
X455777Y-7116484D02*
X455777Y-6983150D01*
X455777Y-7021246D02*
X465301Y-7002198D01*
X465301Y-7002198D02*
X474824Y-6992674D01*
X474824Y-6992674D02*
X493872Y-6983150D01*
X493872Y-6983150D02*
X512920Y-6983150D01*
X579586Y-7116484D02*
X579586Y-6983150D01*
X579586Y-6916484D02*
X570063Y-6926008D01*
X570063Y-6926008D02*
X579586Y-6935531D01*
X579586Y-6935531D02*
X589110Y-6926008D01*
X589110Y-6926008D02*
X579586Y-6916484D01*
X579586Y-6916484D02*
X579586Y-6935531D01*
X703396Y-7116484D02*
X684348Y-7106960D01*
X684348Y-7106960D02*
X674824Y-7087912D01*
X674824Y-7087912D02*
X674824Y-6916484D01*
X808158Y-7116484D02*
X789110Y-7106960D01*
X789110Y-7106960D02*
X779586Y-7087912D01*
X779586Y-7087912D02*
X779586Y-6916484D01*
X1036729Y-7116484D02*
X1036729Y-6916484D01*
X1036729Y-6916484D02*
X1103396Y-7059341D01*
X1103396Y-7059341D02*
X1170063Y-6916484D01*
X1170063Y-6916484D02*
X1170063Y-7116484D01*
X1351015Y-7116484D02*
X1351015Y-7011722D01*
X1351015Y-7011722D02*
X1341491Y-6992674D01*
X1341491Y-6992674D02*
X1322444Y-6983150D01*
X1322444Y-6983150D02*
X1284348Y-6983150D01*
X1284348Y-6983150D02*
X1265301Y-6992674D01*
X1351015Y-7106960D02*
X1331967Y-7116484D01*
X1331967Y-7116484D02*
X1284348Y-7116484D01*
X1284348Y-7116484D02*
X1265301Y-7106960D01*
X1265301Y-7106960D02*
X1255777Y-7087912D01*
X1255777Y-7087912D02*
X1255777Y-7068865D01*
X1255777Y-7068865D02*
X1265301Y-7049817D01*
X1265301Y-7049817D02*
X1284348Y-7040293D01*
X1284348Y-7040293D02*
X1331967Y-7040293D01*
X1331967Y-7040293D02*
X1351015Y-7030769D01*
X1446253Y-6983150D02*
X1446253Y-7183150D01*
X1446253Y-6992674D02*
X1465301Y-6983150D01*
X1465301Y-6983150D02*
X1503396Y-6983150D01*
X1503396Y-6983150D02*
X1522443Y-6992674D01*
X1522443Y-6992674D02*
X1531967Y-7002198D01*
X1531967Y-7002198D02*
X1541491Y-7021246D01*
X1541491Y-7021246D02*
X1541491Y-7078388D01*
X1541491Y-7078388D02*
X1531967Y-7097436D01*
X1531967Y-7097436D02*
X1522443Y-7106960D01*
X1522443Y-7106960D02*
X1503396Y-7116484D01*
X1503396Y-7116484D02*
X1465301Y-7116484D01*
X1465301Y-7116484D02*
X1446253Y-7106960D01*
X1627205Y-7097436D02*
X1636729Y-7106960D01*
X1636729Y-7106960D02*
X1627205Y-7116484D01*
X1627205Y-7116484D02*
X1617682Y-7106960D01*
X1617682Y-7106960D02*
X1627205Y-7097436D01*
X1627205Y-7097436D02*
X1627205Y-7116484D01*
X1627205Y-6992674D02*
X1636729Y-7002198D01*
X1636729Y-7002198D02*
X1627205Y-7011722D01*
X1627205Y-7011722D02*
X1617682Y-7002198D01*
X1617682Y-7002198D02*
X1627205Y-6992674D01*
X1627205Y-6992674D02*
X1627205Y-7011722D01*
D10*
X-25000Y-7435000D02*
X-5000Y-7455000D01*
X-5000Y-7435000D02*
X-25000Y-7455000D01*
D11*
X293872Y-7336484D02*
X312920Y-7336484D01*
X312920Y-7336484D02*
X331967Y-7346008D01*
X331967Y-7346008D02*
X341491Y-7355531D01*
X341491Y-7355531D02*
X351015Y-7374579D01*
X351015Y-7374579D02*
X360539Y-7412674D01*
X360539Y-7412674D02*
X360539Y-7460293D01*
X360539Y-7460293D02*
X351015Y-7498388D01*
X351015Y-7498388D02*
X341491Y-7517436D01*
X341491Y-7517436D02*
X331967Y-7526960D01*
X331967Y-7526960D02*
X312920Y-7536484D01*
X312920Y-7536484D02*
X293872Y-7536484D01*
X293872Y-7536484D02*
X274824Y-7526960D01*
X274824Y-7526960D02*
X265301Y-7517436D01*
X265301Y-7517436D02*
X255777Y-7498388D01*
X255777Y-7498388D02*
X246253Y-7460293D01*
X246253Y-7460293D02*
X246253Y-7412674D01*
X246253Y-7412674D02*
X255777Y-7374579D01*
X255777Y-7374579D02*
X265301Y-7355531D01*
X265301Y-7355531D02*
X274824Y-7346008D01*
X274824Y-7346008D02*
X293872Y-7336484D01*
X446253Y-7517436D02*
X455777Y-7526960D01*
X455777Y-7526960D02*
X446253Y-7536484D01*
X446253Y-7536484D02*
X436729Y-7526960D01*
X436729Y-7526960D02*
X446253Y-7517436D01*
X446253Y-7517436D02*
X446253Y-7536484D01*
X531967Y-7355531D02*
X541491Y-7346008D01*
X541491Y-7346008D02*
X560539Y-7336484D01*
X560539Y-7336484D02*
X608158Y-7336484D01*
X608158Y-7336484D02*
X627205Y-7346008D01*
X627205Y-7346008D02*
X636729Y-7355531D01*
X636729Y-7355531D02*
X646253Y-7374579D01*
X646253Y-7374579D02*
X646253Y-7393627D01*
X646253Y-7393627D02*
X636729Y-7422198D01*
X636729Y-7422198D02*
X522443Y-7536484D01*
X522443Y-7536484D02*
X646253Y-7536484D01*
X770062Y-7336484D02*
X789110Y-7336484D01*
X789110Y-7336484D02*
X808158Y-7346008D01*
X808158Y-7346008D02*
X817682Y-7355531D01*
X817682Y-7355531D02*
X827205Y-7374579D01*
X827205Y-7374579D02*
X836729Y-7412674D01*
X836729Y-7412674D02*
X836729Y-7460293D01*
X836729Y-7460293D02*
X827205Y-7498388D01*
X827205Y-7498388D02*
X817682Y-7517436D01*
X817682Y-7517436D02*
X808158Y-7526960D01*
X808158Y-7526960D02*
X789110Y-7536484D01*
X789110Y-7536484D02*
X770062Y-7536484D01*
X770062Y-7536484D02*
X751015Y-7526960D01*
X751015Y-7526960D02*
X741491Y-7517436D01*
X741491Y-7517436D02*
X731967Y-7498388D01*
X731967Y-7498388D02*
X722443Y-7460293D01*
X722443Y-7460293D02*
X722443Y-7412674D01*
X722443Y-7412674D02*
X731967Y-7374579D01*
X731967Y-7374579D02*
X741491Y-7355531D01*
X741491Y-7355531D02*
X751015Y-7346008D01*
X751015Y-7346008D02*
X770062Y-7336484D01*
X960539Y-7336484D02*
X979586Y-7336484D01*
X979586Y-7336484D02*
X998634Y-7346008D01*
X998634Y-7346008D02*
X1008158Y-7355531D01*
X1008158Y-7355531D02*
X1017682Y-7374579D01*
X1017682Y-7374579D02*
X1027205Y-7412674D01*
X1027205Y-7412674D02*
X1027205Y-7460293D01*
X1027205Y-7460293D02*
X1017682Y-7498388D01*
X1017682Y-7498388D02*
X1008158Y-7517436D01*
X1008158Y-7517436D02*
X998634Y-7526960D01*
X998634Y-7526960D02*
X979586Y-7536484D01*
X979586Y-7536484D02*
X960539Y-7536484D01*
X960539Y-7536484D02*
X941491Y-7526960D01*
X941491Y-7526960D02*
X931967Y-7517436D01*
X931967Y-7517436D02*
X922443Y-7498388D01*
X922443Y-7498388D02*
X912920Y-7460293D01*
X912920Y-7460293D02*
X912920Y-7412674D01*
X912920Y-7412674D02*
X922443Y-7374579D01*
X922443Y-7374579D02*
X931967Y-7355531D01*
X931967Y-7355531D02*
X941491Y-7346008D01*
X941491Y-7346008D02*
X960539Y-7336484D01*
X1112920Y-7536484D02*
X1112920Y-7403150D01*
X1112920Y-7422198D02*
X1122444Y-7412674D01*
X1122444Y-7412674D02*
X1141491Y-7403150D01*
X1141491Y-7403150D02*
X1170063Y-7403150D01*
X1170063Y-7403150D02*
X1189110Y-7412674D01*
X1189110Y-7412674D02*
X1198634Y-7431722D01*
X1198634Y-7431722D02*
X1198634Y-7536484D01*
X1198634Y-7431722D02*
X1208158Y-7412674D01*
X1208158Y-7412674D02*
X1227205Y-7403150D01*
X1227205Y-7403150D02*
X1255777Y-7403150D01*
X1255777Y-7403150D02*
X1274825Y-7412674D01*
X1274825Y-7412674D02*
X1284348Y-7431722D01*
X1284348Y-7431722D02*
X1284348Y-7536484D01*
X1379586Y-7536484D02*
X1379586Y-7403150D01*
X1379586Y-7422198D02*
X1389110Y-7412674D01*
X1389110Y-7412674D02*
X1408158Y-7403150D01*
X1408158Y-7403150D02*
X1436729Y-7403150D01*
X1436729Y-7403150D02*
X1455777Y-7412674D01*
X1455777Y-7412674D02*
X1465301Y-7431722D01*
X1465301Y-7431722D02*
X1465301Y-7536484D01*
X1465301Y-7431722D02*
X1474824Y-7412674D01*
X1474824Y-7412674D02*
X1493872Y-7403150D01*
X1493872Y-7403150D02*
X1522443Y-7403150D01*
X1522443Y-7403150D02*
X1541491Y-7412674D01*
X1541491Y-7412674D02*
X1551015Y-7431722D01*
X1551015Y-7431722D02*
X1551015Y-7536484D01*
X1941491Y-7326960D02*
X1770063Y-7584103D01*
X2198634Y-7336484D02*
X2217682Y-7336484D01*
X2217682Y-7336484D02*
X2236729Y-7346008D01*
X2236729Y-7346008D02*
X2246253Y-7355531D01*
X2246253Y-7355531D02*
X2255777Y-7374579D01*
X2255777Y-7374579D02*
X2265301Y-7412674D01*
X2265301Y-7412674D02*
X2265301Y-7460293D01*
X2265301Y-7460293D02*
X2255777Y-7498388D01*
X2255777Y-7498388D02*
X2246253Y-7517436D01*
X2246253Y-7517436D02*
X2236729Y-7526960D01*
X2236729Y-7526960D02*
X2217682Y-7536484D01*
X2217682Y-7536484D02*
X2198634Y-7536484D01*
X2198634Y-7536484D02*
X2179587Y-7526960D01*
X2179587Y-7526960D02*
X2170063Y-7517436D01*
X2170063Y-7517436D02*
X2160539Y-7498388D01*
X2160539Y-7498388D02*
X2151015Y-7460293D01*
X2151015Y-7460293D02*
X2151015Y-7412674D01*
X2151015Y-7412674D02*
X2160539Y-7374579D01*
X2160539Y-7374579D02*
X2170063Y-7355531D01*
X2170063Y-7355531D02*
X2179587Y-7346008D01*
X2179587Y-7346008D02*
X2198634Y-7336484D01*
X2351015Y-7517436D02*
X2360539Y-7526960D01*
X2360539Y-7526960D02*
X2351015Y-7536484D01*
X2351015Y-7536484D02*
X2341491Y-7526960D01*
X2341491Y-7526960D02*
X2351015Y-7517436D01*
X2351015Y-7517436D02*
X2351015Y-7536484D01*
X2484348Y-7336484D02*
X2503396Y-7336484D01*
X2503396Y-7336484D02*
X2522444Y-7346008D01*
X2522444Y-7346008D02*
X2531968Y-7355531D01*
X2531968Y-7355531D02*
X2541491Y-7374579D01*
X2541491Y-7374579D02*
X2551015Y-7412674D01*
X2551015Y-7412674D02*
X2551015Y-7460293D01*
X2551015Y-7460293D02*
X2541491Y-7498388D01*
X2541491Y-7498388D02*
X2531968Y-7517436D01*
X2531968Y-7517436D02*
X2522444Y-7526960D01*
X2522444Y-7526960D02*
X2503396Y-7536484D01*
X2503396Y-7536484D02*
X2484348Y-7536484D01*
X2484348Y-7536484D02*
X2465301Y-7526960D01*
X2465301Y-7526960D02*
X2455777Y-7517436D01*
X2455777Y-7517436D02*
X2446253Y-7498388D01*
X2446253Y-7498388D02*
X2436729Y-7460293D01*
X2436729Y-7460293D02*
X2436729Y-7412674D01*
X2436729Y-7412674D02*
X2446253Y-7374579D01*
X2446253Y-7374579D02*
X2455777Y-7355531D01*
X2455777Y-7355531D02*
X2465301Y-7346008D01*
X2465301Y-7346008D02*
X2484348Y-7336484D01*
X2674825Y-7336484D02*
X2693872Y-7336484D01*
X2693872Y-7336484D02*
X2712920Y-7346008D01*
X2712920Y-7346008D02*
X2722444Y-7355531D01*
X2722444Y-7355531D02*
X2731968Y-7374579D01*
X2731968Y-7374579D02*
X2741491Y-7412674D01*
X2741491Y-7412674D02*
X2741491Y-7460293D01*
X2741491Y-7460293D02*
X2731968Y-7498388D01*
X2731968Y-7498388D02*
X2722444Y-7517436D01*
X2722444Y-7517436D02*
X2712920Y-7526960D01*
X2712920Y-7526960D02*
X2693872Y-7536484D01*
X2693872Y-7536484D02*
X2674825Y-7536484D01*
X2674825Y-7536484D02*
X2655777Y-7526960D01*
X2655777Y-7526960D02*
X2646253Y-7517436D01*
X2646253Y-7517436D02*
X2636729Y-7498388D01*
X2636729Y-7498388D02*
X2627206Y-7460293D01*
X2627206Y-7460293D02*
X2627206Y-7412674D01*
X2627206Y-7412674D02*
X2636729Y-7374579D01*
X2636729Y-7374579D02*
X2646253Y-7355531D01*
X2646253Y-7355531D02*
X2655777Y-7346008D01*
X2655777Y-7346008D02*
X2674825Y-7336484D01*
X2808158Y-7336484D02*
X2941491Y-7336484D01*
X2941491Y-7336484D02*
X2855777Y-7536484D01*
X3027206Y-7536484D02*
X3065301Y-7536484D01*
X3065301Y-7536484D02*
X3084348Y-7526960D01*
X3084348Y-7526960D02*
X3093872Y-7517436D01*
X3093872Y-7517436D02*
X3112920Y-7488865D01*
X3112920Y-7488865D02*
X3122444Y-7450769D01*
X3122444Y-7450769D02*
X3122444Y-7374579D01*
X3122444Y-7374579D02*
X3112920Y-7355531D01*
X3112920Y-7355531D02*
X3103396Y-7346008D01*
X3103396Y-7346008D02*
X3084348Y-7336484D01*
X3084348Y-7336484D02*
X3046253Y-7336484D01*
X3046253Y-7336484D02*
X3027206Y-7346008D01*
X3027206Y-7346008D02*
X3017682Y-7355531D01*
X3017682Y-7355531D02*
X3008158Y-7374579D01*
X3008158Y-7374579D02*
X3008158Y-7422198D01*
X3008158Y-7422198D02*
X3017682Y-7441246D01*
X3017682Y-7441246D02*
X3027206Y-7450769D01*
X3027206Y-7450769D02*
X3046253Y-7460293D01*
X3046253Y-7460293D02*
X3084348Y-7460293D01*
X3084348Y-7460293D02*
X3103396Y-7450769D01*
X3103396Y-7450769D02*
X3112920Y-7441246D01*
X3112920Y-7441246D02*
X3122444Y-7422198D01*
X3198634Y-7336484D02*
X3198634Y-7374579D01*
X3274825Y-7336484D02*
X3274825Y-7374579D01*
X3570063Y-7612674D02*
X3560539Y-7603150D01*
X3560539Y-7603150D02*
X3541491Y-7574579D01*
X3541491Y-7574579D02*
X3531968Y-7555531D01*
X3531968Y-7555531D02*
X3522444Y-7526960D01*
X3522444Y-7526960D02*
X3512920Y-7479341D01*
X3512920Y-7479341D02*
X3512920Y-7441246D01*
X3512920Y-7441246D02*
X3522444Y-7393627D01*
X3522444Y-7393627D02*
X3531968Y-7365055D01*
X3531968Y-7365055D02*
X3541491Y-7346008D01*
X3541491Y-7346008D02*
X3560539Y-7317436D01*
X3560539Y-7317436D02*
X3570063Y-7307912D01*
X3627206Y-7336484D02*
X3751015Y-7336484D01*
X3751015Y-7336484D02*
X3684348Y-7412674D01*
X3684348Y-7412674D02*
X3712920Y-7412674D01*
X3712920Y-7412674D02*
X3731968Y-7422198D01*
X3731968Y-7422198D02*
X3741491Y-7431722D01*
X3741491Y-7431722D02*
X3751015Y-7450769D01*
X3751015Y-7450769D02*
X3751015Y-7498388D01*
X3751015Y-7498388D02*
X3741491Y-7517436D01*
X3741491Y-7517436D02*
X3731968Y-7526960D01*
X3731968Y-7526960D02*
X3712920Y-7536484D01*
X3712920Y-7536484D02*
X3655777Y-7536484D01*
X3655777Y-7536484D02*
X3636729Y-7526960D01*
X3636729Y-7526960D02*
X3627206Y-7517436D01*
X3827206Y-7355531D02*
X3836729Y-7346008D01*
X3836729Y-7346008D02*
X3855777Y-7336484D01*
X3855777Y-7336484D02*
X3903396Y-7336484D01*
X3903396Y-7336484D02*
X3922444Y-7346008D01*
X3922444Y-7346008D02*
X3931968Y-7355531D01*
X3931968Y-7355531D02*
X3941491Y-7374579D01*
X3941491Y-7374579D02*
X3941491Y-7393627D01*
X3941491Y-7393627D02*
X3931968Y-7422198D01*
X3931968Y-7422198D02*
X3817682Y-7536484D01*
X3817682Y-7536484D02*
X3941491Y-7536484D01*
X4008158Y-7336484D02*
X4131968Y-7336484D01*
X4131968Y-7336484D02*
X4065301Y-7412674D01*
X4065301Y-7412674D02*
X4093872Y-7412674D01*
X4093872Y-7412674D02*
X4112920Y-7422198D01*
X4112920Y-7422198D02*
X4122444Y-7431722D01*
X4122444Y-7431722D02*
X4131968Y-7450769D01*
X4131968Y-7450769D02*
X4131968Y-7498388D01*
X4131968Y-7498388D02*
X4122444Y-7517436D01*
X4122444Y-7517436D02*
X4112920Y-7526960D01*
X4112920Y-7526960D02*
X4093872Y-7536484D01*
X4093872Y-7536484D02*
X4036729Y-7536484D01*
X4036729Y-7536484D02*
X4017682Y-7526960D01*
X4017682Y-7526960D02*
X4008158Y-7517436D01*
X4370063Y-7536484D02*
X4370063Y-7336484D01*
X4455777Y-7536484D02*
X4455777Y-7431722D01*
X4455777Y-7431722D02*
X4446253Y-7412674D01*
X4446253Y-7412674D02*
X4427206Y-7403150D01*
X4427206Y-7403150D02*
X4398634Y-7403150D01*
X4398634Y-7403150D02*
X4379587Y-7412674D01*
X4379587Y-7412674D02*
X4370063Y-7422198D01*
X4579587Y-7536484D02*
X4560539Y-7526960D01*
X4560539Y-7526960D02*
X4551015Y-7517436D01*
X4551015Y-7517436D02*
X4541492Y-7498388D01*
X4541492Y-7498388D02*
X4541492Y-7441246D01*
X4541492Y-7441246D02*
X4551015Y-7422198D01*
X4551015Y-7422198D02*
X4560539Y-7412674D01*
X4560539Y-7412674D02*
X4579587Y-7403150D01*
X4579587Y-7403150D02*
X4608158Y-7403150D01*
X4608158Y-7403150D02*
X4627206Y-7412674D01*
X4627206Y-7412674D02*
X4636730Y-7422198D01*
X4636730Y-7422198D02*
X4646253Y-7441246D01*
X4646253Y-7441246D02*
X4646253Y-7498388D01*
X4646253Y-7498388D02*
X4636730Y-7517436D01*
X4636730Y-7517436D02*
X4627206Y-7526960D01*
X4627206Y-7526960D02*
X4608158Y-7536484D01*
X4608158Y-7536484D02*
X4579587Y-7536484D01*
X4760539Y-7536484D02*
X4741492Y-7526960D01*
X4741492Y-7526960D02*
X4731968Y-7507912D01*
X4731968Y-7507912D02*
X4731968Y-7336484D01*
X4912920Y-7526960D02*
X4893873Y-7536484D01*
X4893873Y-7536484D02*
X4855777Y-7536484D01*
X4855777Y-7536484D02*
X4836730Y-7526960D01*
X4836730Y-7526960D02*
X4827206Y-7507912D01*
X4827206Y-7507912D02*
X4827206Y-7431722D01*
X4827206Y-7431722D02*
X4836730Y-7412674D01*
X4836730Y-7412674D02*
X4855777Y-7403150D01*
X4855777Y-7403150D02*
X4893873Y-7403150D01*
X4893873Y-7403150D02*
X4912920Y-7412674D01*
X4912920Y-7412674D02*
X4922444Y-7431722D01*
X4922444Y-7431722D02*
X4922444Y-7450769D01*
X4922444Y-7450769D02*
X4827206Y-7469817D01*
X4998634Y-7526960D02*
X5017682Y-7536484D01*
X5017682Y-7536484D02*
X5055777Y-7536484D01*
X5055777Y-7536484D02*
X5074825Y-7526960D01*
X5074825Y-7526960D02*
X5084349Y-7507912D01*
X5084349Y-7507912D02*
X5084349Y-7498388D01*
X5084349Y-7498388D02*
X5074825Y-7479341D01*
X5074825Y-7479341D02*
X5055777Y-7469817D01*
X5055777Y-7469817D02*
X5027206Y-7469817D01*
X5027206Y-7469817D02*
X5008158Y-7460293D01*
X5008158Y-7460293D02*
X4998634Y-7441246D01*
X4998634Y-7441246D02*
X4998634Y-7431722D01*
X4998634Y-7431722D02*
X5008158Y-7412674D01*
X5008158Y-7412674D02*
X5027206Y-7403150D01*
X5027206Y-7403150D02*
X5055777Y-7403150D01*
X5055777Y-7403150D02*
X5074825Y-7412674D01*
X5151015Y-7612674D02*
X5160539Y-7603150D01*
X5160539Y-7603150D02*
X5179587Y-7574579D01*
X5179587Y-7574579D02*
X5189111Y-7555531D01*
X5189111Y-7555531D02*
X5198634Y-7526960D01*
X5198634Y-7526960D02*
X5208158Y-7479341D01*
X5208158Y-7479341D02*
X5208158Y-7441246D01*
X5208158Y-7441246D02*
X5198634Y-7393627D01*
X5198634Y-7393627D02*
X5189111Y-7365055D01*
X5189111Y-7365055D02*
X5179587Y-7346008D01*
X5179587Y-7346008D02*
X5160539Y-7317436D01*
X5160539Y-7317436D02*
X5151015Y-7307912D01*
D10*
X-5000Y-7709000D02*
G75*
G02*
X-35000Y-7709000I-15000J0D01*
G01*
X-35000Y-7709000D02*
G75*
G02*
X-5000Y-7709000I15000J0D01*
G01*
D11*
X293872Y-7600484D02*
X312920Y-7600484D01*
X312920Y-7600484D02*
X331967Y-7610008D01*
X331967Y-7610008D02*
X341491Y-7619531D01*
X341491Y-7619531D02*
X351015Y-7638579D01*
X351015Y-7638579D02*
X360539Y-7676674D01*
X360539Y-7676674D02*
X360539Y-7724293D01*
X360539Y-7724293D02*
X351015Y-7762388D01*
X351015Y-7762388D02*
X341491Y-7781436D01*
X341491Y-7781436D02*
X331967Y-7790960D01*
X331967Y-7790960D02*
X312920Y-7800484D01*
X312920Y-7800484D02*
X293872Y-7800484D01*
X293872Y-7800484D02*
X274824Y-7790960D01*
X274824Y-7790960D02*
X265301Y-7781436D01*
X265301Y-7781436D02*
X255777Y-7762388D01*
X255777Y-7762388D02*
X246253Y-7724293D01*
X246253Y-7724293D02*
X246253Y-7676674D01*
X246253Y-7676674D02*
X255777Y-7638579D01*
X255777Y-7638579D02*
X265301Y-7619531D01*
X265301Y-7619531D02*
X274824Y-7610008D01*
X274824Y-7610008D02*
X293872Y-7600484D01*
X446253Y-7781436D02*
X455777Y-7790960D01*
X455777Y-7790960D02*
X446253Y-7800484D01*
X446253Y-7800484D02*
X436729Y-7790960D01*
X436729Y-7790960D02*
X446253Y-7781436D01*
X446253Y-7781436D02*
X446253Y-7800484D01*
X522443Y-7600484D02*
X646253Y-7600484D01*
X646253Y-7600484D02*
X579586Y-7676674D01*
X579586Y-7676674D02*
X608158Y-7676674D01*
X608158Y-7676674D02*
X627205Y-7686198D01*
X627205Y-7686198D02*
X636729Y-7695722D01*
X636729Y-7695722D02*
X646253Y-7714769D01*
X646253Y-7714769D02*
X646253Y-7762388D01*
X646253Y-7762388D02*
X636729Y-7781436D01*
X636729Y-7781436D02*
X627205Y-7790960D01*
X627205Y-7790960D02*
X608158Y-7800484D01*
X608158Y-7800484D02*
X551015Y-7800484D01*
X551015Y-7800484D02*
X531967Y-7790960D01*
X531967Y-7790960D02*
X522443Y-7781436D01*
X770062Y-7600484D02*
X789110Y-7600484D01*
X789110Y-7600484D02*
X808158Y-7610008D01*
X808158Y-7610008D02*
X817682Y-7619531D01*
X817682Y-7619531D02*
X827205Y-7638579D01*
X827205Y-7638579D02*
X836729Y-7676674D01*
X836729Y-7676674D02*
X836729Y-7724293D01*
X836729Y-7724293D02*
X827205Y-7762388D01*
X827205Y-7762388D02*
X817682Y-7781436D01*
X817682Y-7781436D02*
X808158Y-7790960D01*
X808158Y-7790960D02*
X789110Y-7800484D01*
X789110Y-7800484D02*
X770062Y-7800484D01*
X770062Y-7800484D02*
X751015Y-7790960D01*
X751015Y-7790960D02*
X741491Y-7781436D01*
X741491Y-7781436D02*
X731967Y-7762388D01*
X731967Y-7762388D02*
X722443Y-7724293D01*
X722443Y-7724293D02*
X722443Y-7676674D01*
X722443Y-7676674D02*
X731967Y-7638579D01*
X731967Y-7638579D02*
X741491Y-7619531D01*
X741491Y-7619531D02*
X751015Y-7610008D01*
X751015Y-7610008D02*
X770062Y-7600484D01*
X960539Y-7600484D02*
X979586Y-7600484D01*
X979586Y-7600484D02*
X998634Y-7610008D01*
X998634Y-7610008D02*
X1008158Y-7619531D01*
X1008158Y-7619531D02*
X1017682Y-7638579D01*
X1017682Y-7638579D02*
X1027205Y-7676674D01*
X1027205Y-7676674D02*
X1027205Y-7724293D01*
X1027205Y-7724293D02*
X1017682Y-7762388D01*
X1017682Y-7762388D02*
X1008158Y-7781436D01*
X1008158Y-7781436D02*
X998634Y-7790960D01*
X998634Y-7790960D02*
X979586Y-7800484D01*
X979586Y-7800484D02*
X960539Y-7800484D01*
X960539Y-7800484D02*
X941491Y-7790960D01*
X941491Y-7790960D02*
X931967Y-7781436D01*
X931967Y-7781436D02*
X922443Y-7762388D01*
X922443Y-7762388D02*
X912920Y-7724293D01*
X912920Y-7724293D02*
X912920Y-7676674D01*
X912920Y-7676674D02*
X922443Y-7638579D01*
X922443Y-7638579D02*
X931967Y-7619531D01*
X931967Y-7619531D02*
X941491Y-7610008D01*
X941491Y-7610008D02*
X960539Y-7600484D01*
X1112920Y-7800484D02*
X1112920Y-7667150D01*
X1112920Y-7686198D02*
X1122444Y-7676674D01*
X1122444Y-7676674D02*
X1141491Y-7667150D01*
X1141491Y-7667150D02*
X1170063Y-7667150D01*
X1170063Y-7667150D02*
X1189110Y-7676674D01*
X1189110Y-7676674D02*
X1198634Y-7695722D01*
X1198634Y-7695722D02*
X1198634Y-7800484D01*
X1198634Y-7695722D02*
X1208158Y-7676674D01*
X1208158Y-7676674D02*
X1227205Y-7667150D01*
X1227205Y-7667150D02*
X1255777Y-7667150D01*
X1255777Y-7667150D02*
X1274825Y-7676674D01*
X1274825Y-7676674D02*
X1284348Y-7695722D01*
X1284348Y-7695722D02*
X1284348Y-7800484D01*
X1379586Y-7800484D02*
X1379586Y-7667150D01*
X1379586Y-7686198D02*
X1389110Y-7676674D01*
X1389110Y-7676674D02*
X1408158Y-7667150D01*
X1408158Y-7667150D02*
X1436729Y-7667150D01*
X1436729Y-7667150D02*
X1455777Y-7676674D01*
X1455777Y-7676674D02*
X1465301Y-7695722D01*
X1465301Y-7695722D02*
X1465301Y-7800484D01*
X1465301Y-7695722D02*
X1474824Y-7676674D01*
X1474824Y-7676674D02*
X1493872Y-7667150D01*
X1493872Y-7667150D02*
X1522443Y-7667150D01*
X1522443Y-7667150D02*
X1541491Y-7676674D01*
X1541491Y-7676674D02*
X1551015Y-7695722D01*
X1551015Y-7695722D02*
X1551015Y-7800484D01*
X1941491Y-7590960D02*
X1770063Y-7848103D01*
X2198634Y-7600484D02*
X2217682Y-7600484D01*
X2217682Y-7600484D02*
X2236729Y-7610008D01*
X2236729Y-7610008D02*
X2246253Y-7619531D01*
X2246253Y-7619531D02*
X2255777Y-7638579D01*
X2255777Y-7638579D02*
X2265301Y-7676674D01*
X2265301Y-7676674D02*
X2265301Y-7724293D01*
X2265301Y-7724293D02*
X2255777Y-7762388D01*
X2255777Y-7762388D02*
X2246253Y-7781436D01*
X2246253Y-7781436D02*
X2236729Y-7790960D01*
X2236729Y-7790960D02*
X2217682Y-7800484D01*
X2217682Y-7800484D02*
X2198634Y-7800484D01*
X2198634Y-7800484D02*
X2179587Y-7790960D01*
X2179587Y-7790960D02*
X2170063Y-7781436D01*
X2170063Y-7781436D02*
X2160539Y-7762388D01*
X2160539Y-7762388D02*
X2151015Y-7724293D01*
X2151015Y-7724293D02*
X2151015Y-7676674D01*
X2151015Y-7676674D02*
X2160539Y-7638579D01*
X2160539Y-7638579D02*
X2170063Y-7619531D01*
X2170063Y-7619531D02*
X2179587Y-7610008D01*
X2179587Y-7610008D02*
X2198634Y-7600484D01*
X2351015Y-7781436D02*
X2360539Y-7790960D01*
X2360539Y-7790960D02*
X2351015Y-7800484D01*
X2351015Y-7800484D02*
X2341491Y-7790960D01*
X2341491Y-7790960D02*
X2351015Y-7781436D01*
X2351015Y-7781436D02*
X2351015Y-7800484D01*
X2484348Y-7600484D02*
X2503396Y-7600484D01*
X2503396Y-7600484D02*
X2522444Y-7610008D01*
X2522444Y-7610008D02*
X2531968Y-7619531D01*
X2531968Y-7619531D02*
X2541491Y-7638579D01*
X2541491Y-7638579D02*
X2551015Y-7676674D01*
X2551015Y-7676674D02*
X2551015Y-7724293D01*
X2551015Y-7724293D02*
X2541491Y-7762388D01*
X2541491Y-7762388D02*
X2531968Y-7781436D01*
X2531968Y-7781436D02*
X2522444Y-7790960D01*
X2522444Y-7790960D02*
X2503396Y-7800484D01*
X2503396Y-7800484D02*
X2484348Y-7800484D01*
X2484348Y-7800484D02*
X2465301Y-7790960D01*
X2465301Y-7790960D02*
X2455777Y-7781436D01*
X2455777Y-7781436D02*
X2446253Y-7762388D01*
X2446253Y-7762388D02*
X2436729Y-7724293D01*
X2436729Y-7724293D02*
X2436729Y-7676674D01*
X2436729Y-7676674D02*
X2446253Y-7638579D01*
X2446253Y-7638579D02*
X2455777Y-7619531D01*
X2455777Y-7619531D02*
X2465301Y-7610008D01*
X2465301Y-7610008D02*
X2484348Y-7600484D01*
X2741491Y-7800484D02*
X2627206Y-7800484D01*
X2684348Y-7800484D02*
X2684348Y-7600484D01*
X2684348Y-7600484D02*
X2665301Y-7629055D01*
X2665301Y-7629055D02*
X2646253Y-7648103D01*
X2646253Y-7648103D02*
X2627206Y-7657627D01*
X2931967Y-7800484D02*
X2817682Y-7800484D01*
X2874825Y-7800484D02*
X2874825Y-7600484D01*
X2874825Y-7600484D02*
X2855777Y-7629055D01*
X2855777Y-7629055D02*
X2836729Y-7648103D01*
X2836729Y-7648103D02*
X2817682Y-7657627D01*
X3046253Y-7686198D02*
X3027206Y-7676674D01*
X3027206Y-7676674D02*
X3017682Y-7667150D01*
X3017682Y-7667150D02*
X3008158Y-7648103D01*
X3008158Y-7648103D02*
X3008158Y-7638579D01*
X3008158Y-7638579D02*
X3017682Y-7619531D01*
X3017682Y-7619531D02*
X3027206Y-7610008D01*
X3027206Y-7610008D02*
X3046253Y-7600484D01*
X3046253Y-7600484D02*
X3084348Y-7600484D01*
X3084348Y-7600484D02*
X3103396Y-7610008D01*
X3103396Y-7610008D02*
X3112920Y-7619531D01*
X3112920Y-7619531D02*
X3122444Y-7638579D01*
X3122444Y-7638579D02*
X3122444Y-7648103D01*
X3122444Y-7648103D02*
X3112920Y-7667150D01*
X3112920Y-7667150D02*
X3103396Y-7676674D01*
X3103396Y-7676674D02*
X3084348Y-7686198D01*
X3084348Y-7686198D02*
X3046253Y-7686198D01*
X3046253Y-7686198D02*
X3027206Y-7695722D01*
X3027206Y-7695722D02*
X3017682Y-7705246D01*
X3017682Y-7705246D02*
X3008158Y-7724293D01*
X3008158Y-7724293D02*
X3008158Y-7762388D01*
X3008158Y-7762388D02*
X3017682Y-7781436D01*
X3017682Y-7781436D02*
X3027206Y-7790960D01*
X3027206Y-7790960D02*
X3046253Y-7800484D01*
X3046253Y-7800484D02*
X3084348Y-7800484D01*
X3084348Y-7800484D02*
X3103396Y-7790960D01*
X3103396Y-7790960D02*
X3112920Y-7781436D01*
X3112920Y-7781436D02*
X3122444Y-7762388D01*
X3122444Y-7762388D02*
X3122444Y-7724293D01*
X3122444Y-7724293D02*
X3112920Y-7705246D01*
X3112920Y-7705246D02*
X3103396Y-7695722D01*
X3103396Y-7695722D02*
X3084348Y-7686198D01*
X3198634Y-7600484D02*
X3198634Y-7638579D01*
X3274825Y-7600484D02*
X3274825Y-7638579D01*
X3570063Y-7876674D02*
X3560539Y-7867150D01*
X3560539Y-7867150D02*
X3541491Y-7838579D01*
X3541491Y-7838579D02*
X3531968Y-7819531D01*
X3531968Y-7819531D02*
X3522444Y-7790960D01*
X3522444Y-7790960D02*
X3512920Y-7743341D01*
X3512920Y-7743341D02*
X3512920Y-7705246D01*
X3512920Y-7705246D02*
X3522444Y-7657627D01*
X3522444Y-7657627D02*
X3531968Y-7629055D01*
X3531968Y-7629055D02*
X3541491Y-7610008D01*
X3541491Y-7610008D02*
X3560539Y-7581436D01*
X3560539Y-7581436D02*
X3570063Y-7571912D01*
X3751015Y-7800484D02*
X3636729Y-7800484D01*
X3693872Y-7800484D02*
X3693872Y-7600484D01*
X3693872Y-7600484D02*
X3674825Y-7629055D01*
X3674825Y-7629055D02*
X3655777Y-7648103D01*
X3655777Y-7648103D02*
X3636729Y-7657627D01*
X3922444Y-7667150D02*
X3922444Y-7800484D01*
X3874825Y-7590960D02*
X3827206Y-7733817D01*
X3827206Y-7733817D02*
X3951015Y-7733817D01*
X4112920Y-7600484D02*
X4074825Y-7600484D01*
X4074825Y-7600484D02*
X4055777Y-7610008D01*
X4055777Y-7610008D02*
X4046253Y-7619531D01*
X4046253Y-7619531D02*
X4027206Y-7648103D01*
X4027206Y-7648103D02*
X4017682Y-7686198D01*
X4017682Y-7686198D02*
X4017682Y-7762388D01*
X4017682Y-7762388D02*
X4027206Y-7781436D01*
X4027206Y-7781436D02*
X4036729Y-7790960D01*
X4036729Y-7790960D02*
X4055777Y-7800484D01*
X4055777Y-7800484D02*
X4093872Y-7800484D01*
X4093872Y-7800484D02*
X4112920Y-7790960D01*
X4112920Y-7790960D02*
X4122444Y-7781436D01*
X4122444Y-7781436D02*
X4131968Y-7762388D01*
X4131968Y-7762388D02*
X4131968Y-7714769D01*
X4131968Y-7714769D02*
X4122444Y-7695722D01*
X4122444Y-7695722D02*
X4112920Y-7686198D01*
X4112920Y-7686198D02*
X4093872Y-7676674D01*
X4093872Y-7676674D02*
X4055777Y-7676674D01*
X4055777Y-7676674D02*
X4036729Y-7686198D01*
X4036729Y-7686198D02*
X4027206Y-7695722D01*
X4027206Y-7695722D02*
X4017682Y-7714769D01*
X4370063Y-7800484D02*
X4370063Y-7600484D01*
X4455777Y-7800484D02*
X4455777Y-7695722D01*
X4455777Y-7695722D02*
X4446253Y-7676674D01*
X4446253Y-7676674D02*
X4427206Y-7667150D01*
X4427206Y-7667150D02*
X4398634Y-7667150D01*
X4398634Y-7667150D02*
X4379587Y-7676674D01*
X4379587Y-7676674D02*
X4370063Y-7686198D01*
X4579587Y-7800484D02*
X4560539Y-7790960D01*
X4560539Y-7790960D02*
X4551015Y-7781436D01*
X4551015Y-7781436D02*
X4541492Y-7762388D01*
X4541492Y-7762388D02*
X4541492Y-7705246D01*
X4541492Y-7705246D02*
X4551015Y-7686198D01*
X4551015Y-7686198D02*
X4560539Y-7676674D01*
X4560539Y-7676674D02*
X4579587Y-7667150D01*
X4579587Y-7667150D02*
X4608158Y-7667150D01*
X4608158Y-7667150D02*
X4627206Y-7676674D01*
X4627206Y-7676674D02*
X4636730Y-7686198D01*
X4636730Y-7686198D02*
X4646253Y-7705246D01*
X4646253Y-7705246D02*
X4646253Y-7762388D01*
X4646253Y-7762388D02*
X4636730Y-7781436D01*
X4636730Y-7781436D02*
X4627206Y-7790960D01*
X4627206Y-7790960D02*
X4608158Y-7800484D01*
X4608158Y-7800484D02*
X4579587Y-7800484D01*
X4760539Y-7800484D02*
X4741492Y-7790960D01*
X4741492Y-7790960D02*
X4731968Y-7771912D01*
X4731968Y-7771912D02*
X4731968Y-7600484D01*
X4912920Y-7790960D02*
X4893873Y-7800484D01*
X4893873Y-7800484D02*
X4855777Y-7800484D01*
X4855777Y-7800484D02*
X4836730Y-7790960D01*
X4836730Y-7790960D02*
X4827206Y-7771912D01*
X4827206Y-7771912D02*
X4827206Y-7695722D01*
X4827206Y-7695722D02*
X4836730Y-7676674D01*
X4836730Y-7676674D02*
X4855777Y-7667150D01*
X4855777Y-7667150D02*
X4893873Y-7667150D01*
X4893873Y-7667150D02*
X4912920Y-7676674D01*
X4912920Y-7676674D02*
X4922444Y-7695722D01*
X4922444Y-7695722D02*
X4922444Y-7714769D01*
X4922444Y-7714769D02*
X4827206Y-7733817D01*
X4998634Y-7790960D02*
X5017682Y-7800484D01*
X5017682Y-7800484D02*
X5055777Y-7800484D01*
X5055777Y-7800484D02*
X5074825Y-7790960D01*
X5074825Y-7790960D02*
X5084349Y-7771912D01*
X5084349Y-7771912D02*
X5084349Y-7762388D01*
X5084349Y-7762388D02*
X5074825Y-7743341D01*
X5074825Y-7743341D02*
X5055777Y-7733817D01*
X5055777Y-7733817D02*
X5027206Y-7733817D01*
X5027206Y-7733817D02*
X5008158Y-7724293D01*
X5008158Y-7724293D02*
X4998634Y-7705246D01*
X4998634Y-7705246D02*
X4998634Y-7695722D01*
X4998634Y-7695722D02*
X5008158Y-7676674D01*
X5008158Y-7676674D02*
X5027206Y-7667150D01*
X5027206Y-7667150D02*
X5055777Y-7667150D01*
X5055777Y-7667150D02*
X5074825Y-7676674D01*
X5151015Y-7876674D02*
X5160539Y-7867150D01*
X5160539Y-7867150D02*
X5179587Y-7838579D01*
X5179587Y-7838579D02*
X5189111Y-7819531D01*
X5189111Y-7819531D02*
X5198634Y-7790960D01*
X5198634Y-7790960D02*
X5208158Y-7743341D01*
X5208158Y-7743341D02*
X5208158Y-7705246D01*
X5208158Y-7705246D02*
X5198634Y-7657627D01*
X5198634Y-7657627D02*
X5189111Y-7629055D01*
X5189111Y-7629055D02*
X5179587Y-7610008D01*
X5179587Y-7610008D02*
X5160539Y-7581436D01*
X5160539Y-7581436D02*
X5151015Y-7571912D01*
D10*
X-25000Y-7953000D02*
X-25000Y-7993000D01*
X-45000Y-7973000D02*
X-5000Y-7973000D01*
D11*
X293872Y-7864484D02*
X312920Y-7864484D01*
X312920Y-7864484D02*
X331967Y-7874008D01*
X331967Y-7874008D02*
X341491Y-7883531D01*
X341491Y-7883531D02*
X351015Y-7902579D01*
X351015Y-7902579D02*
X360539Y-7940674D01*
X360539Y-7940674D02*
X360539Y-7988293D01*
X360539Y-7988293D02*
X351015Y-8026388D01*
X351015Y-8026388D02*
X341491Y-8045436D01*
X341491Y-8045436D02*
X331967Y-8054960D01*
X331967Y-8054960D02*
X312920Y-8064484D01*
X312920Y-8064484D02*
X293872Y-8064484D01*
X293872Y-8064484D02*
X274824Y-8054960D01*
X274824Y-8054960D02*
X265301Y-8045436D01*
X265301Y-8045436D02*
X255777Y-8026388D01*
X255777Y-8026388D02*
X246253Y-7988293D01*
X246253Y-7988293D02*
X246253Y-7940674D01*
X246253Y-7940674D02*
X255777Y-7902579D01*
X255777Y-7902579D02*
X265301Y-7883531D01*
X265301Y-7883531D02*
X274824Y-7874008D01*
X274824Y-7874008D02*
X293872Y-7864484D01*
X446253Y-8045436D02*
X455777Y-8054960D01*
X455777Y-8054960D02*
X446253Y-8064484D01*
X446253Y-8064484D02*
X436729Y-8054960D01*
X436729Y-8054960D02*
X446253Y-8045436D01*
X446253Y-8045436D02*
X446253Y-8064484D01*
X627205Y-7931150D02*
X627205Y-8064484D01*
X579586Y-7854960D02*
X531967Y-7997817D01*
X531967Y-7997817D02*
X655777Y-7997817D01*
X770062Y-7864484D02*
X789110Y-7864484D01*
X789110Y-7864484D02*
X808158Y-7874008D01*
X808158Y-7874008D02*
X817682Y-7883531D01*
X817682Y-7883531D02*
X827205Y-7902579D01*
X827205Y-7902579D02*
X836729Y-7940674D01*
X836729Y-7940674D02*
X836729Y-7988293D01*
X836729Y-7988293D02*
X827205Y-8026388D01*
X827205Y-8026388D02*
X817682Y-8045436D01*
X817682Y-8045436D02*
X808158Y-8054960D01*
X808158Y-8054960D02*
X789110Y-8064484D01*
X789110Y-8064484D02*
X770062Y-8064484D01*
X770062Y-8064484D02*
X751015Y-8054960D01*
X751015Y-8054960D02*
X741491Y-8045436D01*
X741491Y-8045436D02*
X731967Y-8026388D01*
X731967Y-8026388D02*
X722443Y-7988293D01*
X722443Y-7988293D02*
X722443Y-7940674D01*
X722443Y-7940674D02*
X731967Y-7902579D01*
X731967Y-7902579D02*
X741491Y-7883531D01*
X741491Y-7883531D02*
X751015Y-7874008D01*
X751015Y-7874008D02*
X770062Y-7864484D01*
X960539Y-7864484D02*
X979586Y-7864484D01*
X979586Y-7864484D02*
X998634Y-7874008D01*
X998634Y-7874008D02*
X1008158Y-7883531D01*
X1008158Y-7883531D02*
X1017682Y-7902579D01*
X1017682Y-7902579D02*
X1027205Y-7940674D01*
X1027205Y-7940674D02*
X1027205Y-7988293D01*
X1027205Y-7988293D02*
X1017682Y-8026388D01*
X1017682Y-8026388D02*
X1008158Y-8045436D01*
X1008158Y-8045436D02*
X998634Y-8054960D01*
X998634Y-8054960D02*
X979586Y-8064484D01*
X979586Y-8064484D02*
X960539Y-8064484D01*
X960539Y-8064484D02*
X941491Y-8054960D01*
X941491Y-8054960D02*
X931967Y-8045436D01*
X931967Y-8045436D02*
X922443Y-8026388D01*
X922443Y-8026388D02*
X912920Y-7988293D01*
X912920Y-7988293D02*
X912920Y-7940674D01*
X912920Y-7940674D02*
X922443Y-7902579D01*
X922443Y-7902579D02*
X931967Y-7883531D01*
X931967Y-7883531D02*
X941491Y-7874008D01*
X941491Y-7874008D02*
X960539Y-7864484D01*
X1112920Y-8064484D02*
X1112920Y-7931150D01*
X1112920Y-7950198D02*
X1122444Y-7940674D01*
X1122444Y-7940674D02*
X1141491Y-7931150D01*
X1141491Y-7931150D02*
X1170063Y-7931150D01*
X1170063Y-7931150D02*
X1189110Y-7940674D01*
X1189110Y-7940674D02*
X1198634Y-7959722D01*
X1198634Y-7959722D02*
X1198634Y-8064484D01*
X1198634Y-7959722D02*
X1208158Y-7940674D01*
X1208158Y-7940674D02*
X1227205Y-7931150D01*
X1227205Y-7931150D02*
X1255777Y-7931150D01*
X1255777Y-7931150D02*
X1274825Y-7940674D01*
X1274825Y-7940674D02*
X1284348Y-7959722D01*
X1284348Y-7959722D02*
X1284348Y-8064484D01*
X1379586Y-8064484D02*
X1379586Y-7931150D01*
X1379586Y-7950198D02*
X1389110Y-7940674D01*
X1389110Y-7940674D02*
X1408158Y-7931150D01*
X1408158Y-7931150D02*
X1436729Y-7931150D01*
X1436729Y-7931150D02*
X1455777Y-7940674D01*
X1455777Y-7940674D02*
X1465301Y-7959722D01*
X1465301Y-7959722D02*
X1465301Y-8064484D01*
X1465301Y-7959722D02*
X1474824Y-7940674D01*
X1474824Y-7940674D02*
X1493872Y-7931150D01*
X1493872Y-7931150D02*
X1522443Y-7931150D01*
X1522443Y-7931150D02*
X1541491Y-7940674D01*
X1541491Y-7940674D02*
X1551015Y-7959722D01*
X1551015Y-7959722D02*
X1551015Y-8064484D01*
X1941491Y-7854960D02*
X1770063Y-8112103D01*
X2198634Y-7864484D02*
X2217682Y-7864484D01*
X2217682Y-7864484D02*
X2236729Y-7874008D01*
X2236729Y-7874008D02*
X2246253Y-7883531D01*
X2246253Y-7883531D02*
X2255777Y-7902579D01*
X2255777Y-7902579D02*
X2265301Y-7940674D01*
X2265301Y-7940674D02*
X2265301Y-7988293D01*
X2265301Y-7988293D02*
X2255777Y-8026388D01*
X2255777Y-8026388D02*
X2246253Y-8045436D01*
X2246253Y-8045436D02*
X2236729Y-8054960D01*
X2236729Y-8054960D02*
X2217682Y-8064484D01*
X2217682Y-8064484D02*
X2198634Y-8064484D01*
X2198634Y-8064484D02*
X2179587Y-8054960D01*
X2179587Y-8054960D02*
X2170063Y-8045436D01*
X2170063Y-8045436D02*
X2160539Y-8026388D01*
X2160539Y-8026388D02*
X2151015Y-7988293D01*
X2151015Y-7988293D02*
X2151015Y-7940674D01*
X2151015Y-7940674D02*
X2160539Y-7902579D01*
X2160539Y-7902579D02*
X2170063Y-7883531D01*
X2170063Y-7883531D02*
X2179587Y-7874008D01*
X2179587Y-7874008D02*
X2198634Y-7864484D01*
X2351015Y-8045436D02*
X2360539Y-8054960D01*
X2360539Y-8054960D02*
X2351015Y-8064484D01*
X2351015Y-8064484D02*
X2341491Y-8054960D01*
X2341491Y-8054960D02*
X2351015Y-8045436D01*
X2351015Y-8045436D02*
X2351015Y-8064484D01*
X2484348Y-7864484D02*
X2503396Y-7864484D01*
X2503396Y-7864484D02*
X2522444Y-7874008D01*
X2522444Y-7874008D02*
X2531968Y-7883531D01*
X2531968Y-7883531D02*
X2541491Y-7902579D01*
X2541491Y-7902579D02*
X2551015Y-7940674D01*
X2551015Y-7940674D02*
X2551015Y-7988293D01*
X2551015Y-7988293D02*
X2541491Y-8026388D01*
X2541491Y-8026388D02*
X2531968Y-8045436D01*
X2531968Y-8045436D02*
X2522444Y-8054960D01*
X2522444Y-8054960D02*
X2503396Y-8064484D01*
X2503396Y-8064484D02*
X2484348Y-8064484D01*
X2484348Y-8064484D02*
X2465301Y-8054960D01*
X2465301Y-8054960D02*
X2455777Y-8045436D01*
X2455777Y-8045436D02*
X2446253Y-8026388D01*
X2446253Y-8026388D02*
X2436729Y-7988293D01*
X2436729Y-7988293D02*
X2436729Y-7940674D01*
X2436729Y-7940674D02*
X2446253Y-7902579D01*
X2446253Y-7902579D02*
X2455777Y-7883531D01*
X2455777Y-7883531D02*
X2465301Y-7874008D01*
X2465301Y-7874008D02*
X2484348Y-7864484D01*
X2741491Y-8064484D02*
X2627206Y-8064484D01*
X2684348Y-8064484D02*
X2684348Y-7864484D01*
X2684348Y-7864484D02*
X2665301Y-7893055D01*
X2665301Y-7893055D02*
X2646253Y-7912103D01*
X2646253Y-7912103D02*
X2627206Y-7921627D01*
X2922444Y-7864484D02*
X2827206Y-7864484D01*
X2827206Y-7864484D02*
X2817682Y-7959722D01*
X2817682Y-7959722D02*
X2827206Y-7950198D01*
X2827206Y-7950198D02*
X2846253Y-7940674D01*
X2846253Y-7940674D02*
X2893872Y-7940674D01*
X2893872Y-7940674D02*
X2912920Y-7950198D01*
X2912920Y-7950198D02*
X2922444Y-7959722D01*
X2922444Y-7959722D02*
X2931967Y-7978769D01*
X2931967Y-7978769D02*
X2931967Y-8026388D01*
X2931967Y-8026388D02*
X2922444Y-8045436D01*
X2922444Y-8045436D02*
X2912920Y-8054960D01*
X2912920Y-8054960D02*
X2893872Y-8064484D01*
X2893872Y-8064484D02*
X2846253Y-8064484D01*
X2846253Y-8064484D02*
X2827206Y-8054960D01*
X2827206Y-8054960D02*
X2817682Y-8045436D01*
X2998634Y-7864484D02*
X3131967Y-7864484D01*
X3131967Y-7864484D02*
X3046253Y-8064484D01*
X3198634Y-7864484D02*
X3198634Y-7902579D01*
X3274825Y-7864484D02*
X3274825Y-7902579D01*
X3570063Y-8140674D02*
X3560539Y-8131150D01*
X3560539Y-8131150D02*
X3541491Y-8102579D01*
X3541491Y-8102579D02*
X3531968Y-8083531D01*
X3531968Y-8083531D02*
X3522444Y-8054960D01*
X3522444Y-8054960D02*
X3512920Y-8007341D01*
X3512920Y-8007341D02*
X3512920Y-7969246D01*
X3512920Y-7969246D02*
X3522444Y-7921627D01*
X3522444Y-7921627D02*
X3531968Y-7893055D01*
X3531968Y-7893055D02*
X3541491Y-7874008D01*
X3541491Y-7874008D02*
X3560539Y-7845436D01*
X3560539Y-7845436D02*
X3570063Y-7835912D01*
X3627206Y-7864484D02*
X3751015Y-7864484D01*
X3751015Y-7864484D02*
X3684348Y-7940674D01*
X3684348Y-7940674D02*
X3712920Y-7940674D01*
X3712920Y-7940674D02*
X3731968Y-7950198D01*
X3731968Y-7950198D02*
X3741491Y-7959722D01*
X3741491Y-7959722D02*
X3751015Y-7978769D01*
X3751015Y-7978769D02*
X3751015Y-8026388D01*
X3751015Y-8026388D02*
X3741491Y-8045436D01*
X3741491Y-8045436D02*
X3731968Y-8054960D01*
X3731968Y-8054960D02*
X3712920Y-8064484D01*
X3712920Y-8064484D02*
X3655777Y-8064484D01*
X3655777Y-8064484D02*
X3636729Y-8054960D01*
X3636729Y-8054960D02*
X3627206Y-8045436D01*
X3827206Y-7883531D02*
X3836729Y-7874008D01*
X3836729Y-7874008D02*
X3855777Y-7864484D01*
X3855777Y-7864484D02*
X3903396Y-7864484D01*
X3903396Y-7864484D02*
X3922444Y-7874008D01*
X3922444Y-7874008D02*
X3931968Y-7883531D01*
X3931968Y-7883531D02*
X3941491Y-7902579D01*
X3941491Y-7902579D02*
X3941491Y-7921627D01*
X3941491Y-7921627D02*
X3931968Y-7950198D01*
X3931968Y-7950198D02*
X3817682Y-8064484D01*
X3817682Y-8064484D02*
X3941491Y-8064484D01*
X4179587Y-8064484D02*
X4179587Y-7864484D01*
X4265301Y-8064484D02*
X4265301Y-7959722D01*
X4265301Y-7959722D02*
X4255777Y-7940674D01*
X4255777Y-7940674D02*
X4236730Y-7931150D01*
X4236730Y-7931150D02*
X4208158Y-7931150D01*
X4208158Y-7931150D02*
X4189110Y-7940674D01*
X4189110Y-7940674D02*
X4179587Y-7950198D01*
X4389111Y-8064484D02*
X4370063Y-8054960D01*
X4370063Y-8054960D02*
X4360539Y-8045436D01*
X4360539Y-8045436D02*
X4351015Y-8026388D01*
X4351015Y-8026388D02*
X4351015Y-7969246D01*
X4351015Y-7969246D02*
X4360539Y-7950198D01*
X4360539Y-7950198D02*
X4370063Y-7940674D01*
X4370063Y-7940674D02*
X4389111Y-7931150D01*
X4389111Y-7931150D02*
X4417682Y-7931150D01*
X4417682Y-7931150D02*
X4436730Y-7940674D01*
X4436730Y-7940674D02*
X4446253Y-7950198D01*
X4446253Y-7950198D02*
X4455777Y-7969246D01*
X4455777Y-7969246D02*
X4455777Y-8026388D01*
X4455777Y-8026388D02*
X4446253Y-8045436D01*
X4446253Y-8045436D02*
X4436730Y-8054960D01*
X4436730Y-8054960D02*
X4417682Y-8064484D01*
X4417682Y-8064484D02*
X4389111Y-8064484D01*
X4570063Y-8064484D02*
X4551015Y-8054960D01*
X4551015Y-8054960D02*
X4541492Y-8035912D01*
X4541492Y-8035912D02*
X4541492Y-7864484D01*
X4722444Y-8054960D02*
X4703396Y-8064484D01*
X4703396Y-8064484D02*
X4665301Y-8064484D01*
X4665301Y-8064484D02*
X4646253Y-8054960D01*
X4646253Y-8054960D02*
X4636730Y-8035912D01*
X4636730Y-8035912D02*
X4636730Y-7959722D01*
X4636730Y-7959722D02*
X4646253Y-7940674D01*
X4646253Y-7940674D02*
X4665301Y-7931150D01*
X4665301Y-7931150D02*
X4703396Y-7931150D01*
X4703396Y-7931150D02*
X4722444Y-7940674D01*
X4722444Y-7940674D02*
X4731968Y-7959722D01*
X4731968Y-7959722D02*
X4731968Y-7978769D01*
X4731968Y-7978769D02*
X4636730Y-7997817D01*
X4808158Y-8054960D02*
X4827206Y-8064484D01*
X4827206Y-8064484D02*
X4865301Y-8064484D01*
X4865301Y-8064484D02*
X4884349Y-8054960D01*
X4884349Y-8054960D02*
X4893873Y-8035912D01*
X4893873Y-8035912D02*
X4893873Y-8026388D01*
X4893873Y-8026388D02*
X4884349Y-8007341D01*
X4884349Y-8007341D02*
X4865301Y-7997817D01*
X4865301Y-7997817D02*
X4836730Y-7997817D01*
X4836730Y-7997817D02*
X4817682Y-7988293D01*
X4817682Y-7988293D02*
X4808158Y-7969246D01*
X4808158Y-7969246D02*
X4808158Y-7959722D01*
X4808158Y-7959722D02*
X4817682Y-7940674D01*
X4817682Y-7940674D02*
X4836730Y-7931150D01*
X4836730Y-7931150D02*
X4865301Y-7931150D01*
X4865301Y-7931150D02*
X4884349Y-7940674D01*
X4960539Y-8140674D02*
X4970063Y-8131150D01*
X4970063Y-8131150D02*
X4989111Y-8102579D01*
X4989111Y-8102579D02*
X4998634Y-8083531D01*
X4998634Y-8083531D02*
X5008158Y-8054960D01*
X5008158Y-8054960D02*
X5017682Y-8007341D01*
X5017682Y-8007341D02*
X5017682Y-7969246D01*
X5017682Y-7969246D02*
X5008158Y-7921627D01*
X5008158Y-7921627D02*
X4998634Y-7893055D01*
X4998634Y-7893055D02*
X4989111Y-7874008D01*
X4989111Y-7874008D02*
X4970063Y-7845436D01*
X4970063Y-7845436D02*
X4960539Y-7835912D01*
D10*
X-18912Y-8270588D02*
X-18912Y-8203412D01*
X-86088Y-8203412D01*
X-86088Y-8270588D01*
X-18912Y-8270588D01*
D11*
X293872Y-8128484D02*
X312920Y-8128484D01*
X312920Y-8128484D02*
X331967Y-8138008D01*
X331967Y-8138008D02*
X341491Y-8147531D01*
X341491Y-8147531D02*
X351015Y-8166579D01*
X351015Y-8166579D02*
X360539Y-8204674D01*
X360539Y-8204674D02*
X360539Y-8252293D01*
X360539Y-8252293D02*
X351015Y-8290388D01*
X351015Y-8290388D02*
X341491Y-8309436D01*
X341491Y-8309436D02*
X331967Y-8318960D01*
X331967Y-8318960D02*
X312920Y-8328484D01*
X312920Y-8328484D02*
X293872Y-8328484D01*
X293872Y-8328484D02*
X274824Y-8318960D01*
X274824Y-8318960D02*
X265301Y-8309436D01*
X265301Y-8309436D02*
X255777Y-8290388D01*
X255777Y-8290388D02*
X246253Y-8252293D01*
X246253Y-8252293D02*
X246253Y-8204674D01*
X246253Y-8204674D02*
X255777Y-8166579D01*
X255777Y-8166579D02*
X265301Y-8147531D01*
X265301Y-8147531D02*
X274824Y-8138008D01*
X274824Y-8138008D02*
X293872Y-8128484D01*
X446253Y-8309436D02*
X455777Y-8318960D01*
X455777Y-8318960D02*
X446253Y-8328484D01*
X446253Y-8328484D02*
X436729Y-8318960D01*
X436729Y-8318960D02*
X446253Y-8309436D01*
X446253Y-8309436D02*
X446253Y-8328484D01*
X551015Y-8328484D02*
X589110Y-8328484D01*
X589110Y-8328484D02*
X608158Y-8318960D01*
X608158Y-8318960D02*
X617682Y-8309436D01*
X617682Y-8309436D02*
X636729Y-8280865D01*
X636729Y-8280865D02*
X646253Y-8242769D01*
X646253Y-8242769D02*
X646253Y-8166579D01*
X646253Y-8166579D02*
X636729Y-8147531D01*
X636729Y-8147531D02*
X627205Y-8138008D01*
X627205Y-8138008D02*
X608158Y-8128484D01*
X608158Y-8128484D02*
X570063Y-8128484D01*
X570063Y-8128484D02*
X551015Y-8138008D01*
X551015Y-8138008D02*
X541491Y-8147531D01*
X541491Y-8147531D02*
X531967Y-8166579D01*
X531967Y-8166579D02*
X531967Y-8214198D01*
X531967Y-8214198D02*
X541491Y-8233246D01*
X541491Y-8233246D02*
X551015Y-8242769D01*
X551015Y-8242769D02*
X570063Y-8252293D01*
X570063Y-8252293D02*
X608158Y-8252293D01*
X608158Y-8252293D02*
X627205Y-8242769D01*
X627205Y-8242769D02*
X636729Y-8233246D01*
X636729Y-8233246D02*
X646253Y-8214198D01*
X827205Y-8128484D02*
X731967Y-8128484D01*
X731967Y-8128484D02*
X722443Y-8223722D01*
X722443Y-8223722D02*
X731967Y-8214198D01*
X731967Y-8214198D02*
X751015Y-8204674D01*
X751015Y-8204674D02*
X798634Y-8204674D01*
X798634Y-8204674D02*
X817682Y-8214198D01*
X817682Y-8214198D02*
X827205Y-8223722D01*
X827205Y-8223722D02*
X836729Y-8242769D01*
X836729Y-8242769D02*
X836729Y-8290388D01*
X836729Y-8290388D02*
X827205Y-8309436D01*
X827205Y-8309436D02*
X817682Y-8318960D01*
X817682Y-8318960D02*
X798634Y-8328484D01*
X798634Y-8328484D02*
X751015Y-8328484D01*
X751015Y-8328484D02*
X731967Y-8318960D01*
X731967Y-8318960D02*
X722443Y-8309436D01*
X960539Y-8128484D02*
X979586Y-8128484D01*
X979586Y-8128484D02*
X998634Y-8138008D01*
X998634Y-8138008D02*
X1008158Y-8147531D01*
X1008158Y-8147531D02*
X1017682Y-8166579D01*
X1017682Y-8166579D02*
X1027205Y-8204674D01*
X1027205Y-8204674D02*
X1027205Y-8252293D01*
X1027205Y-8252293D02*
X1017682Y-8290388D01*
X1017682Y-8290388D02*
X1008158Y-8309436D01*
X1008158Y-8309436D02*
X998634Y-8318960D01*
X998634Y-8318960D02*
X979586Y-8328484D01*
X979586Y-8328484D02*
X960539Y-8328484D01*
X960539Y-8328484D02*
X941491Y-8318960D01*
X941491Y-8318960D02*
X931967Y-8309436D01*
X931967Y-8309436D02*
X922443Y-8290388D01*
X922443Y-8290388D02*
X912920Y-8252293D01*
X912920Y-8252293D02*
X912920Y-8204674D01*
X912920Y-8204674D02*
X922443Y-8166579D01*
X922443Y-8166579D02*
X931967Y-8147531D01*
X931967Y-8147531D02*
X941491Y-8138008D01*
X941491Y-8138008D02*
X960539Y-8128484D01*
X1112920Y-8328484D02*
X1112920Y-8195150D01*
X1112920Y-8214198D02*
X1122444Y-8204674D01*
X1122444Y-8204674D02*
X1141491Y-8195150D01*
X1141491Y-8195150D02*
X1170063Y-8195150D01*
X1170063Y-8195150D02*
X1189110Y-8204674D01*
X1189110Y-8204674D02*
X1198634Y-8223722D01*
X1198634Y-8223722D02*
X1198634Y-8328484D01*
X1198634Y-8223722D02*
X1208158Y-8204674D01*
X1208158Y-8204674D02*
X1227205Y-8195150D01*
X1227205Y-8195150D02*
X1255777Y-8195150D01*
X1255777Y-8195150D02*
X1274825Y-8204674D01*
X1274825Y-8204674D02*
X1284348Y-8223722D01*
X1284348Y-8223722D02*
X1284348Y-8328484D01*
X1379586Y-8328484D02*
X1379586Y-8195150D01*
X1379586Y-8214198D02*
X1389110Y-8204674D01*
X1389110Y-8204674D02*
X1408158Y-8195150D01*
X1408158Y-8195150D02*
X1436729Y-8195150D01*
X1436729Y-8195150D02*
X1455777Y-8204674D01*
X1455777Y-8204674D02*
X1465301Y-8223722D01*
X1465301Y-8223722D02*
X1465301Y-8328484D01*
X1465301Y-8223722D02*
X1474824Y-8204674D01*
X1474824Y-8204674D02*
X1493872Y-8195150D01*
X1493872Y-8195150D02*
X1522443Y-8195150D01*
X1522443Y-8195150D02*
X1541491Y-8204674D01*
X1541491Y-8204674D02*
X1551015Y-8223722D01*
X1551015Y-8223722D02*
X1551015Y-8328484D01*
X1941491Y-8118960D02*
X1770063Y-8376103D01*
X2198634Y-8128484D02*
X2217682Y-8128484D01*
X2217682Y-8128484D02*
X2236729Y-8138008D01*
X2236729Y-8138008D02*
X2246253Y-8147531D01*
X2246253Y-8147531D02*
X2255777Y-8166579D01*
X2255777Y-8166579D02*
X2265301Y-8204674D01*
X2265301Y-8204674D02*
X2265301Y-8252293D01*
X2265301Y-8252293D02*
X2255777Y-8290388D01*
X2255777Y-8290388D02*
X2246253Y-8309436D01*
X2246253Y-8309436D02*
X2236729Y-8318960D01*
X2236729Y-8318960D02*
X2217682Y-8328484D01*
X2217682Y-8328484D02*
X2198634Y-8328484D01*
X2198634Y-8328484D02*
X2179587Y-8318960D01*
X2179587Y-8318960D02*
X2170063Y-8309436D01*
X2170063Y-8309436D02*
X2160539Y-8290388D01*
X2160539Y-8290388D02*
X2151015Y-8252293D01*
X2151015Y-8252293D02*
X2151015Y-8204674D01*
X2151015Y-8204674D02*
X2160539Y-8166579D01*
X2160539Y-8166579D02*
X2170063Y-8147531D01*
X2170063Y-8147531D02*
X2179587Y-8138008D01*
X2179587Y-8138008D02*
X2198634Y-8128484D01*
X2351015Y-8309436D02*
X2360539Y-8318960D01*
X2360539Y-8318960D02*
X2351015Y-8328484D01*
X2351015Y-8328484D02*
X2341491Y-8318960D01*
X2341491Y-8318960D02*
X2351015Y-8309436D01*
X2351015Y-8309436D02*
X2351015Y-8328484D01*
X2484348Y-8128484D02*
X2503396Y-8128484D01*
X2503396Y-8128484D02*
X2522444Y-8138008D01*
X2522444Y-8138008D02*
X2531968Y-8147531D01*
X2531968Y-8147531D02*
X2541491Y-8166579D01*
X2541491Y-8166579D02*
X2551015Y-8204674D01*
X2551015Y-8204674D02*
X2551015Y-8252293D01*
X2551015Y-8252293D02*
X2541491Y-8290388D01*
X2541491Y-8290388D02*
X2531968Y-8309436D01*
X2531968Y-8309436D02*
X2522444Y-8318960D01*
X2522444Y-8318960D02*
X2503396Y-8328484D01*
X2503396Y-8328484D02*
X2484348Y-8328484D01*
X2484348Y-8328484D02*
X2465301Y-8318960D01*
X2465301Y-8318960D02*
X2455777Y-8309436D01*
X2455777Y-8309436D02*
X2446253Y-8290388D01*
X2446253Y-8290388D02*
X2436729Y-8252293D01*
X2436729Y-8252293D02*
X2436729Y-8204674D01*
X2436729Y-8204674D02*
X2446253Y-8166579D01*
X2446253Y-8166579D02*
X2455777Y-8147531D01*
X2455777Y-8147531D02*
X2465301Y-8138008D01*
X2465301Y-8138008D02*
X2484348Y-8128484D01*
X2617682Y-8128484D02*
X2741491Y-8128484D01*
X2741491Y-8128484D02*
X2674825Y-8204674D01*
X2674825Y-8204674D02*
X2703396Y-8204674D01*
X2703396Y-8204674D02*
X2722444Y-8214198D01*
X2722444Y-8214198D02*
X2731968Y-8223722D01*
X2731968Y-8223722D02*
X2741491Y-8242769D01*
X2741491Y-8242769D02*
X2741491Y-8290388D01*
X2741491Y-8290388D02*
X2731968Y-8309436D01*
X2731968Y-8309436D02*
X2722444Y-8318960D01*
X2722444Y-8318960D02*
X2703396Y-8328484D01*
X2703396Y-8328484D02*
X2646253Y-8328484D01*
X2646253Y-8328484D02*
X2627206Y-8318960D01*
X2627206Y-8318960D02*
X2617682Y-8309436D01*
X2808158Y-8128484D02*
X2941491Y-8128484D01*
X2941491Y-8128484D02*
X2855777Y-8328484D01*
X3103396Y-8195150D02*
X3103396Y-8328484D01*
X3055777Y-8118960D02*
X3008158Y-8261817D01*
X3008158Y-8261817D02*
X3131967Y-8261817D01*
X3198634Y-8128484D02*
X3198634Y-8166579D01*
X3274825Y-8128484D02*
X3274825Y-8166579D01*
X3570063Y-8404674D02*
X3560539Y-8395150D01*
X3560539Y-8395150D02*
X3541491Y-8366579D01*
X3541491Y-8366579D02*
X3531968Y-8347531D01*
X3531968Y-8347531D02*
X3522444Y-8318960D01*
X3522444Y-8318960D02*
X3512920Y-8271341D01*
X3512920Y-8271341D02*
X3512920Y-8233246D01*
X3512920Y-8233246D02*
X3522444Y-8185627D01*
X3522444Y-8185627D02*
X3531968Y-8157055D01*
X3531968Y-8157055D02*
X3541491Y-8138008D01*
X3541491Y-8138008D02*
X3560539Y-8109436D01*
X3560539Y-8109436D02*
X3570063Y-8099912D01*
X3627206Y-8128484D02*
X3751015Y-8128484D01*
X3751015Y-8128484D02*
X3684348Y-8204674D01*
X3684348Y-8204674D02*
X3712920Y-8204674D01*
X3712920Y-8204674D02*
X3731968Y-8214198D01*
X3731968Y-8214198D02*
X3741491Y-8223722D01*
X3741491Y-8223722D02*
X3751015Y-8242769D01*
X3751015Y-8242769D02*
X3751015Y-8290388D01*
X3751015Y-8290388D02*
X3741491Y-8309436D01*
X3741491Y-8309436D02*
X3731968Y-8318960D01*
X3731968Y-8318960D02*
X3712920Y-8328484D01*
X3712920Y-8328484D02*
X3655777Y-8328484D01*
X3655777Y-8328484D02*
X3636729Y-8318960D01*
X3636729Y-8318960D02*
X3627206Y-8309436D01*
X3989110Y-8328484D02*
X3989110Y-8128484D01*
X4074825Y-8328484D02*
X4074825Y-8223722D01*
X4074825Y-8223722D02*
X4065301Y-8204674D01*
X4065301Y-8204674D02*
X4046253Y-8195150D01*
X4046253Y-8195150D02*
X4017682Y-8195150D01*
X4017682Y-8195150D02*
X3998634Y-8204674D01*
X3998634Y-8204674D02*
X3989110Y-8214198D01*
X4198634Y-8328484D02*
X4179587Y-8318960D01*
X4179587Y-8318960D02*
X4170063Y-8309436D01*
X4170063Y-8309436D02*
X4160539Y-8290388D01*
X4160539Y-8290388D02*
X4160539Y-8233246D01*
X4160539Y-8233246D02*
X4170063Y-8214198D01*
X4170063Y-8214198D02*
X4179587Y-8204674D01*
X4179587Y-8204674D02*
X4198634Y-8195150D01*
X4198634Y-8195150D02*
X4227206Y-8195150D01*
X4227206Y-8195150D02*
X4246253Y-8204674D01*
X4246253Y-8204674D02*
X4255777Y-8214198D01*
X4255777Y-8214198D02*
X4265301Y-8233246D01*
X4265301Y-8233246D02*
X4265301Y-8290388D01*
X4265301Y-8290388D02*
X4255777Y-8309436D01*
X4255777Y-8309436D02*
X4246253Y-8318960D01*
X4246253Y-8318960D02*
X4227206Y-8328484D01*
X4227206Y-8328484D02*
X4198634Y-8328484D01*
X4379587Y-8328484D02*
X4360539Y-8318960D01*
X4360539Y-8318960D02*
X4351015Y-8299912D01*
X4351015Y-8299912D02*
X4351015Y-8128484D01*
X4531968Y-8318960D02*
X4512920Y-8328484D01*
X4512920Y-8328484D02*
X4474825Y-8328484D01*
X4474825Y-8328484D02*
X4455777Y-8318960D01*
X4455777Y-8318960D02*
X4446253Y-8299912D01*
X4446253Y-8299912D02*
X4446253Y-8223722D01*
X4446253Y-8223722D02*
X4455777Y-8204674D01*
X4455777Y-8204674D02*
X4474825Y-8195150D01*
X4474825Y-8195150D02*
X4512920Y-8195150D01*
X4512920Y-8195150D02*
X4531968Y-8204674D01*
X4531968Y-8204674D02*
X4541492Y-8223722D01*
X4541492Y-8223722D02*
X4541492Y-8242769D01*
X4541492Y-8242769D02*
X4446253Y-8261817D01*
X4617682Y-8318960D02*
X4636730Y-8328484D01*
X4636730Y-8328484D02*
X4674825Y-8328484D01*
X4674825Y-8328484D02*
X4693873Y-8318960D01*
X4693873Y-8318960D02*
X4703396Y-8299912D01*
X4703396Y-8299912D02*
X4703396Y-8290388D01*
X4703396Y-8290388D02*
X4693873Y-8271341D01*
X4693873Y-8271341D02*
X4674825Y-8261817D01*
X4674825Y-8261817D02*
X4646253Y-8261817D01*
X4646253Y-8261817D02*
X4627206Y-8252293D01*
X4627206Y-8252293D02*
X4617682Y-8233246D01*
X4617682Y-8233246D02*
X4617682Y-8223722D01*
X4617682Y-8223722D02*
X4627206Y-8204674D01*
X4627206Y-8204674D02*
X4646253Y-8195150D01*
X4646253Y-8195150D02*
X4674825Y-8195150D01*
X4674825Y-8195150D02*
X4693873Y-8204674D01*
X4770063Y-8404674D02*
X4779587Y-8395150D01*
X4779587Y-8395150D02*
X4798634Y-8366579D01*
X4798634Y-8366579D02*
X4808158Y-8347531D01*
X4808158Y-8347531D02*
X4817682Y-8318960D01*
X4817682Y-8318960D02*
X4827206Y-8271341D01*
X4827206Y-8271341D02*
X4827206Y-8233246D01*
X4827206Y-8233246D02*
X4817682Y-8185627D01*
X4817682Y-8185627D02*
X4808158Y-8157055D01*
X4808158Y-8157055D02*
X4798634Y-8138008D01*
X4798634Y-8138008D02*
X4779587Y-8109436D01*
X4779587Y-8109436D02*
X4770063Y-8099912D01*
D12*
X-56000Y-8552000D02*
X-5000Y-8501000D01*
X-56000Y-8450000D01*
X-107000Y-8501000D01*
X-56000Y-8552000D01*
D11*
X360539Y-8592484D02*
X246253Y-8592484D01*
X303396Y-8592484D02*
X303396Y-8392484D01*
X303396Y-8392484D02*
X284348Y-8421055D01*
X284348Y-8421055D02*
X265301Y-8440103D01*
X265301Y-8440103D02*
X246253Y-8449627D01*
X446253Y-8573436D02*
X455777Y-8582960D01*
X455777Y-8582960D02*
X446253Y-8592484D01*
X446253Y-8592484D02*
X436729Y-8582960D01*
X436729Y-8582960D02*
X446253Y-8573436D01*
X446253Y-8573436D02*
X446253Y-8592484D01*
X579586Y-8392484D02*
X598634Y-8392484D01*
X598634Y-8392484D02*
X617682Y-8402008D01*
X617682Y-8402008D02*
X627205Y-8411531D01*
X627205Y-8411531D02*
X636729Y-8430579D01*
X636729Y-8430579D02*
X646253Y-8468674D01*
X646253Y-8468674D02*
X646253Y-8516293D01*
X646253Y-8516293D02*
X636729Y-8554389D01*
X636729Y-8554389D02*
X627205Y-8573436D01*
X627205Y-8573436D02*
X617682Y-8582960D01*
X617682Y-8582960D02*
X598634Y-8592484D01*
X598634Y-8592484D02*
X579586Y-8592484D01*
X579586Y-8592484D02*
X560539Y-8582960D01*
X560539Y-8582960D02*
X551015Y-8573436D01*
X551015Y-8573436D02*
X541491Y-8554389D01*
X541491Y-8554389D02*
X531967Y-8516293D01*
X531967Y-8516293D02*
X531967Y-8468674D01*
X531967Y-8468674D02*
X541491Y-8430579D01*
X541491Y-8430579D02*
X551015Y-8411531D01*
X551015Y-8411531D02*
X560539Y-8402008D01*
X560539Y-8402008D02*
X579586Y-8392484D01*
X722443Y-8411531D02*
X731967Y-8402008D01*
X731967Y-8402008D02*
X751015Y-8392484D01*
X751015Y-8392484D02*
X798634Y-8392484D01*
X798634Y-8392484D02*
X817682Y-8402008D01*
X817682Y-8402008D02*
X827205Y-8411531D01*
X827205Y-8411531D02*
X836729Y-8430579D01*
X836729Y-8430579D02*
X836729Y-8449627D01*
X836729Y-8449627D02*
X827205Y-8478198D01*
X827205Y-8478198D02*
X712920Y-8592484D01*
X712920Y-8592484D02*
X836729Y-8592484D01*
X960539Y-8392484D02*
X979586Y-8392484D01*
X979586Y-8392484D02*
X998634Y-8402008D01*
X998634Y-8402008D02*
X1008158Y-8411531D01*
X1008158Y-8411531D02*
X1017682Y-8430579D01*
X1017682Y-8430579D02*
X1027205Y-8468674D01*
X1027205Y-8468674D02*
X1027205Y-8516293D01*
X1027205Y-8516293D02*
X1017682Y-8554389D01*
X1017682Y-8554389D02*
X1008158Y-8573436D01*
X1008158Y-8573436D02*
X998634Y-8582960D01*
X998634Y-8582960D02*
X979586Y-8592484D01*
X979586Y-8592484D02*
X960539Y-8592484D01*
X960539Y-8592484D02*
X941491Y-8582960D01*
X941491Y-8582960D02*
X931967Y-8573436D01*
X931967Y-8573436D02*
X922443Y-8554389D01*
X922443Y-8554389D02*
X912920Y-8516293D01*
X912920Y-8516293D02*
X912920Y-8468674D01*
X912920Y-8468674D02*
X922443Y-8430579D01*
X922443Y-8430579D02*
X931967Y-8411531D01*
X931967Y-8411531D02*
X941491Y-8402008D01*
X941491Y-8402008D02*
X960539Y-8392484D01*
X1112920Y-8592484D02*
X1112920Y-8459150D01*
X1112920Y-8478198D02*
X1122444Y-8468674D01*
X1122444Y-8468674D02*
X1141491Y-8459150D01*
X1141491Y-8459150D02*
X1170063Y-8459150D01*
X1170063Y-8459150D02*
X1189110Y-8468674D01*
X1189110Y-8468674D02*
X1198634Y-8487722D01*
X1198634Y-8487722D02*
X1198634Y-8592484D01*
X1198634Y-8487722D02*
X1208158Y-8468674D01*
X1208158Y-8468674D02*
X1227205Y-8459150D01*
X1227205Y-8459150D02*
X1255777Y-8459150D01*
X1255777Y-8459150D02*
X1274825Y-8468674D01*
X1274825Y-8468674D02*
X1284348Y-8487722D01*
X1284348Y-8487722D02*
X1284348Y-8592484D01*
X1379586Y-8592484D02*
X1379586Y-8459150D01*
X1379586Y-8478198D02*
X1389110Y-8468674D01*
X1389110Y-8468674D02*
X1408158Y-8459150D01*
X1408158Y-8459150D02*
X1436729Y-8459150D01*
X1436729Y-8459150D02*
X1455777Y-8468674D01*
X1455777Y-8468674D02*
X1465301Y-8487722D01*
X1465301Y-8487722D02*
X1465301Y-8592484D01*
X1465301Y-8487722D02*
X1474824Y-8468674D01*
X1474824Y-8468674D02*
X1493872Y-8459150D01*
X1493872Y-8459150D02*
X1522443Y-8459150D01*
X1522443Y-8459150D02*
X1541491Y-8468674D01*
X1541491Y-8468674D02*
X1551015Y-8487722D01*
X1551015Y-8487722D02*
X1551015Y-8592484D01*
X1941491Y-8382960D02*
X1770063Y-8640103D01*
X2198634Y-8392484D02*
X2217682Y-8392484D01*
X2217682Y-8392484D02*
X2236729Y-8402008D01*
X2236729Y-8402008D02*
X2246253Y-8411531D01*
X2246253Y-8411531D02*
X2255777Y-8430579D01*
X2255777Y-8430579D02*
X2265301Y-8468674D01*
X2265301Y-8468674D02*
X2265301Y-8516293D01*
X2265301Y-8516293D02*
X2255777Y-8554389D01*
X2255777Y-8554389D02*
X2246253Y-8573436D01*
X2246253Y-8573436D02*
X2236729Y-8582960D01*
X2236729Y-8582960D02*
X2217682Y-8592484D01*
X2217682Y-8592484D02*
X2198634Y-8592484D01*
X2198634Y-8592484D02*
X2179587Y-8582960D01*
X2179587Y-8582960D02*
X2170063Y-8573436D01*
X2170063Y-8573436D02*
X2160539Y-8554389D01*
X2160539Y-8554389D02*
X2151015Y-8516293D01*
X2151015Y-8516293D02*
X2151015Y-8468674D01*
X2151015Y-8468674D02*
X2160539Y-8430579D01*
X2160539Y-8430579D02*
X2170063Y-8411531D01*
X2170063Y-8411531D02*
X2179587Y-8402008D01*
X2179587Y-8402008D02*
X2198634Y-8392484D01*
X2351015Y-8573436D02*
X2360539Y-8582960D01*
X2360539Y-8582960D02*
X2351015Y-8592484D01*
X2351015Y-8592484D02*
X2341491Y-8582960D01*
X2341491Y-8582960D02*
X2351015Y-8573436D01*
X2351015Y-8573436D02*
X2351015Y-8592484D01*
X2484348Y-8392484D02*
X2503396Y-8392484D01*
X2503396Y-8392484D02*
X2522444Y-8402008D01*
X2522444Y-8402008D02*
X2531968Y-8411531D01*
X2531968Y-8411531D02*
X2541491Y-8430579D01*
X2541491Y-8430579D02*
X2551015Y-8468674D01*
X2551015Y-8468674D02*
X2551015Y-8516293D01*
X2551015Y-8516293D02*
X2541491Y-8554389D01*
X2541491Y-8554389D02*
X2531968Y-8573436D01*
X2531968Y-8573436D02*
X2522444Y-8582960D01*
X2522444Y-8582960D02*
X2503396Y-8592484D01*
X2503396Y-8592484D02*
X2484348Y-8592484D01*
X2484348Y-8592484D02*
X2465301Y-8582960D01*
X2465301Y-8582960D02*
X2455777Y-8573436D01*
X2455777Y-8573436D02*
X2446253Y-8554389D01*
X2446253Y-8554389D02*
X2436729Y-8516293D01*
X2436729Y-8516293D02*
X2436729Y-8468674D01*
X2436729Y-8468674D02*
X2446253Y-8430579D01*
X2446253Y-8430579D02*
X2455777Y-8411531D01*
X2455777Y-8411531D02*
X2465301Y-8402008D01*
X2465301Y-8402008D02*
X2484348Y-8392484D01*
X2722444Y-8459150D02*
X2722444Y-8592484D01*
X2674825Y-8382960D02*
X2627206Y-8525817D01*
X2627206Y-8525817D02*
X2751015Y-8525817D01*
X2865301Y-8392484D02*
X2884348Y-8392484D01*
X2884348Y-8392484D02*
X2903396Y-8402008D01*
X2903396Y-8402008D02*
X2912920Y-8411531D01*
X2912920Y-8411531D02*
X2922444Y-8430579D01*
X2922444Y-8430579D02*
X2931967Y-8468674D01*
X2931967Y-8468674D02*
X2931967Y-8516293D01*
X2931967Y-8516293D02*
X2922444Y-8554389D01*
X2922444Y-8554389D02*
X2912920Y-8573436D01*
X2912920Y-8573436D02*
X2903396Y-8582960D01*
X2903396Y-8582960D02*
X2884348Y-8592484D01*
X2884348Y-8592484D02*
X2865301Y-8592484D01*
X2865301Y-8592484D02*
X2846253Y-8582960D01*
X2846253Y-8582960D02*
X2836729Y-8573436D01*
X2836729Y-8573436D02*
X2827206Y-8554389D01*
X2827206Y-8554389D02*
X2817682Y-8516293D01*
X2817682Y-8516293D02*
X2817682Y-8468674D01*
X2817682Y-8468674D02*
X2827206Y-8430579D01*
X2827206Y-8430579D02*
X2836729Y-8411531D01*
X2836729Y-8411531D02*
X2846253Y-8402008D01*
X2846253Y-8402008D02*
X2865301Y-8392484D01*
X3008158Y-8411531D02*
X3017682Y-8402008D01*
X3017682Y-8402008D02*
X3036729Y-8392484D01*
X3036729Y-8392484D02*
X3084348Y-8392484D01*
X3084348Y-8392484D02*
X3103396Y-8402008D01*
X3103396Y-8402008D02*
X3112920Y-8411531D01*
X3112920Y-8411531D02*
X3122444Y-8430579D01*
X3122444Y-8430579D02*
X3122444Y-8449627D01*
X3122444Y-8449627D02*
X3112920Y-8478198D01*
X3112920Y-8478198D02*
X2998634Y-8592484D01*
X2998634Y-8592484D02*
X3122444Y-8592484D01*
X3198634Y-8392484D02*
X3198634Y-8430579D01*
X3274825Y-8392484D02*
X3274825Y-8430579D01*
X3570063Y-8668674D02*
X3560539Y-8659150D01*
X3560539Y-8659150D02*
X3541491Y-8630579D01*
X3541491Y-8630579D02*
X3531968Y-8611531D01*
X3531968Y-8611531D02*
X3522444Y-8582960D01*
X3522444Y-8582960D02*
X3512920Y-8535341D01*
X3512920Y-8535341D02*
X3512920Y-8497246D01*
X3512920Y-8497246D02*
X3522444Y-8449627D01*
X3522444Y-8449627D02*
X3531968Y-8421055D01*
X3531968Y-8421055D02*
X3541491Y-8402008D01*
X3541491Y-8402008D02*
X3560539Y-8373436D01*
X3560539Y-8373436D02*
X3570063Y-8363912D01*
X3751015Y-8592484D02*
X3636729Y-8592484D01*
X3693872Y-8592484D02*
X3693872Y-8392484D01*
X3693872Y-8392484D02*
X3674825Y-8421055D01*
X3674825Y-8421055D02*
X3655777Y-8440103D01*
X3655777Y-8440103D02*
X3636729Y-8449627D01*
X3827206Y-8411531D02*
X3836729Y-8402008D01*
X3836729Y-8402008D02*
X3855777Y-8392484D01*
X3855777Y-8392484D02*
X3903396Y-8392484D01*
X3903396Y-8392484D02*
X3922444Y-8402008D01*
X3922444Y-8402008D02*
X3931968Y-8411531D01*
X3931968Y-8411531D02*
X3941491Y-8430579D01*
X3941491Y-8430579D02*
X3941491Y-8449627D01*
X3941491Y-8449627D02*
X3931968Y-8478198D01*
X3931968Y-8478198D02*
X3817682Y-8592484D01*
X3817682Y-8592484D02*
X3941491Y-8592484D01*
X4179587Y-8592484D02*
X4179587Y-8392484D01*
X4265301Y-8592484D02*
X4265301Y-8487722D01*
X4265301Y-8487722D02*
X4255777Y-8468674D01*
X4255777Y-8468674D02*
X4236730Y-8459150D01*
X4236730Y-8459150D02*
X4208158Y-8459150D01*
X4208158Y-8459150D02*
X4189110Y-8468674D01*
X4189110Y-8468674D02*
X4179587Y-8478198D01*
X4389111Y-8592484D02*
X4370063Y-8582960D01*
X4370063Y-8582960D02*
X4360539Y-8573436D01*
X4360539Y-8573436D02*
X4351015Y-8554389D01*
X4351015Y-8554389D02*
X4351015Y-8497246D01*
X4351015Y-8497246D02*
X4360539Y-8478198D01*
X4360539Y-8478198D02*
X4370063Y-8468674D01*
X4370063Y-8468674D02*
X4389111Y-8459150D01*
X4389111Y-8459150D02*
X4417682Y-8459150D01*
X4417682Y-8459150D02*
X4436730Y-8468674D01*
X4436730Y-8468674D02*
X4446253Y-8478198D01*
X4446253Y-8478198D02*
X4455777Y-8497246D01*
X4455777Y-8497246D02*
X4455777Y-8554389D01*
X4455777Y-8554389D02*
X4446253Y-8573436D01*
X4446253Y-8573436D02*
X4436730Y-8582960D01*
X4436730Y-8582960D02*
X4417682Y-8592484D01*
X4417682Y-8592484D02*
X4389111Y-8592484D01*
X4570063Y-8592484D02*
X4551015Y-8582960D01*
X4551015Y-8582960D02*
X4541492Y-8563912D01*
X4541492Y-8563912D02*
X4541492Y-8392484D01*
X4722444Y-8582960D02*
X4703396Y-8592484D01*
X4703396Y-8592484D02*
X4665301Y-8592484D01*
X4665301Y-8592484D02*
X4646253Y-8582960D01*
X4646253Y-8582960D02*
X4636730Y-8563912D01*
X4636730Y-8563912D02*
X4636730Y-8487722D01*
X4636730Y-8487722D02*
X4646253Y-8468674D01*
X4646253Y-8468674D02*
X4665301Y-8459150D01*
X4665301Y-8459150D02*
X4703396Y-8459150D01*
X4703396Y-8459150D02*
X4722444Y-8468674D01*
X4722444Y-8468674D02*
X4731968Y-8487722D01*
X4731968Y-8487722D02*
X4731968Y-8506770D01*
X4731968Y-8506770D02*
X4636730Y-8525817D01*
X4808158Y-8582960D02*
X4827206Y-8592484D01*
X4827206Y-8592484D02*
X4865301Y-8592484D01*
X4865301Y-8592484D02*
X4884349Y-8582960D01*
X4884349Y-8582960D02*
X4893873Y-8563912D01*
X4893873Y-8563912D02*
X4893873Y-8554389D01*
X4893873Y-8554389D02*
X4884349Y-8535341D01*
X4884349Y-8535341D02*
X4865301Y-8525817D01*
X4865301Y-8525817D02*
X4836730Y-8525817D01*
X4836730Y-8525817D02*
X4817682Y-8516293D01*
X4817682Y-8516293D02*
X4808158Y-8497246D01*
X4808158Y-8497246D02*
X4808158Y-8487722D01*
X4808158Y-8487722D02*
X4817682Y-8468674D01*
X4817682Y-8468674D02*
X4836730Y-8459150D01*
X4836730Y-8459150D02*
X4865301Y-8459150D01*
X4865301Y-8459150D02*
X4884349Y-8468674D01*
X4960539Y-8668674D02*
X4970063Y-8659150D01*
X4970063Y-8659150D02*
X4989111Y-8630579D01*
X4989111Y-8630579D02*
X4998634Y-8611531D01*
X4998634Y-8611531D02*
X5008158Y-8582960D01*
X5008158Y-8582960D02*
X5017682Y-8535341D01*
X5017682Y-8535341D02*
X5017682Y-8497246D01*
X5017682Y-8497246D02*
X5008158Y-8449627D01*
X5008158Y-8449627D02*
X4998634Y-8421055D01*
X4998634Y-8421055D02*
X4989111Y-8402008D01*
X4989111Y-8402008D02*
X4970063Y-8373436D01*
X4970063Y-8373436D02*
X4960539Y-8363912D01*
X-205000Y-8665000D02*
X-5000Y-8865000D01*
X-5000Y-8665000D02*
X-205000Y-8865000D01*
X-5000Y-8765000D02*
G75*
G02*
X-205000Y-8765000I-100000J0D01*
G01*
X-205000Y-8765000D02*
G75*
G02*
X-5000Y-8765000I100000J0D01*
G01*
X236729Y-8656484D02*
X360539Y-8656484D01*
X360539Y-8656484D02*
X293872Y-8732674D01*
X293872Y-8732674D02*
X322444Y-8732674D01*
X322444Y-8732674D02*
X341491Y-8742198D01*
X341491Y-8742198D02*
X351015Y-8751722D01*
X351015Y-8751722D02*
X360539Y-8770770D01*
X360539Y-8770770D02*
X360539Y-8818389D01*
X360539Y-8818389D02*
X351015Y-8837436D01*
X351015Y-8837436D02*
X341491Y-8846960D01*
X341491Y-8846960D02*
X322444Y-8856484D01*
X322444Y-8856484D02*
X265301Y-8856484D01*
X265301Y-8856484D02*
X246253Y-8846960D01*
X246253Y-8846960D02*
X236729Y-8837436D01*
X446253Y-8837436D02*
X455777Y-8846960D01*
X455777Y-8846960D02*
X446253Y-8856484D01*
X446253Y-8856484D02*
X436729Y-8846960D01*
X436729Y-8846960D02*
X446253Y-8837436D01*
X446253Y-8837436D02*
X446253Y-8856484D01*
X531967Y-8675531D02*
X541491Y-8666008D01*
X541491Y-8666008D02*
X560539Y-8656484D01*
X560539Y-8656484D02*
X608158Y-8656484D01*
X608158Y-8656484D02*
X627205Y-8666008D01*
X627205Y-8666008D02*
X636729Y-8675531D01*
X636729Y-8675531D02*
X646253Y-8694579D01*
X646253Y-8694579D02*
X646253Y-8713627D01*
X646253Y-8713627D02*
X636729Y-8742198D01*
X636729Y-8742198D02*
X522443Y-8856484D01*
X522443Y-8856484D02*
X646253Y-8856484D01*
X770062Y-8656484D02*
X789110Y-8656484D01*
X789110Y-8656484D02*
X808158Y-8666008D01*
X808158Y-8666008D02*
X817682Y-8675531D01*
X817682Y-8675531D02*
X827205Y-8694579D01*
X827205Y-8694579D02*
X836729Y-8732674D01*
X836729Y-8732674D02*
X836729Y-8780293D01*
X836729Y-8780293D02*
X827205Y-8818389D01*
X827205Y-8818389D02*
X817682Y-8837436D01*
X817682Y-8837436D02*
X808158Y-8846960D01*
X808158Y-8846960D02*
X789110Y-8856484D01*
X789110Y-8856484D02*
X770062Y-8856484D01*
X770062Y-8856484D02*
X751015Y-8846960D01*
X751015Y-8846960D02*
X741491Y-8837436D01*
X741491Y-8837436D02*
X731967Y-8818389D01*
X731967Y-8818389D02*
X722443Y-8780293D01*
X722443Y-8780293D02*
X722443Y-8732674D01*
X722443Y-8732674D02*
X731967Y-8694579D01*
X731967Y-8694579D02*
X741491Y-8675531D01*
X741491Y-8675531D02*
X751015Y-8666008D01*
X751015Y-8666008D02*
X770062Y-8656484D01*
X960539Y-8656484D02*
X979586Y-8656484D01*
X979586Y-8656484D02*
X998634Y-8666008D01*
X998634Y-8666008D02*
X1008158Y-8675531D01*
X1008158Y-8675531D02*
X1017682Y-8694579D01*
X1017682Y-8694579D02*
X1027205Y-8732674D01*
X1027205Y-8732674D02*
X1027205Y-8780293D01*
X1027205Y-8780293D02*
X1017682Y-8818389D01*
X1017682Y-8818389D02*
X1008158Y-8837436D01*
X1008158Y-8837436D02*
X998634Y-8846960D01*
X998634Y-8846960D02*
X979586Y-8856484D01*
X979586Y-8856484D02*
X960539Y-8856484D01*
X960539Y-8856484D02*
X941491Y-8846960D01*
X941491Y-8846960D02*
X931967Y-8837436D01*
X931967Y-8837436D02*
X922443Y-8818389D01*
X922443Y-8818389D02*
X912920Y-8780293D01*
X912920Y-8780293D02*
X912920Y-8732674D01*
X912920Y-8732674D02*
X922443Y-8694579D01*
X922443Y-8694579D02*
X931967Y-8675531D01*
X931967Y-8675531D02*
X941491Y-8666008D01*
X941491Y-8666008D02*
X960539Y-8656484D01*
X1112920Y-8856484D02*
X1112920Y-8723150D01*
X1112920Y-8742198D02*
X1122444Y-8732674D01*
X1122444Y-8732674D02*
X1141491Y-8723150D01*
X1141491Y-8723150D02*
X1170063Y-8723150D01*
X1170063Y-8723150D02*
X1189110Y-8732674D01*
X1189110Y-8732674D02*
X1198634Y-8751722D01*
X1198634Y-8751722D02*
X1198634Y-8856484D01*
X1198634Y-8751722D02*
X1208158Y-8732674D01*
X1208158Y-8732674D02*
X1227205Y-8723150D01*
X1227205Y-8723150D02*
X1255777Y-8723150D01*
X1255777Y-8723150D02*
X1274825Y-8732674D01*
X1274825Y-8732674D02*
X1284348Y-8751722D01*
X1284348Y-8751722D02*
X1284348Y-8856484D01*
X1379586Y-8856484D02*
X1379586Y-8723150D01*
X1379586Y-8742198D02*
X1389110Y-8732674D01*
X1389110Y-8732674D02*
X1408158Y-8723150D01*
X1408158Y-8723150D02*
X1436729Y-8723150D01*
X1436729Y-8723150D02*
X1455777Y-8732674D01*
X1455777Y-8732674D02*
X1465301Y-8751722D01*
X1465301Y-8751722D02*
X1465301Y-8856484D01*
X1465301Y-8751722D02*
X1474824Y-8732674D01*
X1474824Y-8732674D02*
X1493872Y-8723150D01*
X1493872Y-8723150D02*
X1522443Y-8723150D01*
X1522443Y-8723150D02*
X1541491Y-8732674D01*
X1541491Y-8732674D02*
X1551015Y-8751722D01*
X1551015Y-8751722D02*
X1551015Y-8856484D01*
X1941491Y-8646960D02*
X1770063Y-8904103D01*
X2198634Y-8656484D02*
X2217682Y-8656484D01*
X2217682Y-8656484D02*
X2236729Y-8666008D01*
X2236729Y-8666008D02*
X2246253Y-8675531D01*
X2246253Y-8675531D02*
X2255777Y-8694579D01*
X2255777Y-8694579D02*
X2265301Y-8732674D01*
X2265301Y-8732674D02*
X2265301Y-8780293D01*
X2265301Y-8780293D02*
X2255777Y-8818389D01*
X2255777Y-8818389D02*
X2246253Y-8837436D01*
X2246253Y-8837436D02*
X2236729Y-8846960D01*
X2236729Y-8846960D02*
X2217682Y-8856484D01*
X2217682Y-8856484D02*
X2198634Y-8856484D01*
X2198634Y-8856484D02*
X2179587Y-8846960D01*
X2179587Y-8846960D02*
X2170063Y-8837436D01*
X2170063Y-8837436D02*
X2160539Y-8818389D01*
X2160539Y-8818389D02*
X2151015Y-8780293D01*
X2151015Y-8780293D02*
X2151015Y-8732674D01*
X2151015Y-8732674D02*
X2160539Y-8694579D01*
X2160539Y-8694579D02*
X2170063Y-8675531D01*
X2170063Y-8675531D02*
X2179587Y-8666008D01*
X2179587Y-8666008D02*
X2198634Y-8656484D01*
X2351015Y-8837436D02*
X2360539Y-8846960D01*
X2360539Y-8846960D02*
X2351015Y-8856484D01*
X2351015Y-8856484D02*
X2341491Y-8846960D01*
X2341491Y-8846960D02*
X2351015Y-8837436D01*
X2351015Y-8837436D02*
X2351015Y-8856484D01*
X2551015Y-8856484D02*
X2436729Y-8856484D01*
X2493872Y-8856484D02*
X2493872Y-8656484D01*
X2493872Y-8656484D02*
X2474825Y-8685055D01*
X2474825Y-8685055D02*
X2455777Y-8704103D01*
X2455777Y-8704103D02*
X2436729Y-8713627D01*
X2627206Y-8675531D02*
X2636729Y-8666008D01*
X2636729Y-8666008D02*
X2655777Y-8656484D01*
X2655777Y-8656484D02*
X2703396Y-8656484D01*
X2703396Y-8656484D02*
X2722444Y-8666008D01*
X2722444Y-8666008D02*
X2731968Y-8675531D01*
X2731968Y-8675531D02*
X2741491Y-8694579D01*
X2741491Y-8694579D02*
X2741491Y-8713627D01*
X2741491Y-8713627D02*
X2731968Y-8742198D01*
X2731968Y-8742198D02*
X2617682Y-8856484D01*
X2617682Y-8856484D02*
X2741491Y-8856484D01*
X2912920Y-8656484D02*
X2874825Y-8656484D01*
X2874825Y-8656484D02*
X2855777Y-8666008D01*
X2855777Y-8666008D02*
X2846253Y-8675531D01*
X2846253Y-8675531D02*
X2827206Y-8704103D01*
X2827206Y-8704103D02*
X2817682Y-8742198D01*
X2817682Y-8742198D02*
X2817682Y-8818389D01*
X2817682Y-8818389D02*
X2827206Y-8837436D01*
X2827206Y-8837436D02*
X2836729Y-8846960D01*
X2836729Y-8846960D02*
X2855777Y-8856484D01*
X2855777Y-8856484D02*
X2893872Y-8856484D01*
X2893872Y-8856484D02*
X2912920Y-8846960D01*
X2912920Y-8846960D02*
X2922444Y-8837436D01*
X2922444Y-8837436D02*
X2931967Y-8818389D01*
X2931967Y-8818389D02*
X2931967Y-8770770D01*
X2931967Y-8770770D02*
X2922444Y-8751722D01*
X2922444Y-8751722D02*
X2912920Y-8742198D01*
X2912920Y-8742198D02*
X2893872Y-8732674D01*
X2893872Y-8732674D02*
X2855777Y-8732674D01*
X2855777Y-8732674D02*
X2836729Y-8742198D01*
X2836729Y-8742198D02*
X2827206Y-8751722D01*
X2827206Y-8751722D02*
X2817682Y-8770770D01*
X3055777Y-8656484D02*
X3074825Y-8656484D01*
X3074825Y-8656484D02*
X3093872Y-8666008D01*
X3093872Y-8666008D02*
X3103396Y-8675531D01*
X3103396Y-8675531D02*
X3112920Y-8694579D01*
X3112920Y-8694579D02*
X3122444Y-8732674D01*
X3122444Y-8732674D02*
X3122444Y-8780293D01*
X3122444Y-8780293D02*
X3112920Y-8818389D01*
X3112920Y-8818389D02*
X3103396Y-8837436D01*
X3103396Y-8837436D02*
X3093872Y-8846960D01*
X3093872Y-8846960D02*
X3074825Y-8856484D01*
X3074825Y-8856484D02*
X3055777Y-8856484D01*
X3055777Y-8856484D02*
X3036729Y-8846960D01*
X3036729Y-8846960D02*
X3027206Y-8837436D01*
X3027206Y-8837436D02*
X3017682Y-8818389D01*
X3017682Y-8818389D02*
X3008158Y-8780293D01*
X3008158Y-8780293D02*
X3008158Y-8732674D01*
X3008158Y-8732674D02*
X3017682Y-8694579D01*
X3017682Y-8694579D02*
X3027206Y-8675531D01*
X3027206Y-8675531D02*
X3036729Y-8666008D01*
X3036729Y-8666008D02*
X3055777Y-8656484D01*
X3198634Y-8656484D02*
X3198634Y-8694579D01*
X3274825Y-8656484D02*
X3274825Y-8694579D01*
X3570063Y-8932674D02*
X3560539Y-8923150D01*
X3560539Y-8923150D02*
X3541491Y-8894579D01*
X3541491Y-8894579D02*
X3531968Y-8875531D01*
X3531968Y-8875531D02*
X3522444Y-8846960D01*
X3522444Y-8846960D02*
X3512920Y-8799341D01*
X3512920Y-8799341D02*
X3512920Y-8761246D01*
X3512920Y-8761246D02*
X3522444Y-8713627D01*
X3522444Y-8713627D02*
X3531968Y-8685055D01*
X3531968Y-8685055D02*
X3541491Y-8666008D01*
X3541491Y-8666008D02*
X3560539Y-8637436D01*
X3560539Y-8637436D02*
X3570063Y-8627912D01*
X3741491Y-8656484D02*
X3646253Y-8656484D01*
X3646253Y-8656484D02*
X3636729Y-8751722D01*
X3636729Y-8751722D02*
X3646253Y-8742198D01*
X3646253Y-8742198D02*
X3665301Y-8732674D01*
X3665301Y-8732674D02*
X3712920Y-8732674D01*
X3712920Y-8732674D02*
X3731968Y-8742198D01*
X3731968Y-8742198D02*
X3741491Y-8751722D01*
X3741491Y-8751722D02*
X3751015Y-8770770D01*
X3751015Y-8770770D02*
X3751015Y-8818389D01*
X3751015Y-8818389D02*
X3741491Y-8837436D01*
X3741491Y-8837436D02*
X3731968Y-8846960D01*
X3731968Y-8846960D02*
X3712920Y-8856484D01*
X3712920Y-8856484D02*
X3665301Y-8856484D01*
X3665301Y-8856484D02*
X3646253Y-8846960D01*
X3646253Y-8846960D02*
X3636729Y-8837436D01*
X3989110Y-8856484D02*
X3989110Y-8656484D01*
X4074825Y-8856484D02*
X4074825Y-8751722D01*
X4074825Y-8751722D02*
X4065301Y-8732674D01*
X4065301Y-8732674D02*
X4046253Y-8723150D01*
X4046253Y-8723150D02*
X4017682Y-8723150D01*
X4017682Y-8723150D02*
X3998634Y-8732674D01*
X3998634Y-8732674D02*
X3989110Y-8742198D01*
X4198634Y-8856484D02*
X4179587Y-8846960D01*
X4179587Y-8846960D02*
X4170063Y-8837436D01*
X4170063Y-8837436D02*
X4160539Y-8818389D01*
X4160539Y-8818389D02*
X4160539Y-8761246D01*
X4160539Y-8761246D02*
X4170063Y-8742198D01*
X4170063Y-8742198D02*
X4179587Y-8732674D01*
X4179587Y-8732674D02*
X4198634Y-8723150D01*
X4198634Y-8723150D02*
X4227206Y-8723150D01*
X4227206Y-8723150D02*
X4246253Y-8732674D01*
X4246253Y-8732674D02*
X4255777Y-8742198D01*
X4255777Y-8742198D02*
X4265301Y-8761246D01*
X4265301Y-8761246D02*
X4265301Y-8818389D01*
X4265301Y-8818389D02*
X4255777Y-8837436D01*
X4255777Y-8837436D02*
X4246253Y-8846960D01*
X4246253Y-8846960D02*
X4227206Y-8856484D01*
X4227206Y-8856484D02*
X4198634Y-8856484D01*
X4379587Y-8856484D02*
X4360539Y-8846960D01*
X4360539Y-8846960D02*
X4351015Y-8827912D01*
X4351015Y-8827912D02*
X4351015Y-8656484D01*
X4531968Y-8846960D02*
X4512920Y-8856484D01*
X4512920Y-8856484D02*
X4474825Y-8856484D01*
X4474825Y-8856484D02*
X4455777Y-8846960D01*
X4455777Y-8846960D02*
X4446253Y-8827912D01*
X4446253Y-8827912D02*
X4446253Y-8751722D01*
X4446253Y-8751722D02*
X4455777Y-8732674D01*
X4455777Y-8732674D02*
X4474825Y-8723150D01*
X4474825Y-8723150D02*
X4512920Y-8723150D01*
X4512920Y-8723150D02*
X4531968Y-8732674D01*
X4531968Y-8732674D02*
X4541492Y-8751722D01*
X4541492Y-8751722D02*
X4541492Y-8770770D01*
X4541492Y-8770770D02*
X4446253Y-8789817D01*
X4617682Y-8846960D02*
X4636730Y-8856484D01*
X4636730Y-8856484D02*
X4674825Y-8856484D01*
X4674825Y-8856484D02*
X4693873Y-8846960D01*
X4693873Y-8846960D02*
X4703396Y-8827912D01*
X4703396Y-8827912D02*
X4703396Y-8818389D01*
X4703396Y-8818389D02*
X4693873Y-8799341D01*
X4693873Y-8799341D02*
X4674825Y-8789817D01*
X4674825Y-8789817D02*
X4646253Y-8789817D01*
X4646253Y-8789817D02*
X4627206Y-8780293D01*
X4627206Y-8780293D02*
X4617682Y-8761246D01*
X4617682Y-8761246D02*
X4617682Y-8751722D01*
X4617682Y-8751722D02*
X4627206Y-8732674D01*
X4627206Y-8732674D02*
X4646253Y-8723150D01*
X4646253Y-8723150D02*
X4674825Y-8723150D01*
X4674825Y-8723150D02*
X4693873Y-8732674D01*
X4770063Y-8932674D02*
X4779587Y-8923150D01*
X4779587Y-8923150D02*
X4798634Y-8894579D01*
X4798634Y-8894579D02*
X4808158Y-8875531D01*
X4808158Y-8875531D02*
X4817682Y-8846960D01*
X4817682Y-8846960D02*
X4827206Y-8799341D01*
X4827206Y-8799341D02*
X4827206Y-8761246D01*
X4827206Y-8761246D02*
X4817682Y-8713627D01*
X4817682Y-8713627D02*
X4808158Y-8685055D01*
X4808158Y-8685055D02*
X4798634Y-8666008D01*
X4798634Y-8666008D02*
X4779587Y-8637436D01*
X4779587Y-8637436D02*
X4770063Y-8627912D01*
D10*
X-85000Y-9045000D02*
X-5000Y-9125000D01*
X-5000Y-9045000D02*
X-85000Y-9125000D01*
X-45000Y-9045000D02*
X-45000Y-9125000D01*
X-85000Y-9085000D02*
X-5000Y-9085000D01*
D11*
X293872Y-8976484D02*
X312920Y-8976484D01*
X312920Y-8976484D02*
X331967Y-8986008D01*
X331967Y-8986008D02*
X341491Y-8995531D01*
X341491Y-8995531D02*
X351015Y-9014579D01*
X351015Y-9014579D02*
X360539Y-9052674D01*
X360539Y-9052674D02*
X360539Y-9100293D01*
X360539Y-9100293D02*
X351015Y-9138389D01*
X351015Y-9138389D02*
X341491Y-9157436D01*
X341491Y-9157436D02*
X331967Y-9166960D01*
X331967Y-9166960D02*
X312920Y-9176484D01*
X312920Y-9176484D02*
X293872Y-9176484D01*
X293872Y-9176484D02*
X274824Y-9166960D01*
X274824Y-9166960D02*
X265301Y-9157436D01*
X265301Y-9157436D02*
X255777Y-9138389D01*
X255777Y-9138389D02*
X246253Y-9100293D01*
X246253Y-9100293D02*
X246253Y-9052674D01*
X246253Y-9052674D02*
X255777Y-9014579D01*
X255777Y-9014579D02*
X265301Y-8995531D01*
X265301Y-8995531D02*
X274824Y-8986008D01*
X274824Y-8986008D02*
X293872Y-8976484D01*
X446253Y-9157436D02*
X455777Y-9166960D01*
X455777Y-9166960D02*
X446253Y-9176484D01*
X446253Y-9176484D02*
X436729Y-9166960D01*
X436729Y-9166960D02*
X446253Y-9157436D01*
X446253Y-9157436D02*
X446253Y-9176484D01*
X570063Y-9062198D02*
X551015Y-9052674D01*
X551015Y-9052674D02*
X541491Y-9043150D01*
X541491Y-9043150D02*
X531967Y-9024103D01*
X531967Y-9024103D02*
X531967Y-9014579D01*
X531967Y-9014579D02*
X541491Y-8995531D01*
X541491Y-8995531D02*
X551015Y-8986008D01*
X551015Y-8986008D02*
X570063Y-8976484D01*
X570063Y-8976484D02*
X608158Y-8976484D01*
X608158Y-8976484D02*
X627205Y-8986008D01*
X627205Y-8986008D02*
X636729Y-8995531D01*
X636729Y-8995531D02*
X646253Y-9014579D01*
X646253Y-9014579D02*
X646253Y-9024103D01*
X646253Y-9024103D02*
X636729Y-9043150D01*
X636729Y-9043150D02*
X627205Y-9052674D01*
X627205Y-9052674D02*
X608158Y-9062198D01*
X608158Y-9062198D02*
X570063Y-9062198D01*
X570063Y-9062198D02*
X551015Y-9071722D01*
X551015Y-9071722D02*
X541491Y-9081246D01*
X541491Y-9081246D02*
X531967Y-9100293D01*
X531967Y-9100293D02*
X531967Y-9138389D01*
X531967Y-9138389D02*
X541491Y-9157436D01*
X541491Y-9157436D02*
X551015Y-9166960D01*
X551015Y-9166960D02*
X570063Y-9176484D01*
X570063Y-9176484D02*
X608158Y-9176484D01*
X608158Y-9176484D02*
X627205Y-9166960D01*
X627205Y-9166960D02*
X636729Y-9157436D01*
X636729Y-9157436D02*
X646253Y-9138389D01*
X646253Y-9138389D02*
X646253Y-9100293D01*
X646253Y-9100293D02*
X636729Y-9081246D01*
X636729Y-9081246D02*
X627205Y-9071722D01*
X627205Y-9071722D02*
X608158Y-9062198D01*
X770062Y-8976484D02*
X789110Y-8976484D01*
X789110Y-8976484D02*
X808158Y-8986008D01*
X808158Y-8986008D02*
X817682Y-8995531D01*
X817682Y-8995531D02*
X827205Y-9014579D01*
X827205Y-9014579D02*
X836729Y-9052674D01*
X836729Y-9052674D02*
X836729Y-9100293D01*
X836729Y-9100293D02*
X827205Y-9138389D01*
X827205Y-9138389D02*
X817682Y-9157436D01*
X817682Y-9157436D02*
X808158Y-9166960D01*
X808158Y-9166960D02*
X789110Y-9176484D01*
X789110Y-9176484D02*
X770062Y-9176484D01*
X770062Y-9176484D02*
X751015Y-9166960D01*
X751015Y-9166960D02*
X741491Y-9157436D01*
X741491Y-9157436D02*
X731967Y-9138389D01*
X731967Y-9138389D02*
X722443Y-9100293D01*
X722443Y-9100293D02*
X722443Y-9052674D01*
X722443Y-9052674D02*
X731967Y-9014579D01*
X731967Y-9014579D02*
X741491Y-8995531D01*
X741491Y-8995531D02*
X751015Y-8986008D01*
X751015Y-8986008D02*
X770062Y-8976484D01*
X960539Y-8976484D02*
X979586Y-8976484D01*
X979586Y-8976484D02*
X998634Y-8986008D01*
X998634Y-8986008D02*
X1008158Y-8995531D01*
X1008158Y-8995531D02*
X1017682Y-9014579D01*
X1017682Y-9014579D02*
X1027205Y-9052674D01*
X1027205Y-9052674D02*
X1027205Y-9100293D01*
X1027205Y-9100293D02*
X1017682Y-9138389D01*
X1017682Y-9138389D02*
X1008158Y-9157436D01*
X1008158Y-9157436D02*
X998634Y-9166960D01*
X998634Y-9166960D02*
X979586Y-9176484D01*
X979586Y-9176484D02*
X960539Y-9176484D01*
X960539Y-9176484D02*
X941491Y-9166960D01*
X941491Y-9166960D02*
X931967Y-9157436D01*
X931967Y-9157436D02*
X922443Y-9138389D01*
X922443Y-9138389D02*
X912920Y-9100293D01*
X912920Y-9100293D02*
X912920Y-9052674D01*
X912920Y-9052674D02*
X922443Y-9014579D01*
X922443Y-9014579D02*
X931967Y-8995531D01*
X931967Y-8995531D02*
X941491Y-8986008D01*
X941491Y-8986008D02*
X960539Y-8976484D01*
X1112920Y-9176484D02*
X1112920Y-9043150D01*
X1112920Y-9062198D02*
X1122444Y-9052674D01*
X1122444Y-9052674D02*
X1141491Y-9043150D01*
X1141491Y-9043150D02*
X1170063Y-9043150D01*
X1170063Y-9043150D02*
X1189110Y-9052674D01*
X1189110Y-9052674D02*
X1198634Y-9071722D01*
X1198634Y-9071722D02*
X1198634Y-9176484D01*
X1198634Y-9071722D02*
X1208158Y-9052674D01*
X1208158Y-9052674D02*
X1227205Y-9043150D01*
X1227205Y-9043150D02*
X1255777Y-9043150D01*
X1255777Y-9043150D02*
X1274825Y-9052674D01*
X1274825Y-9052674D02*
X1284348Y-9071722D01*
X1284348Y-9071722D02*
X1284348Y-9176484D01*
X1379586Y-9176484D02*
X1379586Y-9043150D01*
X1379586Y-9062198D02*
X1389110Y-9052674D01*
X1389110Y-9052674D02*
X1408158Y-9043150D01*
X1408158Y-9043150D02*
X1436729Y-9043150D01*
X1436729Y-9043150D02*
X1455777Y-9052674D01*
X1455777Y-9052674D02*
X1465301Y-9071722D01*
X1465301Y-9071722D02*
X1465301Y-9176484D01*
X1465301Y-9071722D02*
X1474824Y-9052674D01*
X1474824Y-9052674D02*
X1493872Y-9043150D01*
X1493872Y-9043150D02*
X1522443Y-9043150D01*
X1522443Y-9043150D02*
X1541491Y-9052674D01*
X1541491Y-9052674D02*
X1551015Y-9071722D01*
X1551015Y-9071722D02*
X1551015Y-9176484D01*
X1941491Y-8966960D02*
X1770063Y-9224103D01*
X2198634Y-8976484D02*
X2217682Y-8976484D01*
X2217682Y-8976484D02*
X2236729Y-8986008D01*
X2236729Y-8986008D02*
X2246253Y-8995531D01*
X2246253Y-8995531D02*
X2255777Y-9014579D01*
X2255777Y-9014579D02*
X2265301Y-9052674D01*
X2265301Y-9052674D02*
X2265301Y-9100293D01*
X2265301Y-9100293D02*
X2255777Y-9138389D01*
X2255777Y-9138389D02*
X2246253Y-9157436D01*
X2246253Y-9157436D02*
X2236729Y-9166960D01*
X2236729Y-9166960D02*
X2217682Y-9176484D01*
X2217682Y-9176484D02*
X2198634Y-9176484D01*
X2198634Y-9176484D02*
X2179587Y-9166960D01*
X2179587Y-9166960D02*
X2170063Y-9157436D01*
X2170063Y-9157436D02*
X2160539Y-9138389D01*
X2160539Y-9138389D02*
X2151015Y-9100293D01*
X2151015Y-9100293D02*
X2151015Y-9052674D01*
X2151015Y-9052674D02*
X2160539Y-9014579D01*
X2160539Y-9014579D02*
X2170063Y-8995531D01*
X2170063Y-8995531D02*
X2179587Y-8986008D01*
X2179587Y-8986008D02*
X2198634Y-8976484D01*
X2351015Y-9157436D02*
X2360539Y-9166960D01*
X2360539Y-9166960D02*
X2351015Y-9176484D01*
X2351015Y-9176484D02*
X2341491Y-9166960D01*
X2341491Y-9166960D02*
X2351015Y-9157436D01*
X2351015Y-9157436D02*
X2351015Y-9176484D01*
X2484348Y-8976484D02*
X2503396Y-8976484D01*
X2503396Y-8976484D02*
X2522444Y-8986008D01*
X2522444Y-8986008D02*
X2531968Y-8995531D01*
X2531968Y-8995531D02*
X2541491Y-9014579D01*
X2541491Y-9014579D02*
X2551015Y-9052674D01*
X2551015Y-9052674D02*
X2551015Y-9100293D01*
X2551015Y-9100293D02*
X2541491Y-9138389D01*
X2541491Y-9138389D02*
X2531968Y-9157436D01*
X2531968Y-9157436D02*
X2522444Y-9166960D01*
X2522444Y-9166960D02*
X2503396Y-9176484D01*
X2503396Y-9176484D02*
X2484348Y-9176484D01*
X2484348Y-9176484D02*
X2465301Y-9166960D01*
X2465301Y-9166960D02*
X2455777Y-9157436D01*
X2455777Y-9157436D02*
X2446253Y-9138389D01*
X2446253Y-9138389D02*
X2436729Y-9100293D01*
X2436729Y-9100293D02*
X2436729Y-9052674D01*
X2436729Y-9052674D02*
X2446253Y-9014579D01*
X2446253Y-9014579D02*
X2455777Y-8995531D01*
X2455777Y-8995531D02*
X2465301Y-8986008D01*
X2465301Y-8986008D02*
X2484348Y-8976484D01*
X2617682Y-8976484D02*
X2741491Y-8976484D01*
X2741491Y-8976484D02*
X2674825Y-9052674D01*
X2674825Y-9052674D02*
X2703396Y-9052674D01*
X2703396Y-9052674D02*
X2722444Y-9062198D01*
X2722444Y-9062198D02*
X2731968Y-9071722D01*
X2731968Y-9071722D02*
X2741491Y-9090770D01*
X2741491Y-9090770D02*
X2741491Y-9138389D01*
X2741491Y-9138389D02*
X2731968Y-9157436D01*
X2731968Y-9157436D02*
X2722444Y-9166960D01*
X2722444Y-9166960D02*
X2703396Y-9176484D01*
X2703396Y-9176484D02*
X2646253Y-9176484D01*
X2646253Y-9176484D02*
X2627206Y-9166960D01*
X2627206Y-9166960D02*
X2617682Y-9157436D01*
X2931967Y-9176484D02*
X2817682Y-9176484D01*
X2874825Y-9176484D02*
X2874825Y-8976484D01*
X2874825Y-8976484D02*
X2855777Y-9005055D01*
X2855777Y-9005055D02*
X2836729Y-9024103D01*
X2836729Y-9024103D02*
X2817682Y-9033627D01*
X3112920Y-8976484D02*
X3017682Y-8976484D01*
X3017682Y-8976484D02*
X3008158Y-9071722D01*
X3008158Y-9071722D02*
X3017682Y-9062198D01*
X3017682Y-9062198D02*
X3036729Y-9052674D01*
X3036729Y-9052674D02*
X3084348Y-9052674D01*
X3084348Y-9052674D02*
X3103396Y-9062198D01*
X3103396Y-9062198D02*
X3112920Y-9071722D01*
X3112920Y-9071722D02*
X3122444Y-9090770D01*
X3122444Y-9090770D02*
X3122444Y-9138389D01*
X3122444Y-9138389D02*
X3112920Y-9157436D01*
X3112920Y-9157436D02*
X3103396Y-9166960D01*
X3103396Y-9166960D02*
X3084348Y-9176484D01*
X3084348Y-9176484D02*
X3036729Y-9176484D01*
X3036729Y-9176484D02*
X3017682Y-9166960D01*
X3017682Y-9166960D02*
X3008158Y-9157436D01*
X3198634Y-8976484D02*
X3198634Y-9014579D01*
X3274825Y-8976484D02*
X3274825Y-9014579D01*
X3570063Y-9252674D02*
X3560539Y-9243150D01*
X3560539Y-9243150D02*
X3541491Y-9214579D01*
X3541491Y-9214579D02*
X3531968Y-9195531D01*
X3531968Y-9195531D02*
X3522444Y-9166960D01*
X3522444Y-9166960D02*
X3512920Y-9119341D01*
X3512920Y-9119341D02*
X3512920Y-9081246D01*
X3512920Y-9081246D02*
X3522444Y-9033627D01*
X3522444Y-9033627D02*
X3531968Y-9005055D01*
X3531968Y-9005055D02*
X3541491Y-8986008D01*
X3541491Y-8986008D02*
X3560539Y-8957436D01*
X3560539Y-8957436D02*
X3570063Y-8947912D01*
X3636729Y-8995531D02*
X3646253Y-8986008D01*
X3646253Y-8986008D02*
X3665301Y-8976484D01*
X3665301Y-8976484D02*
X3712920Y-8976484D01*
X3712920Y-8976484D02*
X3731968Y-8986008D01*
X3731968Y-8986008D02*
X3741491Y-8995531D01*
X3741491Y-8995531D02*
X3751015Y-9014579D01*
X3751015Y-9014579D02*
X3751015Y-9033627D01*
X3751015Y-9033627D02*
X3741491Y-9062198D01*
X3741491Y-9062198D02*
X3627206Y-9176484D01*
X3627206Y-9176484D02*
X3751015Y-9176484D01*
X3989110Y-9176484D02*
X3989110Y-8976484D01*
X4074825Y-9176484D02*
X4074825Y-9071722D01*
X4074825Y-9071722D02*
X4065301Y-9052674D01*
X4065301Y-9052674D02*
X4046253Y-9043150D01*
X4046253Y-9043150D02*
X4017682Y-9043150D01*
X4017682Y-9043150D02*
X3998634Y-9052674D01*
X3998634Y-9052674D02*
X3989110Y-9062198D01*
X4198634Y-9176484D02*
X4179587Y-9166960D01*
X4179587Y-9166960D02*
X4170063Y-9157436D01*
X4170063Y-9157436D02*
X4160539Y-9138389D01*
X4160539Y-9138389D02*
X4160539Y-9081246D01*
X4160539Y-9081246D02*
X4170063Y-9062198D01*
X4170063Y-9062198D02*
X4179587Y-9052674D01*
X4179587Y-9052674D02*
X4198634Y-9043150D01*
X4198634Y-9043150D02*
X4227206Y-9043150D01*
X4227206Y-9043150D02*
X4246253Y-9052674D01*
X4246253Y-9052674D02*
X4255777Y-9062198D01*
X4255777Y-9062198D02*
X4265301Y-9081246D01*
X4265301Y-9081246D02*
X4265301Y-9138389D01*
X4265301Y-9138389D02*
X4255777Y-9157436D01*
X4255777Y-9157436D02*
X4246253Y-9166960D01*
X4246253Y-9166960D02*
X4227206Y-9176484D01*
X4227206Y-9176484D02*
X4198634Y-9176484D01*
X4379587Y-9176484D02*
X4360539Y-9166960D01*
X4360539Y-9166960D02*
X4351015Y-9147912D01*
X4351015Y-9147912D02*
X4351015Y-8976484D01*
X4531968Y-9166960D02*
X4512920Y-9176484D01*
X4512920Y-9176484D02*
X4474825Y-9176484D01*
X4474825Y-9176484D02*
X4455777Y-9166960D01*
X4455777Y-9166960D02*
X4446253Y-9147912D01*
X4446253Y-9147912D02*
X4446253Y-9071722D01*
X4446253Y-9071722D02*
X4455777Y-9052674D01*
X4455777Y-9052674D02*
X4474825Y-9043150D01*
X4474825Y-9043150D02*
X4512920Y-9043150D01*
X4512920Y-9043150D02*
X4531968Y-9052674D01*
X4531968Y-9052674D02*
X4541492Y-9071722D01*
X4541492Y-9071722D02*
X4541492Y-9090770D01*
X4541492Y-9090770D02*
X4446253Y-9109817D01*
X4617682Y-9166960D02*
X4636730Y-9176484D01*
X4636730Y-9176484D02*
X4674825Y-9176484D01*
X4674825Y-9176484D02*
X4693873Y-9166960D01*
X4693873Y-9166960D02*
X4703396Y-9147912D01*
X4703396Y-9147912D02*
X4703396Y-9138389D01*
X4703396Y-9138389D02*
X4693873Y-9119341D01*
X4693873Y-9119341D02*
X4674825Y-9109817D01*
X4674825Y-9109817D02*
X4646253Y-9109817D01*
X4646253Y-9109817D02*
X4627206Y-9100293D01*
X4627206Y-9100293D02*
X4617682Y-9081246D01*
X4617682Y-9081246D02*
X4617682Y-9071722D01*
X4617682Y-9071722D02*
X4627206Y-9052674D01*
X4627206Y-9052674D02*
X4646253Y-9043150D01*
X4646253Y-9043150D02*
X4674825Y-9043150D01*
X4674825Y-9043150D02*
X4693873Y-9052674D01*
X4770063Y-9252674D02*
X4779587Y-9243150D01*
X4779587Y-9243150D02*
X4798634Y-9214579D01*
X4798634Y-9214579D02*
X4808158Y-9195531D01*
X4808158Y-9195531D02*
X4817682Y-9166960D01*
X4817682Y-9166960D02*
X4827206Y-9119341D01*
X4827206Y-9119341D02*
X4827206Y-9081246D01*
X4827206Y-9081246D02*
X4817682Y-9033627D01*
X4817682Y-9033627D02*
X4808158Y-9005055D01*
X4808158Y-9005055D02*
X4798634Y-8986008D01*
X4798634Y-8986008D02*
X4779587Y-8957436D01*
X4779587Y-8957436D02*
X4770063Y-8947912D01*
X5131968Y-9252674D02*
X5122444Y-9243150D01*
X5122444Y-9243150D02*
X5103396Y-9214579D01*
X5103396Y-9214579D02*
X5093873Y-9195531D01*
X5093873Y-9195531D02*
X5084349Y-9166960D01*
X5084349Y-9166960D02*
X5074825Y-9119341D01*
X5074825Y-9119341D02*
X5074825Y-9081246D01*
X5074825Y-9081246D02*
X5084349Y-9033627D01*
X5084349Y-9033627D02*
X5093873Y-9005055D01*
X5093873Y-9005055D02*
X5103396Y-8986008D01*
X5103396Y-8986008D02*
X5122444Y-8957436D01*
X5122444Y-8957436D02*
X5131968Y-8947912D01*
X5208158Y-9043150D02*
X5208158Y-9176484D01*
X5208158Y-9062198D02*
X5217682Y-9052674D01*
X5217682Y-9052674D02*
X5236730Y-9043150D01*
X5236730Y-9043150D02*
X5265301Y-9043150D01*
X5265301Y-9043150D02*
X5284349Y-9052674D01*
X5284349Y-9052674D02*
X5293873Y-9071722D01*
X5293873Y-9071722D02*
X5293873Y-9176484D01*
X5417682Y-9176484D02*
X5398634Y-9166960D01*
X5398634Y-9166960D02*
X5389111Y-9157436D01*
X5389111Y-9157436D02*
X5379587Y-9138389D01*
X5379587Y-9138389D02*
X5379587Y-9081246D01*
X5379587Y-9081246D02*
X5389111Y-9062198D01*
X5389111Y-9062198D02*
X5398634Y-9052674D01*
X5398634Y-9052674D02*
X5417682Y-9043150D01*
X5417682Y-9043150D02*
X5446254Y-9043150D01*
X5446254Y-9043150D02*
X5465301Y-9052674D01*
X5465301Y-9052674D02*
X5474825Y-9062198D01*
X5474825Y-9062198D02*
X5484349Y-9081246D01*
X5484349Y-9081246D02*
X5484349Y-9138389D01*
X5484349Y-9138389D02*
X5474825Y-9157436D01*
X5474825Y-9157436D02*
X5465301Y-9166960D01*
X5465301Y-9166960D02*
X5446254Y-9176484D01*
X5446254Y-9176484D02*
X5417682Y-9176484D01*
X5541492Y-9043150D02*
X5617682Y-9043150D01*
X5570063Y-8976484D02*
X5570063Y-9147912D01*
X5570063Y-9147912D02*
X5579587Y-9166960D01*
X5579587Y-9166960D02*
X5598634Y-9176484D01*
X5598634Y-9176484D02*
X5617682Y-9176484D01*
X5836730Y-9043150D02*
X5836730Y-9243150D01*
X5836730Y-9052674D02*
X5855777Y-9043150D01*
X5855777Y-9043150D02*
X5893873Y-9043150D01*
X5893873Y-9043150D02*
X5912920Y-9052674D01*
X5912920Y-9052674D02*
X5922444Y-9062198D01*
X5922444Y-9062198D02*
X5931968Y-9081246D01*
X5931968Y-9081246D02*
X5931968Y-9138389D01*
X5931968Y-9138389D02*
X5922444Y-9157436D01*
X5922444Y-9157436D02*
X5912920Y-9166960D01*
X5912920Y-9166960D02*
X5893873Y-9176484D01*
X5893873Y-9176484D02*
X5855777Y-9176484D01*
X5855777Y-9176484D02*
X5836730Y-9166960D01*
X6046253Y-9176484D02*
X6027206Y-9166960D01*
X6027206Y-9166960D02*
X6017682Y-9147912D01*
X6017682Y-9147912D02*
X6017682Y-8976484D01*
X6208158Y-9176484D02*
X6208158Y-9071722D01*
X6208158Y-9071722D02*
X6198634Y-9052674D01*
X6198634Y-9052674D02*
X6179587Y-9043150D01*
X6179587Y-9043150D02*
X6141492Y-9043150D01*
X6141492Y-9043150D02*
X6122444Y-9052674D01*
X6208158Y-9166960D02*
X6189111Y-9176484D01*
X6189111Y-9176484D02*
X6141492Y-9176484D01*
X6141492Y-9176484D02*
X6122444Y-9166960D01*
X6122444Y-9166960D02*
X6112920Y-9147912D01*
X6112920Y-9147912D02*
X6112920Y-9128865D01*
X6112920Y-9128865D02*
X6122444Y-9109817D01*
X6122444Y-9109817D02*
X6141492Y-9100293D01*
X6141492Y-9100293D02*
X6189111Y-9100293D01*
X6189111Y-9100293D02*
X6208158Y-9090770D01*
X6274825Y-9043150D02*
X6351015Y-9043150D01*
X6303396Y-8976484D02*
X6303396Y-9147912D01*
X6303396Y-9147912D02*
X6312920Y-9166960D01*
X6312920Y-9166960D02*
X6331968Y-9176484D01*
X6331968Y-9176484D02*
X6351015Y-9176484D01*
X6493873Y-9166960D02*
X6474825Y-9176484D01*
X6474825Y-9176484D02*
X6436730Y-9176484D01*
X6436730Y-9176484D02*
X6417682Y-9166960D01*
X6417682Y-9166960D02*
X6408158Y-9147912D01*
X6408158Y-9147912D02*
X6408158Y-9071722D01*
X6408158Y-9071722D02*
X6417682Y-9052674D01*
X6417682Y-9052674D02*
X6436730Y-9043150D01*
X6436730Y-9043150D02*
X6474825Y-9043150D01*
X6474825Y-9043150D02*
X6493873Y-9052674D01*
X6493873Y-9052674D02*
X6503396Y-9071722D01*
X6503396Y-9071722D02*
X6503396Y-9090770D01*
X6503396Y-9090770D02*
X6408158Y-9109817D01*
X6674825Y-9176484D02*
X6674825Y-8976484D01*
X6674825Y-9166960D02*
X6655777Y-9176484D01*
X6655777Y-9176484D02*
X6617682Y-9176484D01*
X6617682Y-9176484D02*
X6598634Y-9166960D01*
X6598634Y-9166960D02*
X6589111Y-9157436D01*
X6589111Y-9157436D02*
X6579587Y-9138389D01*
X6579587Y-9138389D02*
X6579587Y-9081246D01*
X6579587Y-9081246D02*
X6589111Y-9062198D01*
X6589111Y-9062198D02*
X6598634Y-9052674D01*
X6598634Y-9052674D02*
X6617682Y-9043150D01*
X6617682Y-9043150D02*
X6655777Y-9043150D01*
X6655777Y-9043150D02*
X6674825Y-9052674D01*
X6751015Y-9252674D02*
X6760539Y-9243150D01*
X6760539Y-9243150D02*
X6779587Y-9214579D01*
X6779587Y-9214579D02*
X6789111Y-9195531D01*
X6789111Y-9195531D02*
X6798634Y-9166960D01*
X6798634Y-9166960D02*
X6808158Y-9119341D01*
X6808158Y-9119341D02*
X6808158Y-9081246D01*
X6808158Y-9081246D02*
X6798634Y-9033627D01*
X6798634Y-9033627D02*
X6789111Y-9005055D01*
X6789111Y-9005055D02*
X6779587Y-8986008D01*
X6779587Y-8986008D02*
X6760539Y-8957436D01*
X6760539Y-8957436D02*
X6751015Y-8947912D01*
D14*
X-115000Y-9294000D02*
X-5000Y-9404000D01*
X-5000Y-9294000D02*
X-115000Y-9404000D01*
X-21109Y-9387891D02*
X-21109Y-9310109D01*
X-98891Y-9310109D01*
X-98891Y-9387891D01*
X-21109Y-9387891D01*
D11*
X360539Y-9440484D02*
X246253Y-9440484D01*
X303396Y-9440484D02*
X303396Y-9240484D01*
X303396Y-9240484D02*
X284348Y-9269055D01*
X284348Y-9269055D02*
X265301Y-9288103D01*
X265301Y-9288103D02*
X246253Y-9297627D01*
X446253Y-9421436D02*
X455777Y-9430960D01*
X455777Y-9430960D02*
X446253Y-9440484D01*
X446253Y-9440484D02*
X436729Y-9430960D01*
X436729Y-9430960D02*
X446253Y-9421436D01*
X446253Y-9421436D02*
X446253Y-9440484D01*
X646253Y-9440484D02*
X531967Y-9440484D01*
X589110Y-9440484D02*
X589110Y-9240484D01*
X589110Y-9240484D02*
X570063Y-9269055D01*
X570063Y-9269055D02*
X551015Y-9288103D01*
X551015Y-9288103D02*
X531967Y-9297627D01*
X770062Y-9240484D02*
X789110Y-9240484D01*
X789110Y-9240484D02*
X808158Y-9250008D01*
X808158Y-9250008D02*
X817682Y-9259531D01*
X817682Y-9259531D02*
X827205Y-9278579D01*
X827205Y-9278579D02*
X836729Y-9316674D01*
X836729Y-9316674D02*
X836729Y-9364293D01*
X836729Y-9364293D02*
X827205Y-9402389D01*
X827205Y-9402389D02*
X817682Y-9421436D01*
X817682Y-9421436D02*
X808158Y-9430960D01*
X808158Y-9430960D02*
X789110Y-9440484D01*
X789110Y-9440484D02*
X770062Y-9440484D01*
X770062Y-9440484D02*
X751015Y-9430960D01*
X751015Y-9430960D02*
X741491Y-9421436D01*
X741491Y-9421436D02*
X731967Y-9402389D01*
X731967Y-9402389D02*
X722443Y-9364293D01*
X722443Y-9364293D02*
X722443Y-9316674D01*
X722443Y-9316674D02*
X731967Y-9278579D01*
X731967Y-9278579D02*
X741491Y-9259531D01*
X741491Y-9259531D02*
X751015Y-9250008D01*
X751015Y-9250008D02*
X770062Y-9240484D01*
X960539Y-9240484D02*
X979586Y-9240484D01*
X979586Y-9240484D02*
X998634Y-9250008D01*
X998634Y-9250008D02*
X1008158Y-9259531D01*
X1008158Y-9259531D02*
X1017682Y-9278579D01*
X1017682Y-9278579D02*
X1027205Y-9316674D01*
X1027205Y-9316674D02*
X1027205Y-9364293D01*
X1027205Y-9364293D02*
X1017682Y-9402389D01*
X1017682Y-9402389D02*
X1008158Y-9421436D01*
X1008158Y-9421436D02*
X998634Y-9430960D01*
X998634Y-9430960D02*
X979586Y-9440484D01*
X979586Y-9440484D02*
X960539Y-9440484D01*
X960539Y-9440484D02*
X941491Y-9430960D01*
X941491Y-9430960D02*
X931967Y-9421436D01*
X931967Y-9421436D02*
X922443Y-9402389D01*
X922443Y-9402389D02*
X912920Y-9364293D01*
X912920Y-9364293D02*
X912920Y-9316674D01*
X912920Y-9316674D02*
X922443Y-9278579D01*
X922443Y-9278579D02*
X931967Y-9259531D01*
X931967Y-9259531D02*
X941491Y-9250008D01*
X941491Y-9250008D02*
X960539Y-9240484D01*
X1112920Y-9440484D02*
X1112920Y-9307150D01*
X1112920Y-9326198D02*
X1122444Y-9316674D01*
X1122444Y-9316674D02*
X1141491Y-9307150D01*
X1141491Y-9307150D02*
X1170063Y-9307150D01*
X1170063Y-9307150D02*
X1189110Y-9316674D01*
X1189110Y-9316674D02*
X1198634Y-9335722D01*
X1198634Y-9335722D02*
X1198634Y-9440484D01*
X1198634Y-9335722D02*
X1208158Y-9316674D01*
X1208158Y-9316674D02*
X1227205Y-9307150D01*
X1227205Y-9307150D02*
X1255777Y-9307150D01*
X1255777Y-9307150D02*
X1274825Y-9316674D01*
X1274825Y-9316674D02*
X1284348Y-9335722D01*
X1284348Y-9335722D02*
X1284348Y-9440484D01*
X1379586Y-9440484D02*
X1379586Y-9307150D01*
X1379586Y-9326198D02*
X1389110Y-9316674D01*
X1389110Y-9316674D02*
X1408158Y-9307150D01*
X1408158Y-9307150D02*
X1436729Y-9307150D01*
X1436729Y-9307150D02*
X1455777Y-9316674D01*
X1455777Y-9316674D02*
X1465301Y-9335722D01*
X1465301Y-9335722D02*
X1465301Y-9440484D01*
X1465301Y-9335722D02*
X1474824Y-9316674D01*
X1474824Y-9316674D02*
X1493872Y-9307150D01*
X1493872Y-9307150D02*
X1522443Y-9307150D01*
X1522443Y-9307150D02*
X1541491Y-9316674D01*
X1541491Y-9316674D02*
X1551015Y-9335722D01*
X1551015Y-9335722D02*
X1551015Y-9440484D01*
X1941491Y-9230960D02*
X1770063Y-9488103D01*
X2198634Y-9240484D02*
X2217682Y-9240484D01*
X2217682Y-9240484D02*
X2236729Y-9250008D01*
X2236729Y-9250008D02*
X2246253Y-9259531D01*
X2246253Y-9259531D02*
X2255777Y-9278579D01*
X2255777Y-9278579D02*
X2265301Y-9316674D01*
X2265301Y-9316674D02*
X2265301Y-9364293D01*
X2265301Y-9364293D02*
X2255777Y-9402389D01*
X2255777Y-9402389D02*
X2246253Y-9421436D01*
X2246253Y-9421436D02*
X2236729Y-9430960D01*
X2236729Y-9430960D02*
X2217682Y-9440484D01*
X2217682Y-9440484D02*
X2198634Y-9440484D01*
X2198634Y-9440484D02*
X2179587Y-9430960D01*
X2179587Y-9430960D02*
X2170063Y-9421436D01*
X2170063Y-9421436D02*
X2160539Y-9402389D01*
X2160539Y-9402389D02*
X2151015Y-9364293D01*
X2151015Y-9364293D02*
X2151015Y-9316674D01*
X2151015Y-9316674D02*
X2160539Y-9278579D01*
X2160539Y-9278579D02*
X2170063Y-9259531D01*
X2170063Y-9259531D02*
X2179587Y-9250008D01*
X2179587Y-9250008D02*
X2198634Y-9240484D01*
X2351015Y-9421436D02*
X2360539Y-9430960D01*
X2360539Y-9430960D02*
X2351015Y-9440484D01*
X2351015Y-9440484D02*
X2341491Y-9430960D01*
X2341491Y-9430960D02*
X2351015Y-9421436D01*
X2351015Y-9421436D02*
X2351015Y-9440484D01*
X2484348Y-9240484D02*
X2503396Y-9240484D01*
X2503396Y-9240484D02*
X2522444Y-9250008D01*
X2522444Y-9250008D02*
X2531968Y-9259531D01*
X2531968Y-9259531D02*
X2541491Y-9278579D01*
X2541491Y-9278579D02*
X2551015Y-9316674D01*
X2551015Y-9316674D02*
X2551015Y-9364293D01*
X2551015Y-9364293D02*
X2541491Y-9402389D01*
X2541491Y-9402389D02*
X2531968Y-9421436D01*
X2531968Y-9421436D02*
X2522444Y-9430960D01*
X2522444Y-9430960D02*
X2503396Y-9440484D01*
X2503396Y-9440484D02*
X2484348Y-9440484D01*
X2484348Y-9440484D02*
X2465301Y-9430960D01*
X2465301Y-9430960D02*
X2455777Y-9421436D01*
X2455777Y-9421436D02*
X2446253Y-9402389D01*
X2446253Y-9402389D02*
X2436729Y-9364293D01*
X2436729Y-9364293D02*
X2436729Y-9316674D01*
X2436729Y-9316674D02*
X2446253Y-9278579D01*
X2446253Y-9278579D02*
X2455777Y-9259531D01*
X2455777Y-9259531D02*
X2465301Y-9250008D01*
X2465301Y-9250008D02*
X2484348Y-9240484D01*
X2722444Y-9307150D02*
X2722444Y-9440484D01*
X2674825Y-9230960D02*
X2627206Y-9373817D01*
X2627206Y-9373817D02*
X2751015Y-9373817D01*
X2808158Y-9240484D02*
X2931967Y-9240484D01*
X2931967Y-9240484D02*
X2865301Y-9316674D01*
X2865301Y-9316674D02*
X2893872Y-9316674D01*
X2893872Y-9316674D02*
X2912920Y-9326198D01*
X2912920Y-9326198D02*
X2922444Y-9335722D01*
X2922444Y-9335722D02*
X2931967Y-9354770D01*
X2931967Y-9354770D02*
X2931967Y-9402389D01*
X2931967Y-9402389D02*
X2922444Y-9421436D01*
X2922444Y-9421436D02*
X2912920Y-9430960D01*
X2912920Y-9430960D02*
X2893872Y-9440484D01*
X2893872Y-9440484D02*
X2836729Y-9440484D01*
X2836729Y-9440484D02*
X2817682Y-9430960D01*
X2817682Y-9430960D02*
X2808158Y-9421436D01*
X2998634Y-9240484D02*
X3122444Y-9240484D01*
X3122444Y-9240484D02*
X3055777Y-9316674D01*
X3055777Y-9316674D02*
X3084348Y-9316674D01*
X3084348Y-9316674D02*
X3103396Y-9326198D01*
X3103396Y-9326198D02*
X3112920Y-9335722D01*
X3112920Y-9335722D02*
X3122444Y-9354770D01*
X3122444Y-9354770D02*
X3122444Y-9402389D01*
X3122444Y-9402389D02*
X3112920Y-9421436D01*
X3112920Y-9421436D02*
X3103396Y-9430960D01*
X3103396Y-9430960D02*
X3084348Y-9440484D01*
X3084348Y-9440484D02*
X3027206Y-9440484D01*
X3027206Y-9440484D02*
X3008158Y-9430960D01*
X3008158Y-9430960D02*
X2998634Y-9421436D01*
X3198634Y-9240484D02*
X3198634Y-9278579D01*
X3274825Y-9240484D02*
X3274825Y-9278579D01*
X3570063Y-9516674D02*
X3560539Y-9507150D01*
X3560539Y-9507150D02*
X3541491Y-9478579D01*
X3541491Y-9478579D02*
X3531968Y-9459531D01*
X3531968Y-9459531D02*
X3522444Y-9430960D01*
X3522444Y-9430960D02*
X3512920Y-9383341D01*
X3512920Y-9383341D02*
X3512920Y-9345246D01*
X3512920Y-9345246D02*
X3522444Y-9297627D01*
X3522444Y-9297627D02*
X3531968Y-9269055D01*
X3531968Y-9269055D02*
X3541491Y-9250008D01*
X3541491Y-9250008D02*
X3560539Y-9221436D01*
X3560539Y-9221436D02*
X3570063Y-9211912D01*
X3636729Y-9259531D02*
X3646253Y-9250008D01*
X3646253Y-9250008D02*
X3665301Y-9240484D01*
X3665301Y-9240484D02*
X3712920Y-9240484D01*
X3712920Y-9240484D02*
X3731968Y-9250008D01*
X3731968Y-9250008D02*
X3741491Y-9259531D01*
X3741491Y-9259531D02*
X3751015Y-9278579D01*
X3751015Y-9278579D02*
X3751015Y-9297627D01*
X3751015Y-9297627D02*
X3741491Y-9326198D01*
X3741491Y-9326198D02*
X3627206Y-9440484D01*
X3627206Y-9440484D02*
X3751015Y-9440484D01*
X3989110Y-9440484D02*
X3989110Y-9240484D01*
X4074825Y-9440484D02*
X4074825Y-9335722D01*
X4074825Y-9335722D02*
X4065301Y-9316674D01*
X4065301Y-9316674D02*
X4046253Y-9307150D01*
X4046253Y-9307150D02*
X4017682Y-9307150D01*
X4017682Y-9307150D02*
X3998634Y-9316674D01*
X3998634Y-9316674D02*
X3989110Y-9326198D01*
X4198634Y-9440484D02*
X4179587Y-9430960D01*
X4179587Y-9430960D02*
X4170063Y-9421436D01*
X4170063Y-9421436D02*
X4160539Y-9402389D01*
X4160539Y-9402389D02*
X4160539Y-9345246D01*
X4160539Y-9345246D02*
X4170063Y-9326198D01*
X4170063Y-9326198D02*
X4179587Y-9316674D01*
X4179587Y-9316674D02*
X4198634Y-9307150D01*
X4198634Y-9307150D02*
X4227206Y-9307150D01*
X4227206Y-9307150D02*
X4246253Y-9316674D01*
X4246253Y-9316674D02*
X4255777Y-9326198D01*
X4255777Y-9326198D02*
X4265301Y-9345246D01*
X4265301Y-9345246D02*
X4265301Y-9402389D01*
X4265301Y-9402389D02*
X4255777Y-9421436D01*
X4255777Y-9421436D02*
X4246253Y-9430960D01*
X4246253Y-9430960D02*
X4227206Y-9440484D01*
X4227206Y-9440484D02*
X4198634Y-9440484D01*
X4379587Y-9440484D02*
X4360539Y-9430960D01*
X4360539Y-9430960D02*
X4351015Y-9411912D01*
X4351015Y-9411912D02*
X4351015Y-9240484D01*
X4531968Y-9430960D02*
X4512920Y-9440484D01*
X4512920Y-9440484D02*
X4474825Y-9440484D01*
X4474825Y-9440484D02*
X4455777Y-9430960D01*
X4455777Y-9430960D02*
X4446253Y-9411912D01*
X4446253Y-9411912D02*
X4446253Y-9335722D01*
X4446253Y-9335722D02*
X4455777Y-9316674D01*
X4455777Y-9316674D02*
X4474825Y-9307150D01*
X4474825Y-9307150D02*
X4512920Y-9307150D01*
X4512920Y-9307150D02*
X4531968Y-9316674D01*
X4531968Y-9316674D02*
X4541492Y-9335722D01*
X4541492Y-9335722D02*
X4541492Y-9354770D01*
X4541492Y-9354770D02*
X4446253Y-9373817D01*
X4617682Y-9430960D02*
X4636730Y-9440484D01*
X4636730Y-9440484D02*
X4674825Y-9440484D01*
X4674825Y-9440484D02*
X4693873Y-9430960D01*
X4693873Y-9430960D02*
X4703396Y-9411912D01*
X4703396Y-9411912D02*
X4703396Y-9402389D01*
X4703396Y-9402389D02*
X4693873Y-9383341D01*
X4693873Y-9383341D02*
X4674825Y-9373817D01*
X4674825Y-9373817D02*
X4646253Y-9373817D01*
X4646253Y-9373817D02*
X4627206Y-9364293D01*
X4627206Y-9364293D02*
X4617682Y-9345246D01*
X4617682Y-9345246D02*
X4617682Y-9335722D01*
X4617682Y-9335722D02*
X4627206Y-9316674D01*
X4627206Y-9316674D02*
X4646253Y-9307150D01*
X4646253Y-9307150D02*
X4674825Y-9307150D01*
X4674825Y-9307150D02*
X4693873Y-9316674D01*
X4770063Y-9516674D02*
X4779587Y-9507150D01*
X4779587Y-9507150D02*
X4798634Y-9478579D01*
X4798634Y-9478579D02*
X4808158Y-9459531D01*
X4808158Y-9459531D02*
X4817682Y-9430960D01*
X4817682Y-9430960D02*
X4827206Y-9383341D01*
X4827206Y-9383341D02*
X4827206Y-9345246D01*
X4827206Y-9345246D02*
X4817682Y-9297627D01*
X4817682Y-9297627D02*
X4808158Y-9269055D01*
X4808158Y-9269055D02*
X4798634Y-9250008D01*
X4798634Y-9250008D02*
X4779587Y-9221436D01*
X4779587Y-9221436D02*
X4770063Y-9211912D01*
X5131968Y-9516674D02*
X5122444Y-9507150D01*
X5122444Y-9507150D02*
X5103396Y-9478579D01*
X5103396Y-9478579D02*
X5093873Y-9459531D01*
X5093873Y-9459531D02*
X5084349Y-9430960D01*
X5084349Y-9430960D02*
X5074825Y-9383341D01*
X5074825Y-9383341D02*
X5074825Y-9345246D01*
X5074825Y-9345246D02*
X5084349Y-9297627D01*
X5084349Y-9297627D02*
X5093873Y-9269055D01*
X5093873Y-9269055D02*
X5103396Y-9250008D01*
X5103396Y-9250008D02*
X5122444Y-9221436D01*
X5122444Y-9221436D02*
X5131968Y-9211912D01*
X5208158Y-9307150D02*
X5208158Y-9440484D01*
X5208158Y-9326198D02*
X5217682Y-9316674D01*
X5217682Y-9316674D02*
X5236730Y-9307150D01*
X5236730Y-9307150D02*
X5265301Y-9307150D01*
X5265301Y-9307150D02*
X5284349Y-9316674D01*
X5284349Y-9316674D02*
X5293873Y-9335722D01*
X5293873Y-9335722D02*
X5293873Y-9440484D01*
X5417682Y-9440484D02*
X5398634Y-9430960D01*
X5398634Y-9430960D02*
X5389111Y-9421436D01*
X5389111Y-9421436D02*
X5379587Y-9402389D01*
X5379587Y-9402389D02*
X5379587Y-9345246D01*
X5379587Y-9345246D02*
X5389111Y-9326198D01*
X5389111Y-9326198D02*
X5398634Y-9316674D01*
X5398634Y-9316674D02*
X5417682Y-9307150D01*
X5417682Y-9307150D02*
X5446254Y-9307150D01*
X5446254Y-9307150D02*
X5465301Y-9316674D01*
X5465301Y-9316674D02*
X5474825Y-9326198D01*
X5474825Y-9326198D02*
X5484349Y-9345246D01*
X5484349Y-9345246D02*
X5484349Y-9402389D01*
X5484349Y-9402389D02*
X5474825Y-9421436D01*
X5474825Y-9421436D02*
X5465301Y-9430960D01*
X5465301Y-9430960D02*
X5446254Y-9440484D01*
X5446254Y-9440484D02*
X5417682Y-9440484D01*
X5541492Y-9307150D02*
X5617682Y-9307150D01*
X5570063Y-9240484D02*
X5570063Y-9411912D01*
X5570063Y-9411912D02*
X5579587Y-9430960D01*
X5579587Y-9430960D02*
X5598634Y-9440484D01*
X5598634Y-9440484D02*
X5617682Y-9440484D01*
X5836730Y-9307150D02*
X5836730Y-9507150D01*
X5836730Y-9316674D02*
X5855777Y-9307150D01*
X5855777Y-9307150D02*
X5893873Y-9307150D01*
X5893873Y-9307150D02*
X5912920Y-9316674D01*
X5912920Y-9316674D02*
X5922444Y-9326198D01*
X5922444Y-9326198D02*
X5931968Y-9345246D01*
X5931968Y-9345246D02*
X5931968Y-9402389D01*
X5931968Y-9402389D02*
X5922444Y-9421436D01*
X5922444Y-9421436D02*
X5912920Y-9430960D01*
X5912920Y-9430960D02*
X5893873Y-9440484D01*
X5893873Y-9440484D02*
X5855777Y-9440484D01*
X5855777Y-9440484D02*
X5836730Y-9430960D01*
X6046253Y-9440484D02*
X6027206Y-9430960D01*
X6027206Y-9430960D02*
X6017682Y-9411912D01*
X6017682Y-9411912D02*
X6017682Y-9240484D01*
X6208158Y-9440484D02*
X6208158Y-9335722D01*
X6208158Y-9335722D02*
X6198634Y-9316674D01*
X6198634Y-9316674D02*
X6179587Y-9307150D01*
X6179587Y-9307150D02*
X6141492Y-9307150D01*
X6141492Y-9307150D02*
X6122444Y-9316674D01*
X6208158Y-9430960D02*
X6189111Y-9440484D01*
X6189111Y-9440484D02*
X6141492Y-9440484D01*
X6141492Y-9440484D02*
X6122444Y-9430960D01*
X6122444Y-9430960D02*
X6112920Y-9411912D01*
X6112920Y-9411912D02*
X6112920Y-9392865D01*
X6112920Y-9392865D02*
X6122444Y-9373817D01*
X6122444Y-9373817D02*
X6141492Y-9364293D01*
X6141492Y-9364293D02*
X6189111Y-9364293D01*
X6189111Y-9364293D02*
X6208158Y-9354770D01*
X6274825Y-9307150D02*
X6351015Y-9307150D01*
X6303396Y-9240484D02*
X6303396Y-9411912D01*
X6303396Y-9411912D02*
X6312920Y-9430960D01*
X6312920Y-9430960D02*
X6331968Y-9440484D01*
X6331968Y-9440484D02*
X6351015Y-9440484D01*
X6493873Y-9430960D02*
X6474825Y-9440484D01*
X6474825Y-9440484D02*
X6436730Y-9440484D01*
X6436730Y-9440484D02*
X6417682Y-9430960D01*
X6417682Y-9430960D02*
X6408158Y-9411912D01*
X6408158Y-9411912D02*
X6408158Y-9335722D01*
X6408158Y-9335722D02*
X6417682Y-9316674D01*
X6417682Y-9316674D02*
X6436730Y-9307150D01*
X6436730Y-9307150D02*
X6474825Y-9307150D01*
X6474825Y-9307150D02*
X6493873Y-9316674D01*
X6493873Y-9316674D02*
X6503396Y-9335722D01*
X6503396Y-9335722D02*
X6503396Y-9354770D01*
X6503396Y-9354770D02*
X6408158Y-9373817D01*
X6674825Y-9440484D02*
X6674825Y-9240484D01*
X6674825Y-9430960D02*
X6655777Y-9440484D01*
X6655777Y-9440484D02*
X6617682Y-9440484D01*
X6617682Y-9440484D02*
X6598634Y-9430960D01*
X6598634Y-9430960D02*
X6589111Y-9421436D01*
X6589111Y-9421436D02*
X6579587Y-9402389D01*
X6579587Y-9402389D02*
X6579587Y-9345246D01*
X6579587Y-9345246D02*
X6589111Y-9326198D01*
X6589111Y-9326198D02*
X6598634Y-9316674D01*
X6598634Y-9316674D02*
X6617682Y-9307150D01*
X6617682Y-9307150D02*
X6655777Y-9307150D01*
X6655777Y-9307150D02*
X6674825Y-9316674D01*
X6751015Y-9516674D02*
X6760539Y-9507150D01*
X6760539Y-9507150D02*
X6779587Y-9478579D01*
X6779587Y-9478579D02*
X6789111Y-9459531D01*
X6789111Y-9459531D02*
X6798634Y-9430960D01*
X6798634Y-9430960D02*
X6808158Y-9383341D01*
X6808158Y-9383341D02*
X6808158Y-9345246D01*
X6808158Y-9345246D02*
X6798634Y-9297627D01*
X6798634Y-9297627D02*
X6789111Y-9269055D01*
X6789111Y-9269055D02*
X6779587Y-9250008D01*
X6779587Y-9250008D02*
X6760539Y-9221436D01*
X6760539Y-9221436D02*
X6751015Y-9211912D01*
M02*
