G04 #@! TF.GenerationSoftware,KiCad,Pcbnew,10.0.6*
G04 #@! TF.CreationDate,2026-09-29T09:54:03+05:30*
G04 #@! TF.ProjectId,telematics-tracker,74656c65-6d61-4746-9963-732d74726163,rev?*
G04 #@! TF.SameCoordinates,Original*
G04 #@! TF.FileFunction,Legend,Bot*
G04 #@! TF.FilePolarity,Positive*
%FSLAX46Y46*%
G04 Gerber Fmt 4.6, Leading zero omitted, Abs format (unit mm)*
G04 Created by KiCad (PCBNEW 10.0.6) date 2026-09-29 09:54:03*
%MOMM*%
%LPD*%
G01*
G04 APERTURE LIST*
G04 Aperture macros list*
%AMRoundRect*
0 Rectangle with rounded corners*
0 $1 Rounding radius*
0 $2 $3 $4 $5 $6 $7 $8 $9 X,Y pos of 4 corners*
0 Add a 4 corners polygon primitive as box body*
4,1,4,$2,$3,$4,$5,$6,$7,$8,$9,$2,$3,0*
0 Add four circle primitives for the rounded corners*
1,1,$1+$1,$2,$3*
1,1,$1+$1,$4,$5*
1,1,$1+$1,$6,$7*
1,1,$1+$1,$8,$9*
0 Add four rect primitives between the rounded corners*
20,1,$1+$1,$2,$3,$4,$5,0*
20,1,$1+$1,$4,$5,$6,$7,0*
20,1,$1+$1,$6,$7,$8,$9,0*
20,1,$1+$1,$8,$9,$2,$3,0*%
G04 Aperture macros list end*
%ADD10C,0.120000*%
%ADD11C,0.150000*%
%ADD12C,0.300000*%
%ADD13C,0.060000*%
%ADD14C,0.250000*%
%ADD15C,0.400000*%
%ADD16RoundRect,0.250000X-0.600000X-0.725000X0.600000X-0.725000X0.600000X0.725000X-0.600000X0.725000X0*%
%ADD17O,1.700000X1.950000*%
%ADD18C,5.700000*%
%ADD19C,0.800000*%
%ADD20C,1.100000*%
%ADD21RoundRect,0.250001X0.499999X-0.499999X0.499999X0.499999X-0.499999X0.499999X-0.499999X-0.499999X0*%
%ADD22C,1.500000*%
%ADD23RoundRect,0.225000X0.250000X-0.225000X0.250000X0.225000X-0.250000X0.225000X-0.250000X-0.225000X0*%
%ADD24RoundRect,0.250000X0.262500X0.450000X-0.262500X0.450000X-0.262500X-0.450000X0.262500X-0.450000X0*%
%ADD25RoundRect,0.250000X-0.312500X-0.625000X0.312500X-0.625000X0.312500X0.625000X-0.312500X0.625000X0*%
%ADD26RoundRect,0.150000X0.587500X0.150000X-0.587500X0.150000X-0.587500X-0.150000X0.587500X-0.150000X0*%
%ADD27O,0.609000X2.204000*%
%ADD28RoundRect,0.250000X0.450000X-0.262500X0.450000X0.262500X-0.450000X0.262500X-0.450000X-0.262500X0*%
%ADD29R,1.000000X1.800000*%
%ADD30RoundRect,0.225000X0.225000X0.250000X-0.225000X0.250000X-0.225000X-0.250000X0.225000X-0.250000X0*%
%ADD31RoundRect,0.250000X0.325000X1.100000X-0.325000X1.100000X-0.325000X-1.100000X0.325000X-1.100000X0*%
%ADD32RoundRect,0.250000X0.475000X-0.250000X0.475000X0.250000X-0.475000X0.250000X-0.475000X-0.250000X0*%
%ADD33R,0.560000X1.300000*%
%ADD34RoundRect,0.250000X-0.250000X-0.475000X0.250000X-0.475000X0.250000X0.475000X-0.250000X0.475000X0*%
%ADD35RoundRect,0.140000X0.140000X0.170000X-0.140000X0.170000X-0.140000X-0.170000X0.140000X-0.170000X0*%
%ADD36RoundRect,0.250000X1.000000X0.650000X-1.000000X0.650000X-1.000000X-0.650000X1.000000X-0.650000X0*%
%ADD37R,1.700000X0.400000*%
%ADD38RoundRect,0.250000X0.450000X0.350000X-0.450000X0.350000X-0.450000X-0.350000X0.450000X-0.350000X0*%
%ADD39R,1.635000X2.160000*%
G04 APERTURE END LIST*
G04 #@! TO.C,C80*
D10*
X46230000Y-43840580D02*
X46230000Y-43559420D01*
X47250000Y-43840580D02*
X47250000Y-43559420D01*
G04 #@! TO.C,TP6*
X64641000Y-25570000D02*
G75*
G02*
X62741000Y-25570000I-950000J0D01*
G01*
X62741000Y-25570000D02*
G75*
G02*
X64641000Y-25570000I950000J0D01*
G01*
G04 #@! TO.C,TP27*
X68331000Y-22480000D02*
G75*
G02*
X66431000Y-22480000I-950000J0D01*
G01*
X66431000Y-22480000D02*
G75*
G02*
X68331000Y-22480000I950000J0D01*
G01*
G04 #@! TO.C,TP3*
X60651000Y-24740000D02*
G75*
G02*
X58751000Y-24740000I-950000J0D01*
G01*
X58751000Y-24740000D02*
G75*
G02*
X60651000Y-24740000I950000J0D01*
G01*
G04 #@! TO.C,R46*
X27627064Y-38345000D02*
X27172936Y-38345000D01*
X27627064Y-39815000D02*
X27172936Y-39815000D01*
G04 #@! TO.C,C1*
X30860000Y-22120580D02*
X30860000Y-21839420D01*
X31880000Y-22120580D02*
X31880000Y-21839420D01*
G04 #@! TO.C,R16*
X14102936Y-46540000D02*
X15557064Y-46540000D01*
X14102936Y-48360000D02*
X15557064Y-48360000D01*
G04 #@! TO.C,Q8*
X46340000Y-37770000D02*
X46340000Y-38770000D01*
X46340000Y-39890000D02*
X46340000Y-40890000D01*
X46340000Y-40890000D02*
X47860000Y-40890000D01*
X47860000Y-37770000D02*
X46340000Y-37770000D01*
X47860000Y-37820000D02*
X47860000Y-37770000D01*
X47860000Y-39720000D02*
X47860000Y-38940000D01*
X47860000Y-40890000D02*
X47860000Y-40840000D01*
X48400000Y-38950000D02*
X48160000Y-39280000D01*
X48640000Y-39280000D01*
X48400000Y-38950000D01*
G36*
X48640000Y-39280000D02*
G01*
X48160000Y-39280000D01*
X48400000Y-38950000D01*
X48640000Y-39280000D01*
G37*
G04 #@! TO.C,U7*
D11*
X62210000Y-13230000D02*
X62210000Y-17650000D01*
X62210000Y-17650000D02*
X67590000Y-17650000D01*
X67590000Y-13230000D02*
X62210000Y-13230000D01*
X67590000Y-17650000D02*
X67590000Y-13230000D01*
D12*
X66950000Y-16900000D02*
G75*
G02*
X66650000Y-16900000I-150000J0D01*
G01*
X66650000Y-16900000D02*
G75*
G02*
X66950000Y-16900000I150000J0D01*
G01*
D13*
X67540000Y-19390000D02*
G75*
G02*
X67480000Y-19390000I-30000J0D01*
G01*
X67480000Y-19390000D02*
G75*
G02*
X67540000Y-19390000I30000J0D01*
G01*
D12*
X67710000Y-18980000D02*
G75*
G02*
X67410000Y-18980000I-150000J0D01*
G01*
X67410000Y-18980000D02*
G75*
G02*
X67710000Y-18980000I150000J0D01*
G01*
G04 #@! TO.C,C69*
D10*
X41800000Y-43610580D02*
X41800000Y-43329420D01*
X42820000Y-43610580D02*
X42820000Y-43329420D01*
G04 #@! TO.C,R82*
X32265000Y-15227064D02*
X32265000Y-14772936D01*
X33735000Y-15227064D02*
X33735000Y-14772936D01*
G04 #@! TO.C,C4*
X31680000Y-30510580D02*
X31680000Y-30229420D01*
X32700000Y-30510580D02*
X32700000Y-30229420D01*
G04 #@! TO.C,Y2*
X30925000Y-24925000D02*
X29575000Y-24925000D01*
X30925000Y-26675000D02*
X29575000Y-26675000D01*
G04 #@! TO.C,C2*
X38900000Y-22130580D02*
X38900000Y-21849420D01*
X39920000Y-22130580D02*
X39920000Y-21849420D01*
G04 #@! TO.C,TP15*
X78747500Y-46296200D02*
G75*
G02*
X76847500Y-46296200I-950000J0D01*
G01*
X76847500Y-46296200D02*
G75*
G02*
X78747500Y-46296200I950000J0D01*
G01*
G04 #@! TO.C,TP5*
X67451000Y-33560000D02*
G75*
G02*
X65551000Y-33560000I-950000J0D01*
G01*
X65551000Y-33560000D02*
G75*
G02*
X67451000Y-33560000I950000J0D01*
G01*
G04 #@! TO.C,D5*
X16510000Y-41860000D02*
X16510000Y-42860000D01*
X16510000Y-43980000D02*
X16510000Y-44980000D01*
X16510000Y-44980000D02*
X18030000Y-44980000D01*
X18030000Y-41860000D02*
X16510000Y-41860000D01*
X18030000Y-41910000D02*
X18030000Y-41860000D01*
X18030000Y-43810000D02*
X18030000Y-43030000D01*
X18030000Y-44980000D02*
X18030000Y-44930000D01*
X18570000Y-43040000D02*
X18330000Y-43370000D01*
X18810000Y-43370000D01*
X18570000Y-43040000D01*
G36*
X18810000Y-43370000D02*
G01*
X18330000Y-43370000D01*
X18570000Y-43040000D01*
X18810000Y-43370000D01*
G37*
G04 #@! TO.C,R47*
X40757064Y-38345000D02*
X40302936Y-38345000D01*
X40757064Y-39815000D02*
X40302936Y-39815000D01*
G04 #@! TO.C,R48*
X53887064Y-38345000D02*
X53432936Y-38345000D01*
X53887064Y-39815000D02*
X53432936Y-39815000D01*
G04 #@! TO.C,C76*
X40440580Y-6770000D02*
X40159420Y-6770000D01*
X40440580Y-7790000D02*
X40159420Y-7790000D01*
G04 #@! TO.C,TP7*
X30451000Y-2500000D02*
G75*
G02*
X28551000Y-2500000I-950000J0D01*
G01*
X28551000Y-2500000D02*
G75*
G02*
X30451000Y-2500000I950000J0D01*
G01*
G04 #@! TO.C,R87*
X49915000Y-55027064D02*
X49915000Y-54572936D01*
X51385000Y-55027064D02*
X51385000Y-54572936D01*
G04 #@! TO.C,C3*
X25820000Y-30530580D02*
X25820000Y-30249420D01*
X26840000Y-30530580D02*
X26840000Y-30249420D01*
G04 #@! TO.C,C68*
X37360000Y-43610580D02*
X37360000Y-43329420D01*
X38380000Y-43610580D02*
X38380000Y-43329420D01*
G04 #@! TO.C,C81*
X85611252Y-16040000D02*
X84188748Y-16040000D01*
X85611252Y-18760000D02*
X84188748Y-18760000D01*
G04 #@! TO.C,R18*
X8352936Y-49290000D02*
X9807064Y-49290000D01*
X8352936Y-51110000D02*
X9807064Y-51110000D01*
G04 #@! TO.C,R19*
X14102936Y-49990000D02*
X15557064Y-49990000D01*
X14102936Y-51810000D02*
X15557064Y-51810000D01*
G04 #@! TO.C,Q6*
X46340000Y-33180000D02*
X46340000Y-34180000D01*
X46340000Y-35300000D02*
X46340000Y-36300000D01*
X46340000Y-36300000D02*
X47860000Y-36300000D01*
X47860000Y-33180000D02*
X46340000Y-33180000D01*
X47860000Y-33230000D02*
X47860000Y-33180000D01*
X47860000Y-35130000D02*
X47860000Y-34350000D01*
X47860000Y-36300000D02*
X47860000Y-36250000D01*
X48400000Y-34360000D02*
X48160000Y-34690000D01*
X48640000Y-34690000D01*
X48400000Y-34360000D01*
G36*
X48640000Y-34690000D02*
G01*
X48160000Y-34690000D01*
X48400000Y-34360000D01*
X48640000Y-34690000D01*
G37*
G04 #@! TO.C,C62*
X35535000Y-48771252D02*
X35535000Y-48248748D01*
X37005000Y-48771252D02*
X37005000Y-48248748D01*
G04 #@! TO.C,C82*
X90511252Y-16040000D02*
X89088748Y-16040000D01*
X90511252Y-18760000D02*
X89088748Y-18760000D01*
G04 #@! TO.C,OK1*
D14*
X19700000Y-49430000D02*
X23760000Y-49430000D01*
X19700000Y-53750000D02*
X19700000Y-49430000D01*
X23760000Y-49430000D02*
X23760000Y-53750000D01*
X23760000Y-53750000D02*
X19700000Y-53750000D01*
D12*
X23150000Y-52810000D02*
G75*
G02*
X22850000Y-52810000I-150000J0D01*
G01*
X22850000Y-52810000D02*
G75*
G02*
X23150000Y-52810000I150000J0D01*
G01*
D13*
X23710000Y-55090000D02*
G75*
G02*
X23650000Y-55090000I-30000J0D01*
G01*
X23650000Y-55090000D02*
G75*
G02*
X23710000Y-55090000I30000J0D01*
G01*
D12*
X23880000Y-54740000D02*
G75*
G02*
X23580000Y-54740000I-150000J0D01*
G01*
X23580000Y-54740000D02*
G75*
G02*
X23880000Y-54740000I150000J0D01*
G01*
G04 #@! TO.C,R45*
D10*
X53887064Y-34495000D02*
X53432936Y-34495000D01*
X53887064Y-35965000D02*
X53432936Y-35965000D01*
G04 #@! TO.C,C78*
X27488748Y-6265000D02*
X28011252Y-6265000D01*
X27488748Y-7735000D02*
X28011252Y-7735000D01*
G04 #@! TO.C,C48*
X96007836Y-21240000D02*
X95792164Y-21240000D01*
X96007836Y-21960000D02*
X95792164Y-21960000D01*
G04 #@! TO.C,C64*
X45340000Y-48100580D02*
X45340000Y-47819420D01*
X46360000Y-48100580D02*
X46360000Y-47819420D01*
G04 #@! TO.C,Q5*
X33210000Y-33180000D02*
X33210000Y-34180000D01*
X33210000Y-35300000D02*
X33210000Y-36300000D01*
X33210000Y-36300000D02*
X34730000Y-36300000D01*
X34730000Y-33180000D02*
X33210000Y-33180000D01*
X34730000Y-33230000D02*
X34730000Y-33180000D01*
X34730000Y-35130000D02*
X34730000Y-34350000D01*
X34730000Y-36300000D02*
X34730000Y-36250000D01*
X35270000Y-34360000D02*
X35030000Y-34690000D01*
X35510000Y-34690000D01*
X35270000Y-34360000D01*
G36*
X35510000Y-34690000D02*
G01*
X35030000Y-34690000D01*
X35270000Y-34360000D01*
X35510000Y-34690000D01*
G37*
G04 #@! TO.C,D8*
X14010000Y-6250000D02*
X8500000Y-6250000D01*
X14010000Y-6250000D02*
X14010000Y-9550000D01*
X14010000Y-9550000D02*
X8500000Y-9550000D01*
G04 #@! TO.C,C50*
X96007836Y-26940000D02*
X95792164Y-26940000D01*
X96007836Y-27660000D02*
X95792164Y-27660000D01*
G04 #@! TO.C,R88*
X59275000Y-42797064D02*
X59275000Y-42342936D01*
X60745000Y-42797064D02*
X60745000Y-42342936D01*
G04 #@! TO.C,R15*
X8352936Y-45490000D02*
X9807064Y-45490000D01*
X8352936Y-47310000D02*
X9807064Y-47310000D01*
G04 #@! TO.C,R85*
X56175000Y-47347064D02*
X56175000Y-46892936D01*
X57645000Y-47347064D02*
X57645000Y-46892936D01*
G04 #@! TO.C,C67*
X32705000Y-44181252D02*
X32705000Y-43658748D01*
X34175000Y-44181252D02*
X34175000Y-43658748D01*
G04 #@! TO.C,C63*
X40325000Y-48221252D02*
X40325000Y-47698748D01*
X41795000Y-48221252D02*
X41795000Y-47698748D01*
G04 #@! TO.C,R26*
X29047064Y-43585000D02*
X28592936Y-43585000D01*
X29047064Y-45055000D02*
X28592936Y-45055000D01*
G04 #@! TO.C,U8*
D14*
X66420000Y-49510000D02*
X66420000Y-44500000D01*
X66560000Y-49510000D02*
X67470000Y-49510000D01*
X68850000Y-49510000D02*
X69900000Y-49510000D01*
X69900000Y-44500000D02*
X66420000Y-44500000D01*
X69900000Y-49510000D02*
X69900000Y-44500000D01*
X67470000Y-49510000D02*
G75*
G02*
X68850000Y-49510000I690000J0D01*
G01*
D13*
X65570000Y-49030000D02*
G75*
G02*
X65510000Y-49030000I-30000J0D01*
G01*
X65510000Y-49030000D02*
G75*
G02*
X65570000Y-49030000I30000J0D01*
G01*
D15*
X67250000Y-48630000D02*
G75*
G02*
X66850000Y-48630000I-200000J0D01*
G01*
X66850000Y-48630000D02*
G75*
G02*
X67250000Y-48630000I200000J0D01*
G01*
G04 #@! TO.C,R25*
D10*
X22707064Y-43585000D02*
X22252936Y-43585000D01*
X22707064Y-45055000D02*
X22252936Y-45055000D01*
G04 #@! TO.C,Y1*
X37450000Y-20000000D02*
X37450000Y-23420000D01*
X37450000Y-23420000D02*
X33330000Y-23420000D01*
G04 #@! TO.C,TP16*
X81747500Y-46296200D02*
G75*
G02*
X79847500Y-46296200I-950000J0D01*
G01*
X79847500Y-46296200D02*
G75*
G02*
X81747500Y-46296200I950000J0D01*
G01*
G04 #@! TO.C,TP2*
X68541000Y-26180000D02*
G75*
G02*
X66641000Y-26180000I-950000J0D01*
G01*
X66641000Y-26180000D02*
G75*
G02*
X68541000Y-26180000I950000J0D01*
G01*
G04 #@! TO.C,R14*
X2602936Y-45490000D02*
X4057064Y-45490000D01*
X2602936Y-47310000D02*
X4057064Y-47310000D01*
G04 #@! TO.C,OK2*
D14*
X29100000Y-49430000D02*
X33160000Y-49430000D01*
X29100000Y-53750000D02*
X29100000Y-49430000D01*
X33160000Y-49430000D02*
X33160000Y-53750000D01*
X33160000Y-53750000D02*
X29100000Y-53750000D01*
D12*
X32550000Y-52810000D02*
G75*
G02*
X32250000Y-52810000I-150000J0D01*
G01*
X32250000Y-52810000D02*
G75*
G02*
X32550000Y-52810000I150000J0D01*
G01*
D13*
X33110000Y-55090000D02*
G75*
G02*
X33050000Y-55090000I-30000J0D01*
G01*
X33050000Y-55090000D02*
G75*
G02*
X33110000Y-55090000I30000J0D01*
G01*
D12*
X33280000Y-54740000D02*
G75*
G02*
X32980000Y-54740000I-150000J0D01*
G01*
X32980000Y-54740000D02*
G75*
G02*
X33280000Y-54740000I150000J0D01*
G01*
G04 #@! TO.C,C77*
D10*
X22888748Y-6265000D02*
X23411252Y-6265000D01*
X22888748Y-7735000D02*
X23411252Y-7735000D01*
G04 #@! TO.C,D6*
X16510000Y-37270000D02*
X16510000Y-38270000D01*
X16510000Y-39390000D02*
X16510000Y-40390000D01*
X16510000Y-40390000D02*
X18030000Y-40390000D01*
X18030000Y-37270000D02*
X16510000Y-37270000D01*
X18030000Y-37320000D02*
X18030000Y-37270000D01*
X18030000Y-39220000D02*
X18030000Y-38440000D01*
X18030000Y-40390000D02*
X18030000Y-40340000D01*
X18570000Y-38450000D02*
X18330000Y-38780000D01*
X18810000Y-38780000D01*
X18570000Y-38450000D01*
G36*
X18810000Y-38780000D02*
G01*
X18330000Y-38780000D01*
X18570000Y-38450000D01*
X18810000Y-38780000D01*
G37*
G04 #@! TO.C,L3*
D11*
X37550000Y-53970000D02*
X37550000Y-56020000D01*
X37550000Y-56020000D02*
X37810000Y-56290000D01*
X37790000Y-53720000D02*
X37550000Y-53970000D01*
X37810000Y-56290000D02*
X39190000Y-56290000D01*
X39190000Y-53720000D02*
X37790000Y-53720000D01*
X39190000Y-53720000D02*
X39190000Y-53720000D01*
X40460000Y-56290000D02*
X40460000Y-56290000D01*
X40460000Y-56290000D02*
X41850000Y-56290000D01*
X41830000Y-53720000D02*
X40460000Y-53720000D01*
X41850000Y-56290000D02*
X42090000Y-56050000D01*
X42090000Y-53990000D02*
X41830000Y-53720000D01*
X42090000Y-56050000D02*
X42090000Y-53990000D01*
D13*
X41100000Y-56020000D02*
G75*
G02*
X41040000Y-56020000I-30000J0D01*
G01*
X41040000Y-56020000D02*
G75*
G02*
X41100000Y-56020000I30000J0D01*
G01*
G04 #@! TO.C,R86*
D10*
X56825000Y-51897064D02*
X56825000Y-51442936D01*
X58295000Y-51897064D02*
X58295000Y-51442936D01*
G04 #@! TO.C,R43*
X27627064Y-34495000D02*
X27172936Y-34495000D01*
X27627064Y-35965000D02*
X27172936Y-35965000D01*
G04 #@! TO.C,TP1*
X65951000Y-29870000D02*
G75*
G02*
X64051000Y-29870000I-950000J0D01*
G01*
X64051000Y-29870000D02*
G75*
G02*
X65951000Y-29870000I950000J0D01*
G01*
G04 #@! TO.C,R44*
X40757064Y-34495000D02*
X40302936Y-34495000D01*
X40757064Y-35965000D02*
X40302936Y-35965000D01*
G04 #@! TO.C,Q7*
X33210000Y-37770000D02*
X33210000Y-38770000D01*
X33210000Y-39890000D02*
X33210000Y-40890000D01*
X33210000Y-40890000D02*
X34730000Y-40890000D01*
X34730000Y-37770000D02*
X33210000Y-37770000D01*
X34730000Y-37820000D02*
X34730000Y-37770000D01*
X34730000Y-39720000D02*
X34730000Y-38940000D01*
X34730000Y-40890000D02*
X34730000Y-40840000D01*
X35270000Y-38950000D02*
X35030000Y-39280000D01*
X35510000Y-39280000D01*
X35270000Y-38950000D01*
G36*
X35510000Y-39280000D02*
G01*
X35030000Y-39280000D01*
X35270000Y-38950000D01*
X35510000Y-39280000D01*
G37*
G04 #@! TO.C,R17*
X2602936Y-49290000D02*
X4057064Y-49290000D01*
X2602936Y-51110000D02*
X4057064Y-51110000D01*
G04 #@! TO.C,R70*
X74452064Y-45260000D02*
X73997936Y-45260000D01*
X74452064Y-46730000D02*
X73997936Y-46730000D01*
G04 #@! TO.C,TP17*
X84747500Y-46296200D02*
G75*
G02*
X82847500Y-46296200I-950000J0D01*
G01*
X82847500Y-46296200D02*
G75*
G02*
X84747500Y-46296200I950000J0D01*
G01*
G04 #@! TO.C,R89*
X59275000Y-47347064D02*
X59275000Y-46892936D01*
X60745000Y-47347064D02*
X60745000Y-46892936D01*
G04 #@! TD*
%LPC*%
D16*
G04 #@! TO.C,J2*
X53010000Y-62755000D03*
D17*
X55510000Y-62755000D03*
X58010000Y-62755000D03*
G04 #@! TD*
D18*
G04 #@! TO.C,H3*
X3500000Y-64500000D03*
G04 #@! TD*
D19*
G04 #@! TO.C,X1*
X65880000Y-57857000D03*
X74370000Y-57857000D03*
G04 #@! TD*
D18*
G04 #@! TO.C,H2*
X96500000Y-3500000D03*
G04 #@! TD*
G04 #@! TO.C,H1*
X3500000Y-3500000D03*
G04 #@! TD*
G04 #@! TO.C,H5*
X25630000Y-60580000D03*
G04 #@! TD*
G04 #@! TO.C,H4*
X96500000Y-64500000D03*
G04 #@! TD*
D20*
G04 #@! TO.C,J1*
X11450000Y-33000000D03*
X6550000Y-12000000D03*
D21*
X7500000Y-30000000D03*
D22*
X7500000Y-27000000D03*
X7500000Y-24000000D03*
X7500000Y-21000000D03*
X7500000Y-18000000D03*
X7500000Y-15000000D03*
X10500000Y-30000000D03*
X10500000Y-27000000D03*
X10500000Y-24000000D03*
X10500000Y-21000000D03*
X10500000Y-18000000D03*
X10500000Y-15000000D03*
G04 #@! TD*
D23*
G04 #@! TO.C,C80*
X46740000Y-44475000D03*
X46740000Y-42925000D03*
G04 #@! TD*
D22*
G04 #@! TO.C,TP6*
X63691000Y-25570000D03*
G04 #@! TD*
G04 #@! TO.C,TP27*
X67381000Y-22480000D03*
G04 #@! TD*
G04 #@! TO.C,TP3*
X59701000Y-24740000D03*
G04 #@! TD*
D24*
G04 #@! TO.C,R46*
X28312500Y-39080000D03*
X26487500Y-39080000D03*
G04 #@! TD*
D23*
G04 #@! TO.C,C1*
X31370000Y-22755000D03*
X31370000Y-21205000D03*
G04 #@! TD*
D25*
G04 #@! TO.C,R16*
X13367500Y-47450000D03*
X16292500Y-47450000D03*
G04 #@! TD*
D26*
G04 #@! TO.C,Q8*
X48037500Y-38380000D03*
X48037500Y-40280000D03*
X46162500Y-39330000D03*
G04 #@! TD*
D27*
G04 #@! TO.C,U7*
X66800000Y-18980000D03*
X65530000Y-18980000D03*
X64270000Y-18980000D03*
X63000000Y-18980000D03*
X63000000Y-11900000D03*
X64270000Y-11900000D03*
X65530000Y-11900000D03*
X66800000Y-11900000D03*
G04 #@! TD*
D23*
G04 #@! TO.C,C69*
X42310000Y-44245000D03*
X42310000Y-42695000D03*
G04 #@! TD*
D28*
G04 #@! TO.C,R82*
X33000000Y-15912500D03*
X33000000Y-14087500D03*
G04 #@! TD*
D23*
G04 #@! TO.C,C4*
X32190000Y-31145000D03*
X32190000Y-29595000D03*
G04 #@! TD*
D29*
G04 #@! TO.C,Y2*
X29000000Y-25800000D03*
X31500000Y-25800000D03*
G04 #@! TD*
D23*
G04 #@! TO.C,C2*
X39410000Y-22765000D03*
X39410000Y-21215000D03*
G04 #@! TD*
D22*
G04 #@! TO.C,TP15*
X77797500Y-46296200D03*
G04 #@! TD*
G04 #@! TO.C,TP5*
X66501000Y-33560000D03*
G04 #@! TD*
D26*
G04 #@! TO.C,D5*
X18207500Y-42470000D03*
X18207500Y-44370000D03*
X16332500Y-43420000D03*
G04 #@! TD*
D24*
G04 #@! TO.C,R47*
X41442500Y-39080000D03*
X39617500Y-39080000D03*
G04 #@! TD*
G04 #@! TO.C,R48*
X54572500Y-39080000D03*
X52747500Y-39080000D03*
G04 #@! TD*
D30*
G04 #@! TO.C,C76*
X41075000Y-7280000D03*
X39525000Y-7280000D03*
G04 #@! TD*
D22*
G04 #@! TO.C,TP7*
X29501000Y-2500000D03*
G04 #@! TD*
D28*
G04 #@! TO.C,R87*
X50650000Y-55712500D03*
X50650000Y-53887500D03*
G04 #@! TD*
D23*
G04 #@! TO.C,C3*
X26330000Y-31165000D03*
X26330000Y-29615000D03*
G04 #@! TD*
G04 #@! TO.C,C68*
X37870000Y-44245000D03*
X37870000Y-42695000D03*
G04 #@! TD*
D31*
G04 #@! TO.C,C81*
X86375000Y-17400000D03*
X83425000Y-17400000D03*
G04 #@! TD*
D25*
G04 #@! TO.C,R18*
X7617500Y-50200000D03*
X10542500Y-50200000D03*
G04 #@! TD*
G04 #@! TO.C,R19*
X13367500Y-50900000D03*
X16292500Y-50900000D03*
G04 #@! TD*
D26*
G04 #@! TO.C,Q6*
X48037500Y-33790000D03*
X48037500Y-35690000D03*
X46162500Y-34740000D03*
G04 #@! TD*
D32*
G04 #@! TO.C,C62*
X36270000Y-49460000D03*
X36270000Y-47560000D03*
G04 #@! TD*
D31*
G04 #@! TO.C,C82*
X91275000Y-17400000D03*
X88325000Y-17400000D03*
G04 #@! TD*
D33*
G04 #@! TO.C,OK1*
X23000000Y-54740000D03*
X20460000Y-54740000D03*
X20460000Y-48440000D03*
X23000000Y-48440000D03*
G04 #@! TD*
D24*
G04 #@! TO.C,R45*
X54572500Y-35230000D03*
X52747500Y-35230000D03*
G04 #@! TD*
D34*
G04 #@! TO.C,C78*
X26800000Y-7000000D03*
X28700000Y-7000000D03*
G04 #@! TD*
D35*
G04 #@! TO.C,C48*
X96380000Y-21600000D03*
X95420000Y-21600000D03*
G04 #@! TD*
D23*
G04 #@! TO.C,C64*
X45850000Y-48735000D03*
X45850000Y-47185000D03*
G04 #@! TD*
D26*
G04 #@! TO.C,Q5*
X34907500Y-33790000D03*
X34907500Y-35690000D03*
X33032500Y-34740000D03*
G04 #@! TD*
D36*
G04 #@! TO.C,D8*
X12500000Y-7900000D03*
X8500000Y-7900000D03*
G04 #@! TD*
D35*
G04 #@! TO.C,C50*
X96380000Y-27300000D03*
X95420000Y-27300000D03*
G04 #@! TD*
D28*
G04 #@! TO.C,R88*
X60010000Y-43482500D03*
X60010000Y-41657500D03*
G04 #@! TD*
D25*
G04 #@! TO.C,R15*
X7617500Y-46400000D03*
X10542500Y-46400000D03*
G04 #@! TD*
D28*
G04 #@! TO.C,R85*
X56910000Y-48032500D03*
X56910000Y-46207500D03*
G04 #@! TD*
D32*
G04 #@! TO.C,C67*
X33440000Y-44870000D03*
X33440000Y-42970000D03*
G04 #@! TD*
G04 #@! TO.C,C63*
X41060000Y-48910000D03*
X41060000Y-47010000D03*
G04 #@! TD*
D24*
G04 #@! TO.C,R26*
X29732500Y-44320000D03*
X27907500Y-44320000D03*
G04 #@! TD*
D37*
G04 #@! TO.C,U8*
X65360000Y-48950000D03*
X65360000Y-48300000D03*
X65360000Y-47650000D03*
X65360000Y-47000000D03*
X65360000Y-46350000D03*
X65360000Y-45700000D03*
X65360000Y-45050000D03*
X70960000Y-45050000D03*
X70960000Y-45700000D03*
X70960000Y-46350000D03*
X70960000Y-47000000D03*
X70960000Y-47650000D03*
X70960000Y-48300000D03*
X70960000Y-48950000D03*
G04 #@! TD*
D24*
G04 #@! TO.C,R25*
X23392500Y-44320000D03*
X21567500Y-44320000D03*
G04 #@! TD*
D38*
G04 #@! TO.C,Y1*
X36490000Y-22560000D03*
X34290000Y-22560000D03*
X34290000Y-20860000D03*
X36490000Y-20860000D03*
G04 #@! TD*
D22*
G04 #@! TO.C,TP16*
X80797500Y-46296200D03*
G04 #@! TD*
G04 #@! TO.C,TP2*
X67591000Y-26180000D03*
G04 #@! TD*
D25*
G04 #@! TO.C,R14*
X1867500Y-46400000D03*
X4792500Y-46400000D03*
G04 #@! TD*
D33*
G04 #@! TO.C,OK2*
X32400000Y-54740000D03*
X29860000Y-54740000D03*
X29860000Y-48440000D03*
X32400000Y-48440000D03*
G04 #@! TD*
D34*
G04 #@! TO.C,C77*
X22200000Y-7000000D03*
X24100000Y-7000000D03*
G04 #@! TD*
D26*
G04 #@! TO.C,D6*
X18207500Y-37880000D03*
X18207500Y-39780000D03*
X16332500Y-38830000D03*
G04 #@! TD*
D39*
G04 #@! TO.C,L3*
X40990000Y-55020000D03*
X38650000Y-55020000D03*
G04 #@! TD*
D28*
G04 #@! TO.C,R86*
X57560000Y-52582500D03*
X57560000Y-50757500D03*
G04 #@! TD*
D24*
G04 #@! TO.C,R43*
X28312500Y-35230000D03*
X26487500Y-35230000D03*
G04 #@! TD*
D22*
G04 #@! TO.C,TP1*
X65001000Y-29870000D03*
G04 #@! TD*
D24*
G04 #@! TO.C,R44*
X41442500Y-35230000D03*
X39617500Y-35230000D03*
G04 #@! TD*
D26*
G04 #@! TO.C,Q7*
X34907500Y-38380000D03*
X34907500Y-40280000D03*
X33032500Y-39330000D03*
G04 #@! TD*
D25*
G04 #@! TO.C,R17*
X1867500Y-50200000D03*
X4792500Y-50200000D03*
G04 #@! TD*
D24*
G04 #@! TO.C,R70*
X75137500Y-45995000D03*
X73312500Y-45995000D03*
G04 #@! TD*
D22*
G04 #@! TO.C,TP17*
X83797500Y-46296200D03*
G04 #@! TD*
D28*
G04 #@! TO.C,R89*
X60010000Y-48032500D03*
X60010000Y-46207500D03*
G04 #@! TD*
%LPD*%
M02*
